<?xml version="1.0" encoding="UTF-8"?>
<svg width="34px" height="34px" viewBox="0 0 34 34" version="1.1" xmlns="http://www.w3.org/2000/svg" xmlns:xlink="http://www.w3.org/1999/xlink">
    <!-- Generator: Sketch 46.2 (44496) - http://www.bohemiancoding.com/sketch -->
    <title>category_icon_wallet</title>
    <desc>Created with Sketch.</desc>
    <defs></defs>
    <g id="Category-icons" stroke="none" stroke-width="1" fill="none" fill-rule="evenodd">
        <g id="category_icon_wallet" fill-rule="nonzero" fill="#FFFFFF">
            <g id="wallet.2" transform="translate(8.000000, 5.000000)">
                <path d="M12.78,4.19515961 C12.96,4.13515961 13.08,4.19515961 13.14,4.37515961 C13.2,4.55515961 13.14,4.67515961 12.96,4.79515961 L9.9,5.99515961 L15.24,5.99515961 C15.36,5.99515961 15.42,5.99515961 15.54,5.99515961 L15.54,3.89515961 C15.54,3.30840532 15.54,2.72165103 15.54,2.13489674 L15.54,2.13489674 C15.54,1.30646962 14.8684271,0.634896742 14.04,0.634896742 C13.8291755,0.634896742 13.6207188,0.679338336 13.4282257,0.765322997 L2.14850853,5.8038547 L2.14850853,5.8038547 C2.09808221,5.8263796 2.07546365,5.88551825 2.09798856,5.93594456 C2.11407861,5.97196522 2.14984252,5.99515961 2.18929348,5.99515961 C2.35952898,5.99515961 2.52976449,5.99515961 2.7,5.99515961 L8.34,5.99515961 L12.78,4.19515961 Z" id="Shape"></path>
                <circle id="Oval" cx="15" cy="13" r="1"></circle>
                <path d="M13.0044457,12.9982832 C13.0044457,11.9688288 13.9480504,10.9965663 14.9471613,10.9965663 L18,10.9965663 L18,15.0000002 L14.9471613,15.0000002 C13.9480504,15.0000002 13.0044457,14.0277377 13.0044457,12.9982832 Z M16,13 C16,12.4 15.5333333,12 15,12 C14.4666667,12 14,12.4666667 14,13 C14,13.5333333 14.4666667,14 15,14 C15.5333333,14 16,13.5333333 16,13 Z" id="Combined-Shape"></path>
                <path d="M3.55271368e-15,8.5 L2.53401742e-14,17.5 L2.97539771e-14,17.5 C3.27985945e-14,18.3284271 0.671572875,19 1.5,19 L16.5,19 L16.5,19 C17.3284271,19 18,18.3284271 18,17.5 L18,15.5 L14.7,15.5 C13.4444618,15.5 12.501265,14.2756396 12.501265,13 C12.501265,11.7243604 13.4504967,10.4955278 14.7,10.4955278 L18,10.4955278 L18,8.5 L18,8.5 C18,7.67157288 17.3284271,7 16.5,7 L1.5,7 L1.5,7 C0.671572875,7 -1.01453063e-16,7.67157288 0,8.5 Z" id="Shape"></path>
            </g>
        </g>
    </g>
</svg>