<?xml version="1.0" encoding="UTF-8"?>
<svg width="34px" height="34px" viewBox="0 0 34 34" version="1.1" xmlns="http://www.w3.org/2000/svg" xmlns:xlink="http://www.w3.org/1999/xlink">
    <!-- Generator: Sketch 46.2 (44496) - http://www.bohemiancoding.com/sketch -->
    <title>category_icon_travel</title>
    <desc>Created with Sketch.</desc>
    <defs></defs>
    <g id="Category-icons" stroke="none" stroke-width="1" fill="none" fill-rule="evenodd">
        <g id="category_icon_travel" fill-rule="nonzero" fill="#FFFFFF">
            <g id="airplane" transform="translate(18.072385, 16.169895) rotate(-45.000000) translate(-18.072385, -16.169895) translate(8.572385, 6.669895)">
                <path d="M18.6759709,9.13632843 C18.4445826,7.90771157 17.2705017,7.02033389 15.9460574,7.10525414 L13.3929963,7.25639661 L8.40763209,1.02371754 C7.88720339,0.373181659 7.11123484,0 6.2783931,0 L5.06457885,0 C4.92979717,0 4.8043645,0.0701176395 4.73346778,0.184643117 C4.66257105,0.299168595 4.65555929,0.442520214 4.71632791,0.563278371 L8.19260466,7.51661096 L2.96182875,7.77838348 L1.51740538,4.88953673 C1.42079885,4.69632368 1.18707339,4.61919428 0.994639421,4.71502172 L0.215554537,5.10456416 C0.0581793908,5.18325173 -0.0267408615,5.35620858 0.00753887339,5.52838633 L0.771042059,9.34746044 L0.00753887339,13.1665345 C-0.0267408615,13.3387123 0.0581793908,13.5124482 0.215554537,13.5911358 L0.994639421,13.9806782 C1.18707339,14.0772848 1.42079885,13.9985972 1.51740538,13.8061632 L2.96182875,10.9173165 L8.19260466,11.1783099 L4.71632791,18.1316425 C4.65555929,18.2524007 4.66257105,18.3957523 4.73346778,18.5102778 C4.8043645,18.6248032 4.92901808,18.6980372 5.06379977,18.6980372 L6.27761402,18.6980372 C7.11045576,18.6980372 7.8864243,18.3248556 8.406853,17.6750988 L13.3922172,11.4424197 L15.9452783,11.5935622 C15.9982561,11.5966785 16.0699319,11.5678524 16.1049907,11.5982367 C17.3717828,11.5982367 18.4531526,10.7412433 18.6759709,9.56092969 C18.6907735,9.48068395 18.6977852,9.40900814 18.6977852,9.34823952 C18.6977852,9.2874709 18.6907735,9.21579509 18.6759709,9.13632843 Z M16.1353751,10.3026185 C16.0675947,10.4389584 15.9296966,10.5176459 15.786345,10.5176459 C15.7279137,10.5176459 15.6687032,10.5044015 15.6126091,10.4763544 C15.4201751,10.3797479 15.3422666,10.1460224 15.4380941,9.95358847 C15.6274117,9.57495322 15.6274117,9.1223049 15.4380941,8.74366965 C15.3414876,8.55123568 15.4201751,8.31751022 15.6126091,8.22090369 C15.8050431,8.12507625 16.0395476,8.20220566 16.1353751,8.39541871 C16.4337646,8.99219773 16.4337646,9.7050604 16.1353751,10.3026185 Z" id="Shape"></path>
            </g>
        </g>
    </g>
</svg>