<?xml version="1.0" encoding="UTF-8"?>
<svg width="34px" height="34px" viewBox="0 0 34 34" version="1.1" xmlns="http://www.w3.org/2000/svg" xmlns:xlink="http://www.w3.org/1999/xlink">
    <!-- Generator: Sketch 46.2 (44496) - http://www.bohemiancoding.com/sketch -->
    <title>category_icon_haircut</title>
    <desc>Created with Sketch.</desc>
    <defs></defs>
    <g id="Category-icons" stroke="none" stroke-width="1" fill="none" fill-rule="evenodd">
        <g id="category_icon_haircut" fill-rule="nonzero" fill="#FFFFFF">
            <g id="hair-cut-tool" transform="translate(8.000000, 6.454545)">
                <path d="M0.879912733,6.10684377 L3.34677798,3.67142238 L3.77018236,4.10844281 L1.35536971,6.55033827 L1.35536971,6.55033827 C1.22550129,6.6816632 1.22580468,6.89313543 1.35604937,7.02408719 L1.35604937,7.02408719 L1.35604937,7.02408719 C1.48562878,7.15437005 1.69628876,7.15494032 1.82657162,7.02536091 C1.82678448,7.0251492 1.82699706,7.0249372 1.82720935,7.02472491 L4.256946,4.59498826 L4.50970963,4.84807917 L4.74349145,5.08142463 L2.31965081,7.52599899 L2.31965081,7.52599899 C2.19007596,7.65668223 2.19097449,7.86766308 2.32165773,7.99723793 C2.32237289,7.99794702 2.32309126,7.99865287 2.32381282,7.99935545 L2.32381282,7.99935545 L2.32381282,7.99935545 C2.45738266,8.12941203 2.67067064,8.12799089 2.80249556,7.99616597 L5.23036418,5.56829735 L5.48312782,5.82106099 L5.71690963,6.05484281 L5.72467675,6.08343634 L3.29358379,8.51442979 L3.29358379,8.51442979 C3.16697225,8.64103615 3.16696805,8.84630983 3.29357441,8.97292137 C3.29524736,8.97459439 3.29693857,8.97624904 3.29864774,8.97788503 L3.29864774,8.97788503 L3.29864774,8.97788503 C3.43169651,9.10523725 3.64212356,9.10293371 3.77235254,8.9726994 L6.203346,6.54160644 L6.45643691,6.79437008 L6.69032782,7.02826099 L6.6899663,7.06126411 L4.25938644,9.49154558 L4.25938644,9.49154558 C4.13398365,9.61693297 4.13397117,9.82023858 4.25935856,9.94564137 C4.262047,9.94833015 4.264783,9.95097095 4.26756524,9.95356255 L4.26756524,9.95356255 L4.26756524,9.95356255 C4.40339498,10.0800847 4.61502047,10.076332 4.74627897,9.94507348 L7.17665509,7.51469735 L7.42941872,7.76778826 L7.662546,8.00091554 L7.69398146,7.99817398 L5.48312782,10.1803337 L7.17665509,9.4719098 L8.22523289,8.55009789 L8.47623709,8.77959883 L9.18074618,8.34923519 L9.50147345,7.93785338 L4.13554264,2.57666191 C3.94277901,2.38389828 3.62783355,2.38389828 3.43496083,2.57666191 L0.410689083,5.63958357 L0.410689083,5.63958357 C0.282867433,5.76903876 0.283749045,5.97746901 0.412661233,6.10583828 L0.412661233,6.10583828 L0.412661233,6.10583828 C0.541734076,6.23436753 0.750287918,6.23481633 0.879912733,6.10684377 Z" id="Shape"></path>
                <path d="M17.3323016,15.5955734 C15.458135,13.5963501 11.8356636,10.21472 11.6930818,10.0729018 L11.1867695,10.4186575 L10.8372264,11.0128051 L10.5878732,11.8614923 C15.0430051,15.0315177 14.3361728,17.2350252 15.2996637,18.1982979 C16.2629365,19.1616797 19.2771548,17.6701999 17.3323016,15.5955734 Z" id="Shape"></path>
                <path d="M8.1522007,15.1571105 L10.1821904,10.8037174 L10.7111748,9.93210588 L18.9780736,3.47501982 L18.8823293,3.26883715 L12.3476915,7.23925294 L16.3181073,0.704265287 L16.1119246,0.60852096 L9.65483853,8.8754197 L8.78392667,9.40487067 L4.429484,11.4348603 C3.72370486,10.570829 2.49978682,10.2516424 1.44310065,10.7444749 C0.193759626,11.3273375 -0.348402831,12.817497 0.234109854,14.0664882 C0.816972397,15.3162957 2.30713197,15.858808 3.55658961,15.2755956 C4.80558078,14.6937826 5.34774323,13.202107 4.7655804,11.9531159 L6.00081051,11.3774837 L8.92142065,10.6661068 L8.2100438,13.5874167 L7.63347869,14.8219471 C6.38413767,14.2388513 4.89386148,14.7819467 4.31169865,16.0309379 C3.72918596,17.2800457 4.27134842,18.7703219 5.52080606,19.3534176 C5.66074905,19.4182579 5.80244132,19.4651388 5.94646598,19.5023403 L5.61771658,20.9401379 L6.4031466,20.7968129 L6.54448901,19.582341 C7.49645118,19.5933032 8.41564337,19.0625695 8.84270272,18.1437271 C9.33495218,17.0871576 9.01623203,15.8630063 8.1522007,15.1571105 Z M9.85064209,9.06947398 C10.0347837,8.88544895 10.3337953,8.88544895 10.5174704,9.06947398 C10.7007957,9.25349901 10.7016121,9.552977 10.5174704,9.73641893 C10.3330955,9.92079382 10.0339674,9.92079382 9.84959252,9.73641893 C9.6662672,9.552977 9.6662672,9.25349901 9.85064209,9.06947398 Z M3.17573666,14.4623164 C2.37506687,14.8361688 1.4192998,14.4877995 1.04604698,13.6873296 C0.672394416,12.88636 1.02066379,11.9306929 1.82163337,11.5573402 C2.62290275,11.1827882 3.57866983,11.5313574 3.95192265,12.3323269 C4.32577508,13.1332965 3.97790545,14.0890636 3.17573666,14.4623164 Z M8.03156753,17.766621 C7.65793393,18.5690522 6.70092331,18.916956 5.89849208,18.5436227 C5.0957605,18.168988 4.74725606,17.2120775 5.12119002,16.4102469 C5.49612513,15.6067144 6.45293552,15.2574091 7.25536674,15.6326445 C8.05759774,16.0066786 8.40670288,16.9640897 8.03156753,17.766621 Z" id="Shape"></path>
            </g>
        </g>
    </g>
</svg>