<?xml version="1.0" encoding="UTF-8"?>
<svg width="34px" height="34px" viewBox="0 0 34 34" version="1.1" xmlns="http://www.w3.org/2000/svg" xmlns:xlink="http://www.w3.org/1999/xlink">
    <!-- Generator: Sketch 46.2 (44496) - http://www.bohemiancoding.com/sketch -->
    <title>category_icon_train</title>
    <desc>Created with Sketch.</desc>
    <defs></defs>
    <g id="Category-icons" stroke="none" stroke-width="1" fill="none" fill-rule="evenodd">
        <g id="category_icon_train" fill-rule="nonzero" fill="#FFFFFF">
            <g id="toy-train" transform="translate(8.000000, 10.000000)">
                <path d="M17.3367544,11.2073569 C17.757004,10.5797841 18.0231621,9.58309211 18.0231621,8.40499235 C18.0231621,6.40810625 17.2702149,4.9029122 16.272122,4.9029122 L14.8067949,4.9029122 L15.3986464,2.53620644 C15.4056506,2.5081898 15.4091526,2.48017316 15.4091526,2.4514561 L15.4091526,1.05062404 C15.4091526,0.471379987 14.9377726,0 14.3585286,0 L12.9576965,0 C12.3784525,0 11.9070725,0.471379987 11.9070725,1.05062404 L11.9070725,2.4514561 C11.9070725,2.48017316 11.9105746,2.50889022 11.9175787,2.53620644 L12.5094303,4.9029122 L11.2066565,4.9029122 L11.2066565,3.85228816 C11.2066565,3.2730441 10.7352765,2.80166412 10.1560324,2.80166412 C9.57678836,2.80166412 9.10540838,3.2730441 9.10540838,3.85228816 L9.10540838,4.9029122 L7.70457632,4.9029122 L7.70457632,2.10124809 L8.05478433,2.10124809 C8.24809916,2.10124809 8.40499235,1.9443549 8.40499235,1.75104007 L8.40499235,1.05062404 C8.40499235,0.471379987 7.93361236,0 7.3543683,0 L1.75104007,0 C1.17179602,0 0.700416029,0.471379987 0.700416029,1.05062404 L0.700416029,1.75104007 C0.700416029,1.9443549 0.857309219,2.10124809 1.05062404,2.10124809 L1.40083206,2.10124809 L1.40083206,8.40499235 L0.700416029,8.40499235 L0.700416029,8.05478433 C0.700416029,7.86146951 0.543522838,7.70457632 0.350208014,7.70457632 C0.15689319,7.70457632 0,7.86146951 0,8.05478433 L0,10.8564484 C0,11.0497633 0.15689319,11.2066565 0.350208014,11.2066565 C0.543522838,11.2066565 0.700416029,11.0497633 0.700416029,10.8564484 L0.700416029,10.5062404 L1.43655328,10.5062404 C1.58083898,11.2122598 2.15588054,11.7599851 2.8927182,11.8783554 C3.19529792,13.0977797 4.29144901,14.0083206 5.60332823,14.0083206 C6.90470121,14.0083206 7.99244731,13.1117881 8.30553327,11.9070725 L9.14112959,11.9070725 C9.42036688,13.1347701 10.5644155,14.0083206 11.995074,14.0083206 C12.707544,14.0083206 13.7551959,13.6333307 14.4650656,12.4512957 C14.5282221,12.346131 14.5918156,12.1956957 14.6558458,11.99999 L14.8597565,11.99999 C14.941675,12.2014674 15.0041209,12.3519027 15.0470944,12.4512957 L15.2039876,12.6866355 C15.755215,13.5138269 16.6783633,14.0083206 17.6729541,14.0083206 C17.7829194,14.0083206 17.886581,13.9564898 17.9524201,13.8689378 C18.0182592,13.7813858 18.0399721,13.667218 18.0098542,13.5621556 L17.3367544,11.2073569 Z M2.80166412,5.95353625 L2.80166412,3.15187213 C2.80166412,2.95855731 2.95855731,2.80166412 3.15187213,2.80166412 L5.95353625,2.80166412 C6.14685107,2.80166412 6.30374426,2.95855731 6.30374426,3.15187213 L6.30374426,5.95353625 C6.30374426,6.14685107 6.14685107,6.30374426 5.95353625,6.30374426 L3.15187213,6.30374426 C2.95855731,6.30374426 2.80166412,6.14685107 2.80166412,5.95353625 Z M7.67796051,11.4707133 C7.67585926,11.4840212 7.67515884,11.493827 7.6730576,11.5078354 C7.52246815,12.5269407 6.65605352,13.3079045 5.60332823,13.3079045 C4.57861958,13.3079045 3.72621327,12.5696661 3.54200386,11.598189 C3.54410511,11.5841807 3.55180968,11.5715732 3.55180968,11.5568645 C3.55180968,11.5141391 3.53990261,11.4749158 3.52589429,11.4370933 C3.51678888,11.360748 3.50208014,11.2858035 3.50208014,11.2066565 C3.50208014,10.0481684 4.44484012,9.10540838 5.60332823,9.10540838 C6.76181634,9.10540838 7.70457632,10.0481684 7.70457632,11.2066565 C7.70457632,11.2970101 7.68916717,11.3831613 7.67796051,11.4707133 Z M11.9069386,13.311818 C10.7488044,13.311818 9.8058244,12.368838 9.8058244,11.2107039 C9.8058244,10.0525697 10.7488044,9.10958971 11.9069386,9.10958971 C13.0650727,9.10958971 14.0080527,10.0525697 14.0080527,11.2107039 C14.0080527,12.368838 13.0650727,13.311818 11.9069386,13.311818 Z M5.60332823,10.5062404 C5.21669858,10.5062404 4.9029122,10.8200268 4.9029122,11.2066565 C4.9029122,11.5932861 5.21669858,11.9070725 5.60332823,11.9070725 C5.98995788,11.9070725 6.30374426,11.5932861 6.30374426,11.2066565 C6.30374426,10.8200268 5.98995788,10.5062404 5.60332823,10.5062404 Z M11.9069386,10.5062404 C11.5205386,10.5062404 11.2069386,10.8198404 11.2069386,11.2062404 C11.2069386,11.5926404 11.5205386,11.9062404 11.9069386,11.9062404 C12.2933386,11.9062404 12.6069386,11.5926404 12.6069386,11.2062404 C12.6069386,10.8198404 12.2933386,10.5062404 11.9069386,10.5062404 Z" id="Shape"></path>
            </g>
        </g>
    </g>
</svg>