<?xml version="1.0" encoding="UTF-8"?>
<svg width="34px" height="34px" viewBox="0 0 34 34" version="1.1" xmlns="http://www.w3.org/2000/svg" xmlns:xlink="http://www.w3.org/1999/xlink">
    <!-- Generator: Sketch 46.2 (44496) - http://www.bohemiancoding.com/sketch -->
    <title>category_icon_grocery</title>
    <desc>Created with Sketch.</desc>
    <defs></defs>
    <g id="Category-icons" stroke="none" stroke-width="1" fill="none" fill-rule="evenodd">
        <g id="category_icon_grocery" fill-rule="nonzero" fill="#FFFFFF">
            <g id="croissant" transform="translate(7.500000, 8.000000)">
                <path d="M10.2307692,13.1531154 C10.2307692,12.3200385 10.5815385,10.7744615 11.5235,10.1723077 C11.6375,10.0992308 11.7025385,9.96915385 11.6908462,9.83469231 C11.6791538,9.70023077 11.5951154,9.58184615 11.4701538,9.52923077 C9.84638462,8.83280769 8.7685,6.63173077 8.7685,5.48003846 C8.7685,5.27834615 8.60480769,5.11465385 8.40311538,5.11465385 C6.77861538,5.11465385 0.730038462,5.75407692 0.730038462,7.67234615 C0.730038462,10.4163846 2.63369231,17.5377308 11.3261923,17.5377308 C11.4738077,17.5377308 11.6075385,17.4485769 11.6638077,17.3119231 C11.7208077,17.1752692 11.6893846,17.0181538 11.5848846,16.9136538 C10.5135769,15.8423462 10.2307692,13.9854615 10.2307692,13.1531154 Z" id="Shape"></path>
                <path d="M16.4079615,10.6407308 C15.9256538,10.6407308 15.3907308,10.7255 14.9193846,10.8007692 C14.7403462,10.8292692 14.6102692,10.9834615 14.6117308,11.1646923 C14.6168462,11.7785385 14.6336538,13.6456538 16.3312308,14.8061154 L16.3765385,14.8368077 C16.4386538,14.8791923 16.511,14.9003846 16.5826154,14.9003846 C16.6637308,14.9003846 16.7455769,14.8733462 16.8120769,14.8192692 C17.7803462,14.0380769 18.2706923,13.2313077 18.2706923,12.4223462 C18.2692308,11.2399615 17.6429615,10.6407308 16.4079615,10.6407308 Z" id="Shape"></path>
                <path d="M2.17476923,5.4245 C2.21861538,5.4245 2.26246154,5.41646154 2.30411538,5.40038462 C4.65061538,4.51103846 7.95076923,4.39557692 8.31907692,4.38534615 C8.48276923,4.38096154 8.62380769,4.26769231 8.66326923,4.10838462 L8.75680769,3.74738462 C8.78676923,3.63776923 8.76338462,3.52011538 8.69396154,3.4295 C8.5025,3.18030769 8.132,3.30234615 7.63507692,3.41415385 C7.18638462,3.51573077 6.62734615,3.64215385 6.04126923,3.64215385 C4.98676923,3.64215385 4.18438462,3.21903846 3.59026923,2.34942308 C3.52815385,2.25953846 3.43096154,2.20180769 3.32280769,2.19157692 C3.21319231,2.18207692 3.10723077,2.22007692 3.0305,2.29753846 C2.58911538,2.73892308 2.18280769,3.63557692 1.82180769,4.96192308 C1.786,5.09492308 1.82692308,5.23596154 1.9285,5.32803846 C1.99719231,5.39161538 2.08561538,5.4245 2.17476923,5.4245 Z" id="Shape"></path>
                <path d="M13.8824231,10.7817692 L13.8846154,10.5954231 C13.8846154,10.4975 13.8451538,10.4039615 13.7757308,10.3352692 C13.7063077,10.2673077 13.6135,10.2373462 13.5141154,10.2300385 L13.4308077,10.2300385 C13.3306923,10.2300385 13.1501923,10.2285769 12.9287692,10.2198077 C12.8593462,10.2146923 12.7804231,10.2366154 12.7175769,10.2768077 L11.9173846,10.7883462 C11.2933077,11.1866154 10.9615385,12.4172308 10.9615385,13.1531154 C10.9615385,13.8809615 11.1997692,15.4952308 12.1022692,16.397 L12.6116154,16.9056154 C12.6810385,16.9750385 12.7738462,17.0123077 12.8703077,17.0123077 C12.8871154,17.0123077 12.9046538,17.0115769 12.9221923,17.0086538 C14.478,16.7850385 15.504,16.4357308 15.9709615,15.9680385 C16.0476923,15.8913077 16.0864231,15.7838846 16.0769231,15.6757308 C16.0666923,15.5675769 16.0089615,15.4696538 15.9190769,15.4082692 C13.8334615,13.9847308 13.8678077,11.7398077 13.8824231,10.7817692 Z" id="Shape"></path>
                <path d="M4.19315385,1.93873077 C4.65207692,2.60957692 5.21696154,2.90846154 6.02592308,2.90919231 C6.40373077,2.90919231 6.83707692,2.84780769 7.47430769,2.70384615 C7.82069231,2.62565385 8.11957692,2.55769231 8.40457692,2.55769231 C8.56169231,2.55769231 8.702,2.45684615 8.75169231,2.30776923 C8.98407692,1.60769231 8.95411538,1.04792308 8.66180769,0.643807692 C8.35415385,0.217038462 7.77538462,0.000730769231 6.94230769,0.000730769231 C5.88634615,0.000730769231 4.86838462,0.767307692 4.20046154,1.41038462 C4.07184615,1.53388462 4.05065385,1.73338462 4.15223077,1.881 L4.19315385,1.93873077 Z" id="Shape"></path>
            </g>
        </g>
    </g>
</svg>