<?xml version="1.0" encoding="UTF-8"?>
<svg width="34px" height="34px" viewBox="0 0 34 34" version="1.1" xmlns="http://www.w3.org/2000/svg" xmlns:xlink="http://www.w3.org/1999/xlink">
    <!-- Generator: Sketch 46.2 (44496) - http://www.bohemiancoding.com/sketch -->
    <title>category_icon_clothes</title>
    <desc>Created with Sketch.</desc>
    <defs></defs>
    <g id="Category-icons" stroke="none" stroke-width="1" fill="none" fill-rule="evenodd">
        <g id="category_icon_clothes" fill-rule="nonzero" fill="#FFFFFF">
            <g id="t-shirt.1" transform="translate(8.500000, 8.000000)">
                <path d="M8.5,1.75 C9.84583333,1.75 11,0.996477035 11,0.379958246 L11,0 C10.2591667,0.147051148 8.98083333,0.379958246 8.5,0.379958246 C8.01916667,0.379958246 6.74083333,0.147051148 6,0 L6,0.379958246 C6,0.996477035 7.15416667,1.75 8.5,1.75 Z" id="Shape"></path>
                <path d="M15.3068449,1.59593022 C14.2922698,0.774413364 12.3403912,0.199591073 11.5908574,0 L11.5908574,0.312958803 C11.5908574,1.50731179 9.99288236,2.30886954 8.49999657,2.30886954 C7.00711077,2.30886954 5.40913571,1.50731179 5.40913571,0.312958803 L5.40913571,0 C4.65960195,0.199591073 2.70772332,0.773615 1.69314824,1.59513186 C0.403486545,2.63939235 0.0379922485,7.69623179 0.000901918232,8.26945735 C-0.00991609477,8.43312203 0.0774007245,8.58560961 0.218807609,8.65666403 C0.282170256,8.68780024 1.7996631,9.35922461 3.22532267,9.47179397 L3.22532267,6.69987315 C3.22532267,5.84402663 2.89736536,4.95004185 2.50250789,4.54287606 C2.35182842,4.38719502 2.2804118,4.17863871 2.43109127,4.02295767 C2.58177074,3.86727664 2.80506467,3.94106982 2.95574414,4.09675086 C3.50282651,4.66119442 3.86370528,5.61329935 3.86370528,6.69987315 L3.86370528,17.0547367 C3.86370528,17.2271834 3.96570369,17.3796709 4.12488302,17.4331614 C4.68587427,17.620777 5.77540272,17.8954143 7.4962395,17.9760491 C7.53487526,17.9776458 7.57428374,17.9792425 7.61369221,17.9808393 C7.89418784,17.9920164 8.1870469,18 8.49999657,18 C8.81371894,18 9.10657801,17.9928147 9.38707363,17.9808393 C9.42570939,17.9792425 9.46434515,17.9776458 9.5022082,17.9760491 C11.223045,17.8954143 12.3125734,17.6215753 12.8751101,17.4331614 C13.0342894,17.3804693 13.1362879,17.2271834 13.1362879,17.0547367 L13.1362879,6.69987315 C13.1362879,5.61329935 13.4755098,4.58740123 14.0218195,4.02215931 C14.172499,3.86647827 14.4174497,3.86647827 14.5681291,4.02215931 C14.7188086,4.17784035 14.6280987,4.33030657 14.4774193,4.48598761 C14.0833345,4.89395176 13.7789318,5.84402663 13.7789318,6.69987315 L13.7789318,9.47099561 C15.2045914,9.35842624 16.7170502,8.68780024 16.7811855,8.65586567 C16.9233651,8.58560961 17.0099092,8.43232366 16.9990912,8.26945735 C16.9612282,7.69703015 16.5965066,2.64019072 15.3068449,1.59593022 Z" id="Shape"></path>
            </g>
        </g>
    </g>
</svg>