<?xml version="1.0" encoding="UTF-8"?>
<svg width="34px" height="34px" viewBox="0 0 34 34" version="1.1" xmlns="http://www.w3.org/2000/svg" xmlns:xlink="http://www.w3.org/1999/xlink">
    <!-- Generator: Sketch 46.2 (44496) - http://www.bohemiancoding.com/sketch -->
    <title>category_icon_pricetag</title>
    <desc>Created with Sketch.</desc>
    <defs></defs>
    <g id="Category-icons" stroke="none" stroke-width="1" fill="none" fill-rule="evenodd">
        <g id="category_icon_pricetag" fill-rule="nonzero" fill="#FFFFFF">
            <g id="price-tag.1" transform="translate(7.000000, 9.000000)">
                <path d="M10.4394342,0.146244046 L10.4394342,0.146244046 C10.5331858,0.0525997811 10.6602759,-7.00307314e-14 10.7927849,-7.00550729e-14 L10.7927849,-7.1030009e-14 L17.5,-7.01660952e-14 C17.7761424,-7.02168217e-14 18,0.223857625 18,0.5 L18,0.5 L18,7.16383197 C18,7.2964958 17.9472775,7.42372137 17.85344,7.51749876 L17.85344,7.51749876 L8.19144052,17.173301 C7.99629362,17.3683228 7.68006223,17.368425 7.4847893,17.1735294 L0.790369042,10.4920461 C0.790187342,10.4918648 0.790005782,10.4916833 0.789824361,10.4915017 C0.594674152,10.2961277 0.594855586,9.97954522 0.790229605,9.78439501 L0.790229605,9.78439501 L10.4394342,0.146244046 Z M14.5,5 C15.35,5 16,4.35 16,3.5 C16,2.65 15.35,2 14.5,2 C13.65,2 13,2.65 13,3.5 C13,4.35 13.65,5 14.5,5 Z M11.6150115,9.35302288 C12.1076041,8.71968957 12.0372338,7.80487479 11.4742708,7.03080074 L11.896493,6.60857853 C12.0372338,6.46783779 12.0372338,6.25672669 11.896493,6.11598595 C11.7557523,5.97524522 11.5446412,5.97524522 11.4039004,6.11598595 L10.9816782,6.53820816 C10.2076042,5.97524522 9.15204867,5.90487485 8.58908572,6.46783779 C8.02612278,7.03080074 8.09649315,7.80487479 8.72982646,8.79005994 L7.39278947,10.1270969 C7.04093763,9.63450436 6.97056726,9.07154141 7.25204873,8.79005994 C7.3224191,8.6493192 7.3224191,8.4382081 7.18167836,8.29746736 C7.04093763,8.22709699 6.82982652,8.22709699 6.68908579,8.36783773 C6.19649321,9.00117104 6.26686358,9.91598583 6.82982652,10.6900599 L6.40760432,11.1122821 C6.26686358,11.2530228 6.26686358,11.4641339 6.40760432,11.6048747 C6.47797468,11.675245 6.61871542,11.675245 6.68908579,11.675245 C6.75945616,11.675245 6.90019689,11.675245 6.90019689,11.6048747 L7.3224191,11.1826525 C7.60390057,11.4641339 8.02612278,11.6048747 8.37797462,11.675245 C8.44834499,11.675245 8.58908572,11.675245 8.65945609,11.675245 C9.0816783,11.675245 9.43353014,11.5345043 9.71501161,11.2530228 C10.2779746,10.6900599 10.2076042,9.91598583 9.57427088,8.93080067 L10.9113079,7.59376368 C11.2631597,8.08635626 11.3335301,8.6493192 11.0520486,8.93080067 C10.9816782,9.07154141 10.9816782,9.35302288 11.122419,9.42339325 C11.2631597,9.49376362 11.4742708,9.49376362 11.6150115,9.35302288 Z M8.51871536,10.9715413 C8.23723388,10.901171 8.02612278,10.8308006 7.81501168,10.6900599 L9.0816783,9.42339325 C9.36315977,9.84561546 9.57427088,10.4085784 9.22241904,10.7604302 C9.0816783,10.9715413 8.80019683,11.0419117 8.51871536,10.9715413 Z M9.0816783,6.96043037 C9.43353014,6.6789489 9.99649308,6.6789489 10.4890857,7.03080074 L9.22241904,8.29746736 C8.94093756,7.87524515 8.72982646,7.31228221 9.0816783,6.96043037 Z" id="Combined-Shape"></path>
            </g>
        </g>
    </g>
</svg>