<?xml version="1.0" encoding="UTF-8"?>
<svg width="34px" height="34px" viewBox="0 0 34 34" version="1.1" xmlns="http://www.w3.org/2000/svg" xmlns:xlink="http://www.w3.org/1999/xlink">
    <!-- Generator: Sketch 50.2 (55047) - http://www.bohemiancoding.com/sketch -->
    <title>Category Icons/category_icon_transfer</title>
    <desc>Created with Sketch.</desc>
    <defs></defs>
    <g id="Category-Icons/category_icon_transfer" stroke="none" stroke-width="1" fill="none" fill-rule="evenodd">
        <path d="M16.3449324,23 L16.3449324,25.6268306 C16.3449324,25.8931394 16.1523712,26.0035527 15.9148349,25.8601727 L9.18009752,21.7949964 C8.93774094,21.6487068 8.94256122,21.4191514 9.18009752,21.2757713 L15.9148349,17.210595 C16.1571915,17.0643054 16.3449324,17.1716858 16.3449324,17.4439372 L16.3449324,20 L24.4987692,20 C24.7702494,20 25,20.2217932 25,20.495389 L25,22.504611 C25,22.7842474 24.7755913,23 24.4987692,23 L16.3449324,23 Z M17.6800003,11 L17.6800003,8.37295477 C17.6800003,8.10070343 17.8677413,7.99332302 18.1100978,8.13961265 L24.8448352,12.2047889 C25.0823715,12.348169 25.0871918,12.5777244 24.8448352,12.724014 L18.1100978,16.7891903 C17.8725615,16.9325703 17.6800003,16.822157 17.6800003,16.5558482 L17.6800003,14 L9.49895251,14 C9.22338865,14 9,13.7842474 9,13.504611 L9,11.495389 C9,11.2217932 9.22870631,11 9.49895251,11 L17.6800003,11 Z" id="Combined-Shape" fill="#FFFFFF"></path>
    </g>
</svg>
