<?xml version="1.0" encoding="UTF-8"?>
<svg width="34px" height="34px" viewBox="0 0 34 34" version="1.1" xmlns="http://www.w3.org/2000/svg" xmlns:xlink="http://www.w3.org/1999/xlink">
    <!-- Generator: Sketch 46.2 (44496) - http://www.bohemiancoding.com/sketch -->
    <title>category_icon_healthcare</title>
    <desc>Created with Sketch.</desc>
    <defs></defs>
    <g id="Category-icons" stroke="none" stroke-width="1" fill="none" fill-rule="evenodd">
        <g id="category_icon_healthcare" fill-rule="nonzero" fill="#FFFFFF">
            <g id="medical-bag" transform="translate(8.000000, 7.500000)">
                <path d="M10,9 L12,9 L12,11 L10,11 L10,13 L8,13 L8,11 L6,11 L6,9 L8,9 L8,7 L10,7 L10,9 Z M6,3.49619591 L6,1.77058824 C6,1.06470588 6.52747253,0.5 7.18681319,0.5 L10.8131868,0.5 C11.4725275,0.5 12,1.06470588 12,1.77058824 L12,3.49619591 L16.5,3.49619591 C17.3284271,3.49619591 18,4.16776879 18,4.99619591 L18,4.99619591 L17.9996942,14.9925262 C17.9996942,15.8208339 17.3283077,16.4923573 16.5,16.4925261 L16.5,16.492832 L1.50000003,16.4961959 C1.49989809,16.4961959 1.49979616,16.4961959 1.49969422,16.4961959 C0.671267093,16.4961959 -0.000305782288,15.824623 -0.000305782288,14.9961959 L-5.11201866e-14,14.9961959 L-1.35447209e-14,4.99619591 C-1.10708968e-14,4.16776879 0.671572875,3.49619591 1.5,3.49619591 L1.5,3.49619591 L6,3.49619591 Z M7,3.49619591 L11,3.49619591 L11,2.01612903 C11,1.75806452 10.8309859,1.5 10.5492958,1.5 L7.45070423,1.5 C7.22535211,1.5 7,1.69354839 7,2.01612903 L7,3.49619591 Z M9,14 C11.209139,14 13,12.209139 13,10 C13,7.790861 11.209139,6 9,6 C6.790861,6 5,7.790861 5,10 C5,12.209139 6.790861,14 9,14 Z" id="Combined-Shape"></path>
            </g>
        </g>
    </g>
</svg>