<?xml version="1.0" encoding="UTF-8"?>
<svg width="60px" height="60px" viewBox="0 0 60 60" version="1.1" xmlns="http://www.w3.org/2000/svg" xmlns:xlink="http://www.w3.org/1999/xlink">
    <!-- Generator: Sketch 49.1 (51147) - http://www.bohemiancoding.com/sketch -->
    <title>category_icon_art</title>
    <desc>Created with Sketch.</desc>
    <defs></defs>
    <g id="category_icon_art" stroke="none" stroke-width="1" fill="none" fill-rule="evenodd">
        <g id="drawing-class" transform="translate(11.000000, 11.000000)" fill="#FFFFFF" fill-rule="nonzero">
            <path d="M12.4337361,20.0226697 C12.4337361,22.2602716 14.9861042,24.8568175 17.7869721,25.4719923 C19.3099993,25.8066386 20.3227737,25.9723051 21.0053195,25.9723051 C21.6492099,25.9723051 22.0004228,25.8243097 22.2113715,25.5316323 C22.618911,24.9639485 22.2091626,24.2825071 21.6900743,23.4199369 C21.1257038,22.4833691 20.4243824,21.3181816 20.4243824,20.0226697 C20.4243824,17.8226189 18.6318712,16.033421 16.4296115,16.033421 C14.2262473,16.033421 12.4337361,17.8226189 12.4337361,20.0226697 Z M10.9827134,17.4883691 C11.0046828,17.4883691 11.4521649,17.3114576 11.5261672,17.1044826 C12.0915903,15.5273105 12.2289664,15.394912 13.8419834,14.9092724 C14.0304577,14.8526145 14.1773059,14.7046101 14.230495,14.5149794 C14.2848404,14.3253487 14.238589,14.1218426 14.1090851,13.9738382 L3.35628049,0.721512737 C3.0036137,0.307562861 2.48791078,0.0578053934 1.94098818,0.0335234174 C1.8740439,0.0292044318 1.30270785,0.161116513 0.962568871,0.49518158 C0.288454966,1.15773264 0.185545639,2.20417018 0.710498835,2.97078685 L10.4970739,17.2235799 C10.6046083,17.3900849 10.7884576,17.4883691 10.9827134,17.4883691 Z M30.7322406,9.40149336 C27.8968424,6.44970347 24.2131046,4.85981664 20.0805988,4.80342066 C18.2867265,4.7578239 15.750107,5.58696488 14.3846042,9.59347969 L13.8615059,11.1256614 C13.7919108,11.328447 13.8375076,11.552831 13.9802974,11.7136196 L15.2049231,13.4026847 C15.3861102,13.61027 15.5588979,13.8550525 15.7304857,14.1550312 C15.8168796,14.3074203 15.9668689,14.4142127 16.1408565,14.4466104 C16.246212,14.4664159 17.57594,14.5496443 17.6788924,14.575164 C20.1332641,15.1835486 21.8828705,17.3893853 21.8828705,19.9367434 C21.8828705,21.0130668 22.550023,22.1193881 23.0863848,23.0097247 C23.8363314,24.2576359 24.3606941,25.3003616 23.7211396,26.4282813 C23.2819709,27.2070259 22.4756283,27.6017978 21.3261101,27.6017978 C20.5185676,27.6017978 19.3918478,27.43021 17.5595782,27.0282386 C14.3186089,26.3166893 10.9499924,23.6200932 10.774241,19.5639751 C10.7667332,19.3907062 10.6410505,19.243598 10.4922611,19.1548043 C9.88750411,18.79363 9.6974536,18.782858 9.32428016,18.2140985 C9.2126881,18.0425107 9.04949972,17.9669161 8.81671629,17.9429178 C8.61273081,17.9441177 8.49684464,18.0562061 8.36988313,18.2140985 C7.93074713,18.7602186 7.66868228,19.7663556 7.66028288,19.7843543 C7.44069851,20.3123167 7.29310901,20.884676 7.22111414,21.4834333 C7.01712866,23.1657136 8.4762248,27.5801993 11.647599,31.1595446 C13.6034598,33.3673874 16.9200237,36 21.6044903,36 C30.6614456,36 35.7718818,31.4223259 35.9926661,23.1093176 C36.1234568,18.2448639 34.0584038,12.8632469 30.7322406,9.40149336 Z M23.3995625,14.4015374 C21.7448803,14.4015374 20.399776,13.0552333 20.399776,11.401751 C20.399776,9.74826867 21.7448803,8.4019645 23.3995625,8.4019645 C25.0542447,8.4019645 26.399349,9.74826867 26.399349,11.401751 C26.399349,13.0552333 25.0542447,14.4015374 23.3995625,14.4015374 Z M25.1994344,16.2014093 C25.1994344,14.547927 26.5445386,13.2016229 28.1992209,13.2016229 C29.8539031,13.2016229 31.1990073,14.547927 31.1990073,16.2014093 C31.1990073,17.8548916 29.8539031,19.2011958 28.1992209,19.2011958 C26.5445386,19.2011958 25.1994344,17.8548916 25.1994344,16.2014093 Z M29.3991354,26.4006833 C27.7444532,26.4006833 26.399349,25.0543791 26.399349,23.4008968 C26.399349,21.7474145 27.7444532,20.4011104 29.3991354,20.4011104 C31.0538177,20.4011104 32.3989219,21.7474145 32.3989219,23.4008968 C32.3989219,25.0543791 31.0538177,26.4006833 29.3991354,26.4006833 Z" id="Shape"></path>
        </g>
    </g>
</svg>