<?xml version="1.0" encoding="UTF-8"?>
<svg width="34px" height="34px" viewBox="0 0 34 34" version="1.1" xmlns="http://www.w3.org/2000/svg" xmlns:xlink="http://www.w3.org/1999/xlink">
    <!-- Generator: Sketch 46.2 (44496) - http://www.bohemiancoding.com/sketch -->
    <title>category_icon_business</title>
    <desc>Created with Sketch.</desc>
    <defs></defs>
    <g id="Category-icons" stroke="none" stroke-width="1" fill="none" fill-rule="evenodd">
        <g id="category_icon_business" fill-rule="nonzero" fill="#FFFFFF">
            <g id="tie.1" transform="translate(13.000000, 7.000000)">
                <path d="M2.27283251,2.37744473 C2.40781479,2.83649198 2.86406486,3.00030885 3.24659767,3.00030885 L4.95355071,3.00030885 C5.34803767,3.00030885 5.59010922,2.80228846 5.71961251,2.360643 L5.98011337,1.26553027 C6.03390705,0.97330019 5.97762292,0.683470355 5.82271706,0.450046327 C5.63493728,0.168017295 5.32363128,0 4.98991125,0 L2.91835662,0 C2.61352579,0 2.32961472,0.174017913 2.15926808,0.46444781 C1.99738896,0.740476223 1.95803988,1.08011118 2.04520556,1.37474151 L2.27283251,2.37744473 Z M5.09295367,4 L2.91193704,4 L2.91193704,4 C2.67420105,4 2.46933826,4.16739706 2.42196469,4.40036518 L0.00140370793,16.3039145 C-0.00622390157,16.3812389 0.0174216879,16.4578967 0.0677639105,16.5218893 L3.66557548,19.8548383 C3.73803777,19.944828 3.85245192,20.0141533 3.97907023,19.9981551 C4.10263751,19.9981551 4.21857717,19.9454945 4.2902767,19.8568381 L7.92998162,16.5459629 C7.98184936,16.4819703 8.00625771,16.4046459 7.99863011,16.3259883 L5.58300087,4.400734 L5.58300087,4.400734 C5.53577459,4.16759169 5.33083106,4 5.09295367,4 Z" id="Shape"></path>
            </g>
        </g>
    </g>
</svg>