<?xml version="1.0" encoding="UTF-8"?>
<svg width="34px" height="34px" viewBox="0 0 34 34" version="1.1" xmlns="http://www.w3.org/2000/svg" xmlns:xlink="http://www.w3.org/1999/xlink">
    <!-- Generator: Sketch 46.2 (44496) - http://www.bohemiancoding.com/sketch -->
    <title>category_icon_apple</title>
    <desc>Created with Sketch.</desc>
    <defs></defs>
    <g id="Category-icons" stroke="none" stroke-width="1" fill="none" fill-rule="evenodd">
        <g id="category_icon_apple" fill-rule="nonzero" fill="#FFFFFF">
            <g id="apple" transform="translate(10.000000, 7.000000)">
                <path d="M6.88333333,4.08333333 C9.04166667,4.08333333 10.675,2.45 10.675,0.291666667 C10.675,0.116666667 10.5,0 10.3833333,0 C8.225,0 6.59166667,1.63333333 6.59166667,3.79166667 C6.59166667,3.96666667 6.70833333,4.08333333 6.88333333,4.08333333 Z" id="Shape"></path>
                <path d="M13.825,12.3083333 C13.7666667,12.25 13.7083333,12.1916667 13.65,12.1916667 C12.3083333,11.9583333 11.2583333,10.7333333 11.2583333,9.33333333 C11.2583333,8.16666667 11.9583333,7.11666667 13.0666667,6.65 C13.125,6.59166667 13.2416667,6.53333333 13.2416667,6.475 C13.2416667,6.41666667 13.2416667,6.3 13.1833333,6.24166667 C12.3083333,5.075 11.1416667,4.66666667 10.3833333,4.66666667 C9.68333333,4.66666667 9.1,4.84166667 8.575,5.01666667 C8.05,5.13333333 7.58333333,5.25 7.175,5.25 C6.70833333,5.25 6.18333333,5.13333333 5.65833333,4.95833333 C5.01666667,4.84166667 4.31666667,4.66666667 3.675,4.66666667 C2.21666667,4.66666667 0.175,6.53333333 0.175,9.91666667 C0.175,13.3 2.45,17.5 4.25833333,17.5 C5.25,17.5 5.83333333,17.2666667 6.3,17.0916667 C6.59166667,16.975 6.88333333,16.9166667 7.175,16.9166667 C7.46666667,16.9166667 7.7,17.0333333 8.05,17.0916667 C8.51666667,17.2666667 9.1,17.5 10.0916667,17.5 C11.55,17.5 13.0666667,14.9333333 13.825,12.5416667 C13.8833333,12.4833333 13.825,12.425 13.825,12.3083333 Z" id="Shape"></path>
            </g>
        </g>
    </g>
</svg>