<?xml version="1.0" encoding="UTF-8"?>
<svg width="34px" height="34px" viewBox="0 0 34 34" version="1.1" xmlns="http://www.w3.org/2000/svg" xmlns:xlink="http://www.w3.org/1999/xlink">
    <!-- Generator: Sketch 46.2 (44496) - http://www.bohemiancoding.com/sketch -->
    <title>category_icon_shopping</title>
    <desc>Created with Sketch.</desc>
    <defs></defs>
    <g id="Category-icons" stroke="none" stroke-width="1" fill="none" fill-rule="evenodd">
        <g id="category_icon_shopping">
            <g id="bag" transform="translate(8.000000, 8.000000)">
                <path d="M12.5071759,6.97195017 L12.4968325,6.9718841 C12.4968325,6.77947576 12.4968325,6.60794612 12.4968325,6.42123002 C12.4968325,3.42047452 10.9312266,0.987881542 8.99995397,0.987881542 C7.06868129,0.987881542 5.50307545,3.42047452 5.50307545,6.42123002 C5.50307545,6.58737043 5.50307545,6.74100723 5.50307545,6.91517079 C5.50307545,6.91918698 5.50307894,6.92320187 5.50308591,6.92721546 L5.49797623,6.92718283 C5.48046717,7.18402547 5.2642127,7.38699933 5.00001239,7.38699933 C4.73363392,7.38699933 4.51599511,7.18066488 4.50165611,6.92081939 L4.5,6.92080881 C4.50001076,6.92000929 4.50002151,6.91920986 4.50003225,6.91841051 C4.50233524,6.74691629 4.5039673,6.57953469 4.5039673,6.42123002 C4.5039673,2.87488261 6.5168891,0 8.99995397,0 C11.4830188,0 13.4959406,2.87488261 13.4959406,6.42123002 C13.4959406,6.61203712 13.4980335,6.79771073 13.5010769,6.97829815 L13.4917906,6.97823884 C13.4511557,7.21041471 13.2464402,7.38699933 13.0000124,7.38699933 C12.7513645,7.38699933 12.5451838,7.20721857 12.5071759,6.97195017 Z M16.9976807,17.0080261 C17.1317871,17.8714764 16.1494293,18 16.1494293,18 L1.8495663,18 C0.851092178,18.0054626 0.978120604,17.6427813 0.996798355,17.0080261 L2.4,5.22717957 C2.4,5.10717957 2.52,4.98717957 2.7,4.98717957 L4.09038173,4.98717957 C4.03289054,5.30837748 4.00414495,5.65652869 4.00414495,6.03163318 C4.00414495,6.40673768 4.00414495,6.72991842 4.00414495,7.00117538 C4.00414495,7.48117538 4.52342334,7.90117538 5.00342334,7.90117538 C5.45791827,7.90117538 5.95436545,7.52462342 5.99566525,7.07712836 C5.99654204,7.06762807 5.99729735,7.64152682 5.99793116,7.00117538 C5.99875385,6.16999355 6.0834808,5.49866161 6.25211199,4.98717957 L11.7816348,4.98717957 C11.9272116,5.4715234 12,6.14285534 12,7.00117538 C12,7.48117538 12.52,7.90117538 13,7.90117538 C13.48,7.90117538 14.0198457,7.48117538 14.0198457,7.00117538 C14.0198457,6.76726778 14.0198457,6.4403596 14.0198457,6.02045085 C14.0198457,5.6005421 13.9694776,5.25611834 13.8687413,4.98717957 L15.3,4.98717957 C15.42,4.98717957 15.6,5.10717957 15.6,5.22717957 L16.9976807,17.0080261 Z M9.4,14.3672 C10.312,14.2184 11,13.5728 11,12.8008 C11,12.0504 10.476,11.5456 9.4,11.2808 L9.4,9.6496 C9.8408,9.7576 10.1744,10.032 10.2016,10.3568 C10.22,10.5768 10.42,10.7464 10.6336,10.7216 C10.8536,10.7032 11.0168,10.5096 10.9984,10.2896 C10.936,9.5488 10.2752,8.968 9.4,8.8312 L9.4,8.4 C9.4,8.1792 9.2208,8 9,8 C8.7792,8 8.6,8.1792 8.6,8.4 L8.6,8.8328 C7.688,8.9816 7,9.6272 7,10.4 C7,11.1488 7.524,11.6544 8.6,11.9192 L8.6,13.5504 C8.1592,13.4432 7.8256,13.168 7.7984,12.8432 C7.78,12.6232 7.5896,12.4616 7.3664,12.4784 C7.1464,12.4968 6.9832,12.6904 7.0016,12.9104 C7.0632,13.6504 7.7248,14.232 8.6,14.3688 L8.6,14.8 C8.6,15.0208 8.7792,15.2 9,15.2 C9.2208,15.2 9.4,15.0208 9.4,14.8 L9.4,14.3672 Z M9.4,12.1064 C9.9336,12.2608 10.2,12.4824 10.2,12.8 C10.2,13.14 9.86,13.436 9.4,13.5488 L9.4,12.1064 Z M7.8,10.4 C7.8,10.06 8.14,9.764 8.6,9.6512 L8.6,11.0936 C8.0672,10.9392 7.8,10.7176 7.8,10.4 Z" id="Combined-Shape" fill="#FFFFFF"></path>
                <g id="Group" transform="translate(0.000000, 4.200000)"></g>
            </g>
        </g>
    </g>
</svg>