<?xml version="1.0" encoding="UTF-8"?>
<svg width="34px" height="34px" viewBox="0 0 34 34" version="1.1" xmlns="http://www.w3.org/2000/svg" xmlns:xlink="http://www.w3.org/1999/xlink">
    <!-- Generator: Sketch 46.2 (44496) - http://www.bohemiancoding.com/sketch -->
    <title>category_icon_acommodation</title>
    <desc>Created with Sketch.</desc>
    <defs></defs>
    <g id="Category-icons" stroke="none" stroke-width="1" fill="none" fill-rule="evenodd">
        <g id="category_icon_acommodation" fill-rule="nonzero" fill="#FFFFFF">
            <g id="bed" transform="translate(8.000000, 10.000000)">
                <path d="M17,9.00303005 L1,9.00303005 L1,9.00303005 C0.44771525,9.00303005 -2.84893448e-14,9.4507453 -2.84217094e-14,10.0030301 L-2.57988075e-14,13.6818182 C-2.57988075e-14,13.8574545 0.168,14 0.375,14 L1.875,14 C2.082,14 2.25,13.8574545 2.25,13.6818182 L2.25,12.7272727 L15.75,12.7272727 L15.75,13.6818182 C15.75,13.8574545 15.918,14 16.125,14 L17.625,14 C17.832,14 18,13.8574545 18,13.6818182 L18,10.0030301 L18,10.0030301 C18,9.4507453 17.5522847,9.00303005 17,9.00303005 Z M17.3716737,7.6614753 L16.5,5.362 L16.5,1.5 L16.5,1.5 C16.5,0.671572875 15.8284271,6.80086044e-15 15,6.21724894e-15 L3,-1.0658141e-14 L3,-1.13242749e-14 C2.17157288,-1.19078864e-14 1.5,0.671572875 1.5,1.5 L1.5,5.362 L0.628140672,7.66568065 L0.628140672,7.66568065 C0.57926874,7.79481309 0.644332738,7.93911414 0.773465178,7.98798607 C0.801760413,7.99869479 0.831764439,8.00417868 0.862018313,8.0041711 L17.1379688,8.00009076 L17.1379688,8.00009076 C17.27604,8.00005615 17.3879407,7.88809928 17.3879061,7.75002809 C17.3878985,7.71977142 17.3823986,7.68976742 17.3716737,7.6614753 Z M2.625,5.09090909 L3.26925,5.09090909 L3.61875,3.90472727 C3.74475,3.479 4.194,3.18181818 4.71075,3.18181818 L7.125,3.18181818 C7.74525,3.18181818 8.25,3.61009091 8.25,4.13636364 L8.25,5.09090909 L9.75,5.09090909 L9.75,4.13636364 C9.75,3.61009091 10.25475,3.18181818 10.875,3.18181818 L13.28925,3.18181818 C13.806,3.18181818 14.25525,3.479 14.38125,3.90472727 L14.73075,5.09090909 L15.375,5.09090909 C15.582,5.09090909 15.75,5.23345455 15.75,5.40909091 C15.75,5.58472727 15.582,5.72727273 15.375,5.72727273 L14.71875,5.72727273 C14.679,5.82272727 14.62725,5.91436364 14.5515,5.99709091 C14.33625,6.23 14.013,6.36363636 13.66425,6.36363636 L10.875,6.36363636 C10.38675,6.36363636 9.97425,6.097 9.819,5.72727273 L8.181,5.72727273 C8.02575,6.097 7.61325,6.36363636 7.125,6.36363636 L4.33575,6.36363636 C3.987,6.36363636 3.66375,6.23 3.4485,5.99709091 C3.37275,5.915 3.321,5.82272727 3.28125,5.72727273 L2.625,5.72727273 C2.418,5.72727273 2.25,5.58472727 2.25,5.40909091 C2.25,5.23345455 2.418,5.09090909 2.625,5.09090909 Z" id="Shape"></path>
            </g>
        </g>
    </g>
</svg>