<?xml version="1.0" encoding="UTF-8"?>
<svg width="34px" height="34px" viewBox="0 0 34 34" version="1.1" xmlns="http://www.w3.org/2000/svg" xmlns:xlink="http://www.w3.org/1999/xlink">
    <!-- Generator: Sketch 46.2 (44496) - http://www.bohemiancoding.com/sketch -->
    <title>category_icon_budget</title>
    <desc>Created with Sketch.</desc>
    <defs></defs>
    <g id="Category-icons" stroke="none" stroke-width="1" fill="none" fill-rule="evenodd">
        <g id="category_icon_budget" fill-rule="nonzero" fill="#FFFFFF">
            <g id="money-bag" transform="translate(10.000000, 8.000000)">
                <path d="M9.32694737,5.50189036 C9.99576365,7.28711148 14,9.03898093 14,12.375 C14,15.477 10.8595789,18 7,18 C3.14042105,18 2.08564554e-16,15.477 0,12.375 C0,9.04727523 3.98145501,7.25429488 4.67378947,5.50189036 L9.32694737,5.50189036 Z M7.36842105,13.96925 C8.20842105,13.82975 8.84210526,13.2245 8.84210526,12.50075 C8.84210526,11.79725 8.35947368,11.324 7.36842105,11.07575 L7.36842105,9.5465 C7.77442105,9.64775 8.08168421,9.905 8.10673684,10.2095 C8.12368421,10.41575 8.30789474,10.57775 8.50463158,10.5515 C8.70726316,10.53425 8.85757895,10.35275 8.84063158,10.1465 C8.78315789,9.452 8.17452632,8.9075 7.36842105,8.77925 L7.36842105,8.375 C7.36842105,8.168 7.20336842,8 7,8 C6.79663158,8 6.63157895,8.168 6.63157895,8.375 L6.63157895,8.78075 C5.79157895,8.92025 5.15789474,9.5255 5.15789474,10.25 C5.15789474,10.952 5.64052632,11.426 6.63157895,11.67425 L6.63157895,13.2035 C6.22557895,13.103 5.91831579,12.845 5.89326316,12.5405 C5.87631579,12.33425 5.70094737,12.17825 5.49536842,12.1985 C5.29273684,12.21575 5.14242105,12.39725 5.15936842,12.6035 C5.21610526,13.29725 5.82547368,13.8425 6.63157895,13.97075 L6.63157895,14.375 C6.63157895,14.582 6.79663158,14.75 7,14.75 C7.20336842,14.75 7.36842105,14.582 7.36842105,14.375 L7.36842105,13.96925 Z M7.36842105,11.84975 C7.85989474,11.99375 8.10526316,12.20225 8.10526316,12.5 C8.10526316,12.81875 7.79210526,13.09625 7.36842105,13.202 L7.36842105,11.84975 Z M5.89473684,10.25 C5.89473684,9.93125 6.20789474,9.65375 6.63157895,9.548 L6.63157895,10.90025 C6.14084211,10.7555 5.89473684,10.54775 5.89473684,10.25 Z M11.7726022,0.50175 C11.9425662,0.6945 12.0196864,0.945 11.9957267,1.22625 C11.9096216,2.21325 10.0059429,3.55552098 9.35908265,4.5 L4.59868166,4.5 C4.01624113,3.57902981 2.08989997,2.2125 2.00454364,1.22625 C1.97983523,0.945 2.05620668,0.6945 2.2261706,0.5025 C2.3317429,0.3825 2.53090767,0.23925 2.87532795,0.23925 C3.62781139,0.23925 4.82429749,0.9675 5.40232457,1.35225 C5.82910622,0.744 6.46179129,0 6.99938643,0 C7.53698156,0 8.16966663,0.744 8.59644828,1.3515 C9.17447536,0.9675 10.3709615,0.2385 11.1234449,0.2385 C11.4686139,0.2385 11.6670299,0.38175 11.7726022,0.50175 Z" id="Shape"></path>
            </g>
        </g>
    </g>
</svg>