<?xml version="1.0" encoding="UTF-8"?>
<svg width="60px" height="60px" viewBox="0 0 60 60" version="1.1" xmlns="http://www.w3.org/2000/svg" xmlns:xlink="http://www.w3.org/1999/xlink">
    <!-- Generator: Sketch 49.1 (51147) - http://www.bohemiancoding.com/sketch -->
    <title>category_icon_beer</title>
    <desc>Created with Sketch.</desc>
    <defs></defs>
    <g id="category_icon_beer" stroke="none" stroke-width="1" fill="none" fill-rule="evenodd">
        <path d="M39.4181284,45.5002705 C39.9704132,45.5002705 40.4181284,45.9479858 40.4181284,46.5002705 L40.4181284,47 C40.4181284,47.5522847 39.9704132,48 39.4181284,48 L19.4908987,48 C18.938614,48 18.4908987,47.5522847 18.4908987,47 L18.4908987,46.5002705 C18.4908987,45.9479858 18.938614,45.5002705 19.4908987,45.5002705 L39.4181284,45.5002705 Z M29.5248458,27.109824 C30.8064084,27.4808932 32.2161274,27.2953586 33.49769,26.7387548 L34.0103151,43.0658004 C34.0103151,43.6224042 33.7540026,43.9934735 33.3695338,43.9934735 L30.1656271,43.9934735 C29.7811583,43.9934735 29.5248458,43.6224042 29.5248458,43.0658004 L29.5248458,27.109824 Z M26.1927828,26.498635 C26.393191,26.1887674 26.6179624,26.2641558 26.9449823,26.5481113 C27.4413947,26.8892879 27.730658,26.9385204 28.2432831,27.1188796 L28.2432831,43.0916777 C28.2432831,43.6327551 27.9869706,43.9934735 27.6025018,43.9934735 L24.5170671,43.9934735 C24.1325983,43.9934735 23.8762858,43.452396 23.8762858,42.9113185 L24.2152618,28.1701285 C24.9945477,27.5781795 25.9923747,26.8085026 26.1927828,26.498635 Z M20.0412821,28.0053696 C20.4257509,28.1999608 20.9296119,28.2991062 21.3139572,28.3369083 C21.8885189,28.3934189 22.3480948,28.2315843 22.8607199,28.2315843 L22.2661958,43.2151086 C22.2661958,43.604291 22.0098833,43.9934735 21.6254145,43.9934735 C20.9884145,43.9934735 19.3801873,43.9934735 19.3801873,43.9934735 C19.252031,43.9934735 18.9957185,43.7988822 18.8675622,43.604291 C18.7394059,43.4096998 18.7394059,43.0205173 18.7394059,42.8259261 L19.2723445,28.7837345 C19.2723445,28.5891433 19.4005007,28.394552 19.528657,28.1999608 C19.6568133,28.0053696 19.9131258,28.0053696 20.0412821,28.0053696 Z M42.7249412,21.6608312 C44.7754415,21.9370891 46.1851604,24.423411 46.1851604,26.4953458 L46.1851604,32.7111504 C46.1851604,37.4668019 42.4686287,39.7380522 39.4224866,39.6096781 C39.4224866,39.6096781 39.5023634,42.6764307 39.5676426,43.3372216 C39.6329219,43.9980124 39.029104,43.9934726 39.029104,43.9934726 L35.7395286,43.9934726 C35.3550598,43.9934726 35.1637215,43.7516085 35.1637215,43.3372216 C35.0355652,40.7127708 34.6510964,26.2190878 34.6510964,26.2190878 C34.7257839,26.1229237 34.8978035,25.9835942 35.0458708,25.8047009 C35.1740271,25.6665719 35.3147516,25.8047009 35.4429079,25.8047009 C36.2971433,26.0775367 37.067673,25.8563013 37.684615,25.6572431 C37.8127713,25.6572431 38.1113156,25.4419143 38.2394719,25.4419143 C38.3676282,25.4419143 38.4957844,25.7181723 38.4957844,25.8563013 L39.3441721,37.4668019 C41.9072975,37.1905439 44.2217049,35.9678998 44.2217049,32.7111504 L44.2217049,26.4953458 C44.2217049,24.9759269 43.533252,23.689179 42.2516893,23.55105 C41.9953768,23.412921 41.4122984,22.919511 41.6680745,22.2590312 C41.9634391,21.6608312 42.1073347,21.6608312 42.7249412,21.6608312 Z M21.9439561,26.9864368 C19.0806256,26.9864368 16.7899612,24.6957724 16.7899612,21.8324419 C16.7899612,18.9691114 19.0806256,16.6784471 21.9439561,16.6784471 C22.6311554,16.6784471 23.3183547,16.7929803 23.8910208,17.1365799 C24.8072865,14.1587162 27.4415506,12.0971183 30.5339475,12.0971183 C33.9699441,12.0971183 36.8332746,14.6168491 37.2914074,18.0528457 C38.7803393,18.5109786 39.696605,19.770844 39.696605,21.2597758 C39.696605,23.2068405 38.2076732,24.6957724 36.2606085,24.6957724 C35.6879424,24.6957724 35.2298095,24.5812392 34.7716766,24.3521727 C32.366479,26.2992375 28.8159492,26.2992375 26.4107516,24.466706 C25.4944858,25.9556378 23.7764876,26.9864368 21.9439561,26.9864368 Z" id="Combined-Shape" fill="#FFFFFF" fill-rule="nonzero"></path>
    </g>
</svg>