<?xml version="1.0" encoding="UTF-8"?>
<svg width="34px" height="34px" viewBox="0 0 34 34" version="1.1" xmlns="http://www.w3.org/2000/svg" xmlns:xlink="http://www.w3.org/1999/xlink">
    <!-- Generator: Sketch 46.2 (44496) - http://www.bohemiancoding.com/sketch -->
    <title>category_icon_money</title>
    <desc>Created with Sketch.</desc>
    <defs></defs>
    <g id="Category-icons" stroke="none" stroke-width="1" fill="none" fill-rule="evenodd">
        <g id="category_icon_money" fill-rule="nonzero" fill="#FFFFFF">
            <g id="expensive" transform="translate(8.000000, 10.000000)">
                <path d="M17.6666667,0.333333333 L4.33333333,0.333333333 C4.13333333,0.333333333 4,0.466666667 4,0.666666667 L4,1.66666667 L15.6666667,1.66666667 C16.2,1.66666667 16.6666667,2.13333333 16.6666667,2.66666667 L16.6666667,9.66666667 L17.6666667,9.66666667 C17.8666667,9.66666667 18,9.53333333 18,9.33333333 L18,0.666666667 C18,0.466666667 17.8666667,0.333333333 17.6666667,0.333333333 Z" id="Shape"></path>
                <path d="M15.6666667,2.33333333 L2.33333333,2.33333333 C2.13333333,2.33333333 2,2.46666667 2,2.66666667 L2,3.66666667 L13.6666667,3.66666667 C14.2,3.66666667 14.6666667,4.13333333 14.6666667,4.66666667 L14.6666667,11.6666667 L15.6666667,11.6666667 C15.8666667,11.6666667 16,11.5333333 16,11.3333333 L16,2.66666667 C16,2.46666667 15.8666667,2.33333333 15.6666667,2.33333333 Z" id="Shape"></path>
                <path d="M7,7 C5.73333333,7 4.66666667,8.06666667 4.66666667,9.33333333 C4.66666667,10.6 5.73333333,11.6666667 7,11.6666667 C8.26666667,11.6666667 9.33333333,10.6 9.33333333,9.33333333 C9.33333333,8.06666667 8.26666667,7 7,7 Z" id="Shape"></path>
                <path d="M13.6666667,4.33333333 L0.333333333,4.33333333 C0.133333333,4.33333333 0,4.46666667 0,4.66666667 L0,13.3333333 C0,13.5333333 0.133333333,13.6666667 0.333333333,13.6666667 L13.6666667,13.6666667 C13.8666667,13.6666667 14,13.5333333 14,13.3333333 L14,4.66666667 C14,4.46666667 13.8666667,4.33333333 13.6666667,4.33333333 Z M2.6,11.6666667 L3,11.6666667 C3.2,11.6666667 3.33333333,11.8 3.33333333,12 C3.33333333,12.2 3.2,12.3333333 3,12.3333333 L2.33333333,12.3333333 C2.13333333,12.3333333 2,12.2 2,12 C2,11.8 1.86666667,11.6666667 1.66666667,11.6666667 C1.46666667,11.6666667 1.33333333,11.5333333 1.33333333,11.3333333 L1.33333333,7.33333333 C1.33333333,7.13333333 1.46666667,7 1.66666667,7 C1.86666667,7 2,6.86666667 2,6.66666667 C2,6.46666667 2.13333333,6.33333333 2.33333333,6.33333333 L3,6.33333333 C3.2,6.33333333 3.33333333,6.46666667 3.33333333,6.66666667 C3.33333333,6.86666667 3.2,7 3,7 L2.6,7 C2.46666667,7.26666667 2.26666667,7.53333333 2,7.6 L2,11.0666667 C2.26666667,11.1333333 2.53333333,11.4 2.6,11.6666667 Z M7,12.3333333 C5.33333333,12.3333333 4,11 4,9.33333333 C4,7.66666667 5.33333333,6.33333333 7,6.33333333 C8.66666667,6.33333333 10,7.66666667 10,9.33333333 C10,11 8.66666667,12.3333333 7,12.3333333 Z M12.6666667,11.3333333 C12.6666667,11.5333333 12.5333333,11.6666667 12.3333333,11.6666667 C12.1333333,11.6666667 12,11.8 12,12 C12,12.2 11.8666667,12.3333333 11.6666667,12.3333333 L11,12.3333333 C10.8,12.3333333 10.6666667,12.2 10.6666667,12 C10.6666667,11.8 10.8,11.6666667 11,11.6666667 L11.4,11.6666667 C11.5333333,11.4 11.7333333,11.1333333 12,11.0666667 L12,7.6 C11.7333333,7.46666667 11.4666667,7.26666667 11.4,7 L11,7 C10.8,7 10.6666667,6.86666667 10.6666667,6.66666667 C10.6666667,6.46666667 10.8,6.33333333 11,6.33333333 L11.6666667,6.33333333 C11.8666667,6.33333333 12,6.46666667 12,6.66666667 C12,6.86666667 12.1333333,7 12.3333333,7 C12.5333333,7 12.6666667,7.13333333 12.6666667,7.33333333 L12.6666667,11.3333333 Z" id="Shape"></path>
            </g>
        </g>
    </g>
</svg>