<?xml version="1.0" encoding="UTF-8"?>
<svg width="34px" height="34px" viewBox="0 0 34 34" version="1.1" xmlns="http://www.w3.org/2000/svg" xmlns:xlink="http://www.w3.org/1999/xlink">
    <!-- Generator: Sketch 46.2 (44496) - http://www.bohemiancoding.com/sketch -->
    <title>category_icon_washingmachine</title>
    <desc>Created with Sketch.</desc>
    <defs></defs>
    <g id="Category-icons" stroke="none" stroke-width="1" fill="none" fill-rule="evenodd">
        <g id="category_icon_washingmachine" fill-rule="nonzero" fill="#FFFFFF">
            <g id="washing-machine" transform="translate(8.054688, 8.000000)">
                <path d="M8.9646499,7 C10.9474344,7 12.5915936,8.45690959 12.9262247,10.315316 C12.6707867,10.2452752 12.4247581,10.1440883 12.2006209,9.9972785 C10.9528113,9.17780466 9.33818627,9.17780466 8.09037661,9.9972785 C7.07473099,10.6627986 6.09276738,10.4744859 5.11022769,9.90384034 C5.59948123,8.25419565 7.13272399,7 8.9646499,7 Z M11.5469131,10.9629196 C11.9724511,11.2421001 12.4483394,11.424554 12.9453125,11.5125869 C12.6895288,13.4602359 11.0119564,15 8.9646499,15 C6.78630222,15 5.01647875,13.2632295 4.9453125,11.136075 C6.22661216,11.8127079 7.6579255,11.6762171 8.74412288,10.9629196 C9.59589027,10.4047853 10.6951841,10.4047853 11.5469131,10.9629196 Z" id="Combined-Shape"></path>
                <path d="M0.9453125,1.5 L0.9453125,4 L16.860707,4 L16.9129145,1.53171996 L16.9129145,1.53171996 C16.930433,0.70347808 16.2732118,0.0178538707 15.4449699,0.000335422708 C15.4343981,0.00011181382 15.4238242,2.20102155e-16 15.41325,2.22044605e-16 L2.4453125,-1.04964905e-16 L2.4453125,4.4408921e-16 C1.61688538,5.96268804e-16 0.9453125,0.671572875 0.9453125,1.5 Z M10.4438578,3 L9.44482761,3 C9.16872896,3 8.9453125,2.77636667 8.9453125,2.5 C8.9453125,2.22363333 9.16872896,2 9.44482761,2 L10.4438578,2 C10.7199565,2 10.9433729,2.22363333 10.9433729,2.5 C10.9433729,2.77636667 10.7199565,3 10.4438578,3 Z M13.4477817,3 L12.4487515,3 C12.1726528,3 11.9492364,2.77636667 11.9492364,2.5 C11.9492364,2.22363333 12.1726528,2 12.4487515,2 L13.4477817,2 C13.7238804,2 13.9472968,2.22363333 13.9472968,2.5 C13.9472968,2.77636667 13.7238804,3 13.4477817,3 Z" id="Shape"></path>
                <path d="M0.9453125,5 L0.9453125,16.5 L0.9453125,16.5 C0.9453125,17.3284271 1.61688538,18 2.4453125,18 L15.4453125,18 L15.4453125,18 C16.2737396,18 16.9453125,17.3284271 16.9453125,16.5 L16.9453125,5 L0.9453125,5 Z M8.93868777,15.9998979 C6.18519269,15.9998979 3.9453125,13.7468213 3.9453125,11.0064278 C3.9453125,8.05340847 6.38995807,6 8.93868777,6 C11.8113211,6 13.9709374,8.46117465 13.9450828,11.0005011 C13.9224831,13.6779093 11.747147,15.9998979 8.93868777,15.9998979 Z" id="Shape"></path>
            </g>
        </g>
    </g>
</svg>