<?xml version="1.0" encoding="UTF-8"?>
<svg width="34px" height="34px" viewBox="0 0 34 34" version="1.1" xmlns="http://www.w3.org/2000/svg" xmlns:xlink="http://www.w3.org/1999/xlink">
    <!-- Generator: Sketch 46.2 (44496) - http://www.bohemiancoding.com/sketch -->
    <title>category_icon_eshopping</title>
    <desc>Created with Sketch.</desc>
    <defs></defs>
    <g id="Category-icons" stroke="none" stroke-width="1" fill="none" fill-rule="evenodd">
        <g id="category_icon_eshopping" fill-rule="nonzero" fill="#FFFFFF">
            <g id="mouse-app" transform="translate(8.000000, 9.000000)">
                <path d="M12.4885448,7.77126686 C12.4029043,7.68562633 12.274743,7.66107205 12.1621526,7.7065873 C12.0501612,7.75270143 11.9770972,7.86229735 11.9770972,7.98327208 L11.9770972,15.7687745 C11.9770972,15.8951392 12.05615,16.0071307 12.1747292,16.0502504 C12.2927095,16.0933701 12.4256619,16.0580359 12.5071103,15.9610166 L13.8698931,14.3212388 L15.3627215,16.7729642 L15.3627215,16.7729642 C15.4345278,16.8908943 15.5883396,16.928285 15.7062696,16.8564787 C15.7106321,16.8538224 15.7149122,16.851033 15.7191038,16.8481146 L16.6727121,16.1841493 L16.6727121,16.1841493 C16.7808751,16.108839 16.811994,15.9624931 16.7438315,15.8496891 L15.4283582,13.6726777 L17.6665029,13.6726777 C17.7874776,13.6726777 17.8970735,13.5996138 17.9431876,13.4876223 C17.9899007,13.3756309 17.9641486,13.2468706 17.8785081,13.1612301 L12.4885448,7.77126686 Z M16.969581,0 L1,0 L1,-1.11022302e-16 C0.44771525,-9.5692398e-18 -1.43895124e-14,0.44771525 -1.4321877e-14,1 L-1.42108547e-14,15 L-1.42108547e-14,15 C-1.31621645e-14,15.5522847 0.44771525,16 1,16 L10.4998991,16 L10.4998991,16 C10.7771547,16 11.0019148,15.7752399 11.0019148,15.4979844 L11.0019148,15.4979844 L11.0019148,15.4979844 C11.0019148,15.2207288 10.7771547,14.9959687 10.4998991,14.9959687 L1.5,14.9959687 L1.5,14.9959687 C1.22385763,14.9959687 1,14.7721111 1,14.4959687 L1,1.99879347 L17,1.99879347 L17,10.5 L17,10.5 C17,10.7761424 17.2238576,11 17.5,11 L17.5,11 L17.5,11 C17.7753038,11 17.9984816,10.7768222 17.9984816,10.5015184 C17.9984816,10.501013 17.9984808,10.5005077 17.9984793,10.5000023 L17.9695763,0.996958573 L17.9695763,0.996958573 C17.9679002,0.445863752 17.5206783,3.42854265e-16 16.969581,4.4408921e-16 Z M1.99499989,1.36999989 C1.78799989,1.36999989 1.61999989,1.20199989 1.61999989,0.994999886 C1.61999989,0.787999886 1.78799989,0.619999886 1.99499989,0.619999886 C2.20199989,0.619999886 2.36999989,0.787999886 2.36999989,0.994999886 C2.36999989,1.20199989 2.20199989,1.36999989 1.99499989,1.36999989 Z M3.49499989,1.36999989 C3.28799989,1.36999989 3.11999989,1.20199989 3.11999989,0.994999886 C3.11999989,0.787999886 3.28799989,0.619999886 3.49499989,0.619999886 C3.70199989,0.619999886 3.86999989,0.787999886 3.86999989,0.994999886 C3.86999989,1.20199989 3.70199989,1.36999989 3.49499989,1.36999989 Z M4.99499989,1.36999989 C4.78799989,1.36999989 4.61999989,1.20199989 4.61999989,0.994999886 C4.61999989,0.787999886 4.78799989,0.619999886 4.99499989,0.619999886 C5.20199989,0.619999886 5.36999989,0.787999886 5.36999989,0.994999886 C5.36999989,1.20199989 5.20199989,1.36999989 4.99499989,1.36999989 Z" id="Shape"></path>
            </g>
        </g>
    </g>
</svg>