<?xml version="1.0" encoding="UTF-8"?>
<svg width="34px" height="34px" viewBox="0 0 34 34" version="1.1" xmlns="http://www.w3.org/2000/svg" xmlns:xlink="http://www.w3.org/1999/xlink">
    <!-- Generator: Sketch 46.2 (44496) - http://www.bohemiancoding.com/sketch -->
    <title>category_icon_cinema</title>
    <desc>Created with Sketch.</desc>
    <defs></defs>
    <g id="Category-icons" stroke="none" stroke-width="1" fill="none" fill-rule="evenodd">
        <g id="category_icon_cinema" fill-rule="nonzero" fill="#FFFFFF">
            <g id="film-roll" transform="translate(8.000000, 8.000000)">
                <path d="M17.625,17.25 C17.832,17.25 18,17.418 18,17.625 C18,17.832 17.832,18 17.625,18 C14.04075,18 11.5965,17.6175 9.678,17.2425 C9.636,17.23425 9.6,17.21625 9.56475,17.196 C9.25575,17.22975 8.943,17.25 8.625,17.25 C3.86925,17.25 0,13.38075 0,8.625 C0,3.86925 3.86925,0 8.625,0 C13.38075,0 17.25,3.86925 17.25,8.625 C17.25,12.41175 14.79375,15.6285 11.39325,16.78575 C13.0185,17.043 15.01275,17.25 17.625,17.25 Z M10.3395,4.878 C10.4415,4.647 10.5,4.3935 10.5,4.125 C10.5,3.0915 9.65925,2.25 8.625,2.25 C7.59075,2.25 6.75,3.0915 6.75,4.125 C6.75,4.3935 6.8085,4.647 6.9105,4.878 C7.43325,4.638 8.013,4.5 8.625,4.5 C9.237,4.5 9.81675,4.638 10.3395,4.878 Z M9.753,13.36725 C10.359,14.20275 11.53425,14.39025 12.372,13.78275 C13.209,13.17525 13.395,12 12.7875,11.16375 C12.62925,10.947 12.429,10.78275 12.21075,10.656 C11.63025,11.6775 10.62825,12.429 9.441,12.66825 C9.49575,12.91725 9.5985,13.155 9.753,13.36725 Z M12.72075,9.09825 C12.975,9.123 13.233,9.099 13.485,9.0165 C14.4675,8.69775 15.0075,7.638 14.688,6.654 C14.5335,6.17775 14.20275,5.79 13.7565,5.56275 C13.48875,5.427 13.19925,5.358 12.90675,5.358 C12.7125,5.358 12.51675,5.38875 12.3255,5.451 C12.0735,5.53275 11.84925,5.667 11.65725,5.838 C12.333,6.573 12.75,7.55025 12.75,8.625 C12.75,8.7855 12.73875,8.94225 12.72075,9.09825 Z M4.9245,5.45175 C4.734,5.3895 4.53825,5.35875 4.3425,5.35875 C4.05075,5.35875 3.76125,5.42775 3.49425,5.5635 C3.048,5.7915 2.71725,6.1785 2.56275,6.65475 C2.24325,7.638 2.7825,8.69775 3.76575,9.01725 C4.01625,9.09825 4.275,9.123 4.52925,9.0975 C4.51125,8.94225 4.5,8.7855 4.5,8.625 C4.5,7.55025 4.917,6.573 5.59275,5.83875 C5.40075,5.667 5.1765,5.5335 4.9245,5.45175 Z M4.4780266,11.1676523 C4.35995559,11.3295922 4.27022053,11.5062593 4.20973045,11.6924286 C4.11957474,11.9698993 4.09573722,12.2665524 4.14233561,12.5624335 C4.22127766,13.0572984 4.48712916,13.4914499 4.8923267,13.7855575 C5.72872209,14.393261 6.90324165,14.2078845 7.51094516,13.3714891 C7.6653895,13.1582798 7.7688863,12.9198421 7.82320192,12.6701561 C7.66998809,12.6393002 7.51743354,12.6015612 7.36478897,12.551964 C6.34264098,12.2198479 5.54208109,11.5212705 5.05258608,10.6516983 C4.82991086,10.7812275 4.63364775,10.9532482 4.4780266,11.1676523 Z" id="Shape"></path>
            </g>
        </g>
    </g>
</svg>