<?xml version="1.0" encoding="UTF-8"?>
<svg width="34px" height="34px" viewBox="0 0 34 34" version="1.1" xmlns="http://www.w3.org/2000/svg" xmlns:xlink="http://www.w3.org/1999/xlink">
    <!-- Generator: Sketch 46.2 (44496) - http://www.bohemiancoding.com/sketch -->
    <title>category_icon_other</title>
    <desc>Created with Sketch.</desc>
    <defs></defs>
    <g id="Category-icons" stroke="none" stroke-width="1" fill="none" fill-rule="evenodd">
        <g id="category_icon_other" fill-rule="nonzero" fill="#FFFFFF">
            <g id="left-items" transform="translate(9.000000, 5.000000)">
                <path d="M8.97720208,7.7683866 C9.02033252,7.9281366 9.15668034,8.0376366 9.31041947,8.0376366 L15.0391151,8.0376366 C15.1935499,8.0376366 15.3292021,7.9281366 15.3723325,7.7683866 L15.9858977,5.5183866 C16.0359847,5.3338866 15.9490282,5.1381366 15.7841586,5.0653866 C15.6185934,4.9941366 15.429376,5.0661366 15.3458977,5.2356366 C15.2123325,5.5071366 14.6391151,5.7876366 13.9142456,5.7876366 C13.1177238,5.7876366 12.5229412,5.3916366 12.5229412,5.0376366 L12.5229412,1.50686401 C12.5229412,0.679614011 11.8989412,0.00686401053 11.1316369,0.00686401053 C10.3643325,0.00686401053 9.74033252,0.679614011 9.74033252,1.50686401 L9.74033252,1.88186401 C9.74033252,2.08886401 9.89615861,2.25686401 10.0881586,2.25686401 C10.2801586,2.25686401 10.4359847,2.08886401 10.4359847,1.88186401 L10.4359847,1.50686401 C10.4359847,1.09361401 10.7483325,0.756864011 11.1316369,0.756864011 C11.5149412,0.756864011 11.827289,1.09361401 11.827289,1.50686401 L11.827289,5.0376366 C11.827289,5.3916366 11.2325064,5.7876366 10.4359847,5.7876366 C9.71111513,5.7876366 9.13789774,5.5071366 9.00363687,5.2356366 C8.92015861,5.0661366 8.72885426,4.9956366 8.565376,5.0653866 C8.40050643,5.1381366 8.31354991,5.3338866 8.36363687,5.5183866 L8.97720208,7.7683866 Z M1.88082797,7.81732707 C1.95943667,8.00477688 2.16395841,8.08767301 2.34065406,8.00477688 C2.51595841,7.92038712 2.59387145,7.69933078 2.51526276,7.51113416 L1.72082797,5.61497854 C1.64221928,5.42752873 1.72082797,5.20572557 1.89474102,5.12133582 L5.06761058,3.58962445 C5.1531758,3.54854979 5.24778449,3.54556254 5.33334971,3.5806627 C5.42030623,3.61576287 5.4891758,3.68596319 5.52674102,3.77632744 L7.21926276,7.81658026 C7.27839319,7.95548729 7.40500189,8.0376366 7.53787145,8.0376366 C7.5851758,8.0376366 7.63387145,8.02718124 7.68048015,8.00477688 C7.85578449,7.92038712 7.93369754,7.69933078 7.85508884,7.51113416 L6.1625671,3.47088134 C6.04778449,3.19829497 5.84187145,2.98918761 5.58100189,2.88314031 C5.32013232,2.77709301 5.03700189,2.78680157 4.78308884,2.90927873 L1.61021928,4.44099011 C1.08569754,4.69415937 0.851262756,5.35882203 1.08708884,5.92191826 L1.88082797,7.81732707 Z M2.97003063,5.22386524 C2.77803063,5.22386524 2.6256828,5.39186524 2.6256828,5.59886524 C2.6256828,5.80586524 2.78498715,5.97386524 2.97698715,5.97386524 C3.16898715,5.97386524 3.32481324,5.80586524 3.32481324,5.59886524 C3.32481324,5.39186524 3.16898715,5.22386524 2.97698715,5.22386524 L2.97003063,5.22386524 Z M-5.35589075e-14,9.50180304 L-5.68434189e-14,15.625 C-4.69130907e-14,16.25 -3.69827625e-14,16.875 -2.70524344e-14,17.5 L-1.77635684e-15,17.5 C1.19372315e-14,18.3284271 0.671572875,19 1.5,19 C2.04347826,19 2.58695652,19 3.13043478,19 L12.8695652,19 C13.4130435,19 13.9565217,19 14.5,19 L14.5,19 C15.3284271,19 16,18.3284271 16,17.5 C16,16.875 16,16.25 16,15.625 L16,9.50180304 L16,9.50180304 C16,9.22566067 15.7761424,9.00180304 15.5,9.00180304 L0.5,9.00180304 L0.5,9.00180304 C0.223857625,9.00180304 -5.3201891e-14,9.22566067 -5.32907052e-14,9.50180304 Z M8.29987427,16.703251 C8.2203966,16.7915595 8.10559551,16.8357138 7.99079442,16.8357138 C7.87599333,16.8357138 7.76119224,16.7915595 7.68171457,16.703251 C7.59340604,16.6237733 7.54925177,16.5089722 7.54925177,16.3941711 C7.54925177,16.27937 7.59340604,16.164569 7.68171457,16.0850913 C7.84950077,15.9173051 8.13208807,15.9173051 8.29987427,16.0850913 C8.3881828,16.164569 8.43233707,16.27937 8.43233707,16.3941711 C8.43233707,16.5089722 8.3881828,16.6237733 8.29987427,16.703251 Z M8.40118355,14.22925 L8.40038374,14.875 C8.40038374,15.082 8.22122672,15.25 8.00047968,15.25 C7.77973264,15.25 7.60057562,15.08125 7.60057562,14.875 L7.60137542,13.9375 C7.60137542,13.7665 7.72454588,13.61725 7.90130347,13.57525 L7.99008217,13.555 C8.58833865,13.426 9.19939206,13.20325 9.19939206,12.532 C9.19939206,11.9635 8.66112119,11.50075 7.99888006,11.50075 C7.36543203,11.50075 6.83835847,11.92525 6.79916787,12.46825 C6.78397152,12.67525 6.6056143,12.82975 6.37287014,12.817 C6.1529229,12.80275 5.985763,12.62425 6.00095936,12.41725 C6.06894305,11.482 6.94713237,10.75 7.99967987,10.75 C9.10261528,10.75 10,11.54875 10,12.53125 C10,13.37425 9.46252894,13.94425 8.40118355,14.22925 Z" id="Shape"></path>
            </g>
        </g>
    </g>
</svg>