<?xml version="1.0" encoding="UTF-8"?>
<svg width="34px" height="34px" viewBox="0 0 34 34" version="1.1" xmlns="http://www.w3.org/2000/svg" xmlns:xlink="http://www.w3.org/1999/xlink">
    <!-- Generator: Sketch 46.2 (44496) - http://www.bohemiancoding.com/sketch -->
    <title>category_icon_education</title>
    <desc>Created with Sketch.</desc>
    <defs></defs>
    <g id="Category-icons" stroke="none" stroke-width="1" fill="none" fill-rule="evenodd">
        <g id="category_icon_education" fill-rule="nonzero" fill="#FFFFFF">
            <g id="student" transform="translate(7.000000, 12.000000)">
                <path d="M2.60869565,7.89213385 L2.60869565,6.08695652 L2.60869565,5.04347826 C2.60869565,4.86956522 2.69565217,4.7826087 2.69565217,4.69565217 C2.7826087,4.60869565 2.95652174,4.60869565 3.04347826,4.60869565 L9.91304348,5.2173913 C10.0869565,5.2173913 10.173913,5.2173913 10.4347826,5.13043478 L16.1700078,3.49102201 C16.2569643,3.49102201 16.4308774,3.49102201 16.5178339,3.57797853 C16.6047904,3.66493505 16.6642947,3.75809844 16.6642947,3.93201149 L16.6642947,6.67462117 L16.6642947,7.04207154 C15.5859053,7.44570767 12.1947254,8.8465194 9.24612131,8.8465194 C6.65585806,8.8465194 3.94754432,8.27636892 2.60869565,7.89213385 Z" id="Shape"></path>
                <path d="M0.434782609,3.47826087 L10,4.34782609 C10,4.34782609 10,4.34782609 10,4.34782609 C10,4.34782609 10.0869565,4.34782609 10.0869565,4.34782609 L18.2608696,1.91304348 L18.2608696,5.56521739 L17.4782609,7.2173913 C17.3913043,7.30434783 17.3913043,7.39130435 17.3913043,7.56521739 L18.2608696,10.173913 C18.3478261,10.3478261 18.5217391,10.4347826 18.6956522,10.4347826 C18.8695652,10.4347826 19.0434783,10.3478261 19.1304348,10.173913 L20,7.56521739 C20,7.47826087 20,7.30434783 20,7.2173913 L19.1304348,5.56521739 L19.1304348,1.30434783 C19.1304348,1.30434783 19.1304348,1.30434783 19.1304348,1.30434783 C19.1304348,1.30434783 19.1304348,1.30434783 19.1304348,1.30434783 C19.1304348,1.30434783 19.1304348,1.2173913 19.1304348,1.2173913 C19.1304348,1.2173913 19.1304348,1.2173913 19.1304348,1.13043478 C19.1304348,1.04347826 19.0434783,1.04347826 19.0434783,1.04347826 C19.0434783,1.04347826 19.0434783,1.04347826 19.0434783,1.04347826 C19.0434783,1.04347826 18.9565217,0.956521739 18.9565217,0.956521739 C18.9565217,0.956521739 18.9565217,0.956521739 18.8695652,0.956521739 C18.8695652,0.956521739 18.7826087,0.956521739 18.7826087,0.956521739 L9.2173913,0.0869565217 C9.13043478,0.0869565217 9.13043478,0.0869565217 9.04347826,0.0869565217 L0.347826087,2.69565217 C0.0869565217,2.69565217 0,2.86956522 0,3.04347826 C0,3.30434783 0.173913043,3.47826087 0.434782609,3.47826087 Z" id="Shape"></path>
            </g>
        </g>
    </g>
</svg>