<?xml version="1.0" encoding="UTF-8"?>
<svg width="34px" height="34px" viewBox="0 0 34 34" version="1.1" xmlns="http://www.w3.org/2000/svg" xmlns:xlink="http://www.w3.org/1999/xlink">
    <!-- Generator: Sketch 46.2 (44496) - http://www.bohemiancoding.com/sketch -->
    <title>category_icon_personal</title>
    <desc>Created with Sketch.</desc>
    <defs></defs>
    <g id="Category-icons" stroke="none" stroke-width="1" fill="none" fill-rule="evenodd">
        <g id="category_icon_personal" fill-rule="nonzero" fill="#FFFFFF">
            <g id="male.1" transform="translate(8.000000, 8.000000)">
                <path d="M17.8303589,17.003807 C17.8267251,16.9901803 17.7232549,16.6021669 17.5199482,15.839767 C17.2799223,14.9996763 16.6798576,14.3396051 15.839767,14.0395728 L12.6594239,12.9594563 C11.8193333,12.5994174 11.3992879,11.1592621 11.3392815,10.6792103 C11.8270294,10.2655044 12.1190273,9.62693836 12.1193553,8.80699081 C12.1195234,8.38694553 12.3593915,8.27895134 12.299385,8.27895134 C12.419398,8.27895134 12.5394109,8.18863877 12.5394109,8.1286323 C12.5394109,8.06862583 12.8994498,7.07882188 12.8994498,6.47875715 C12.8994498,6.47875715 12.8994498,6.41875067 12.8994498,6.41875067 C12.8394433,6.23873125 12.7194304,5.99870536 12.5394109,5.87869242 L12.5394109,3.83847233 C12.5394109,2.63834286 12.1793721,2.1464122 11.7234451,1.9767129 C11.7417451,1.33512882 11.1592621,0.0580645161 8.93902255,0.0580645161 C6.65877657,0.0580645161 5.15861474,2.3383105 5.15861474,3.8984788 C5.15861474,4.55855001 5.15861474,5.15861474 5.09860826,5.51865358 C5.09860826,5.63866652 5.09860826,5.81868594 5.09860826,5.93869889 C4.97859532,5.99870536 4.85858237,6.23873125 4.7985759,6.3587442 C4.7985759,6.3587442 4.7985759,6.41875067 4.7985759,6.41875067 C4.7985759,7.01881541 5.09860826,7.97518851 5.15861474,8.03519498 C5.21862121,8.09520145 5.33863416,8.21894487 5.39864063,8.21894487 C5.39864063,8.21894487 5.57866005,8.27895134 5.57866005,8.69899666 C5.57866005,9.53908728 6.41875067,10.3791779 6.77878951,10.6792103 C6.71878304,11.1592621 6.3587442,12.5394109 5.51865358,12.8994498 L2.21829755,13.9795663 C1.37820693,14.2795987 0.734430987,14.9430014 0.494405094,15.783092 C0.328671447,16.3924076 0.217623629,16.8006722 0.161261641,17.0078856 C0.151028779,17.0455065 0.127013073,17.1833864 0.0892145243,17.4215253 L0.0891221372,17.4215106 C0.0458253015,17.6942899 0.231857572,17.9505202 0.504636842,17.993817 C0.530565987,17.9979326 0.556778961,18 0.583032698,18 L17.4115722,18 L17.4115722,17.9999631 C17.6876942,17.9999631 17.9115353,17.776122 17.9115353,17.5 C17.9115353,17.4723772 17.9092461,17.444802 17.9046912,17.4175573 C17.8643557,17.1762964 17.8395782,17.0383796 17.8303589,17.003807 Z" id="Shape"></path>
            </g>
        </g>
    </g>
</svg>