<?xml version="1.0" encoding="UTF-8"?>
<svg width="60px" height="60px" viewBox="0 0 60 60" version="1.1" xmlns="http://www.w3.org/2000/svg" xmlns:xlink="http://www.w3.org/1999/xlink">
    <!-- Generator: Sketch 49.1 (51147) - http://www.bohemiancoding.com/sketch -->
    <title>category_icon_teddy</title>
    <desc>Created with Sketch.</desc>
    <defs></defs>
    <g id="category_icon_teddy" stroke="none" stroke-width="1" fill="none" fill-rule="evenodd">
        <g id="teddy-bear" transform="translate(14.899550, 12.058824)" fill="#FFFFFF" fill-rule="nonzero">
            <path d="M25.5,25.5 C27.981,25.5 30,23.481 30,21 C30,18.519 27.981,16.5 25.5,16.5 C24.573,16.5 23.7105,16.782 22.9935,17.265 C22.6695,16.878 22.326,16.5225 21.963,16.194 C23.235,14.643 24,12.66 24,10.5 C24,10.326 23.994,10.152 23.982,9.981 C25.809,9.123 27,7.29 27,5.25 C27,2.355 24.645,0 21.75,0 C20.1675,0 18.693,0.708 17.7,1.92 C15.939,1.362 14.061,1.362 12.3,1.92 C11.307,0.708 9.8325,0 8.25,0 C5.355,0 3,2.355 3,5.25 C3,7.29 4.191,9.123 6.018,9.981 C6.006,10.152 6,10.326 6,10.5 C6,12.66 6.765,14.643 8.0385,16.1955 C7.674,16.5225 7.332,16.8795 7.008,17.2665 C6.2895,16.782 5.427,16.5 4.5,16.5 C2.019,16.5 0,18.519 0,21 C0,23.481 2.019,25.5 4.5,25.5 C4.5435,25.5 4.584,25.488 4.6275,25.4865 C4.6635,25.7415 4.71,25.9905 4.764,26.2395 C4.5525,26.3625 4.35,26.5005 4.176,26.6745 C2.514,28.338 3.048,31.479 5.394,33.825 C6.7545,35.187 8.496,36 10.05,36 C11.0535,36 11.9145,35.6685 12.5415,35.0415 C12.762,34.821 12.9405,34.5675 13.086,34.296 C13.731,34.4175 14.373,34.5 15,34.5 C15.627,34.5 16.269,34.4175 16.914,34.296 C17.0595,34.569 17.238,34.821 17.4585,35.0415 C18.084,35.6685 18.9465,36 19.95,36 C21.504,36 23.2455,35.187 24.6075,33.825 C26.952,31.479 27.4875,28.338 25.8255,26.6745 C25.6515,26.5005 25.449,26.3625 25.2375,26.2395 C25.2915,25.992 25.338,25.7415 25.374,25.4865 C25.416,25.488 25.4565,25.5 25.5,25.5 Z M21.75,3 C22.9905,3 24,4.0095 24,5.25 C24,5.664 23.664,6 23.25,6 C22.836,6 22.5,5.664 22.5,5.25 C22.5,4.836 22.1625,4.5 21.75,4.5 C21.336,4.5 21,4.164 21,3.75 C21,3.336 21.336,3 21.75,3 Z M18,6.75 C18.414,6.75 18.75,7.086 18.75,7.5 C18.75,7.914 18.414,8.25 18,8.25 C17.586,8.25 17.25,7.914 17.25,7.5 C17.25,7.086 17.586,6.75 18,6.75 Z M12,6.75 C12.414,6.75 12.75,7.086 12.75,7.5 C12.75,7.914 12.414,8.25 12,8.25 C11.586,8.25 11.25,7.914 11.25,7.5 C11.25,7.086 11.586,6.75 12,6.75 Z M11.4349749,14.3492203 C11.742163,14.3522816 12.0794966,14.5925713 12.4764445,14.838 C12.6846698,14.9667435 13.1085,15 13.5,15 C13.8795,15 14.1345,14.91 14.25,14.8455 L14.25,13.8105 L12.969,12.5295 C12.7545,12.315 12.69,11.9925 12.807,11.712 C12.924,11.4315 13.197,11.25 13.5,11.25 L16.5,11.25 C16.803,11.25 17.0775,11.433 17.193,11.7135 C17.3085,11.994 17.244,12.3165 17.031,12.531 L15.75,13.8105 L15.75,14.8455 C15.8655,14.91 16.1205,15 16.5,15 C16.8915,15 17.4017241,14.903944 17.6173308,14.8004894 C18.0242253,14.6052492 18.1556471,14.3492203 18.5141471,14.3492203 C18.9281471,14.3492203 19.190264,14.586 19.190264,15 C19.190264,15.87 17.8035,16.5 16.5,16.5 C15.9045,16.5 15.39,16.3635 15,16.1385 C14.61,16.3635 14.0955,16.5 13.5,16.5 C12.1965,16.5 10.9204682,15.8300193 10.835419,14.9617939 C10.8015346,14.6158848 11.1277869,14.346159 11.4349749,14.3492203 Z M7.5,5.25 C7.5,5.664 7.164,6 6.75,6 C6.336,6 6,5.664 6,5.25 C6,4.0095 7.0095,3 8.25,3 C8.664,3 9,3.336 9,3.75 C9,4.164 8.664,4.5 8.25,4.5 C7.8375,4.5 7.5,4.836 7.5,5.25 Z M23.8155,25.7655 C22.5045,25.608 20.961,26.1135 19.6245,27.0915 C19.581,27.123 19.539,27.1545 19.4955,27.1875 C19.2105,27.4035 18.933,27.6345 18.675,27.894 C18.4335,28.1355 18.2175,28.389 18.0135,28.6485 C17.9595,28.7175 17.907,28.7865 17.856,28.857 C17.6865,29.088 17.529,29.322 17.391,29.562 C17.3685,29.601 17.34,29.64 17.3175,29.6805 C17.172,29.943 17.0505,30.2085 16.944,30.474 C16.9035,30.5745 16.8675,30.675 16.833,30.7755 C16.7685,30.963 16.7145,31.1505 16.6695,31.338 C16.65,31.4175 16.617,31.4955 16.6005,31.5735 C16.587,31.641 16.5915,31.704 16.581,31.7715 C16.5495,31.9695 16.53,32.166 16.5225,32.361 C16.5165,32.5125 16.5165,32.661 16.5255,32.8065 C16.527,32.826 16.524,32.8455 16.5255,32.8635 C15.4935,33.048 14.5065,33.048 13.476,32.8635 C13.4775,32.8455 13.4745,32.826 13.476,32.8065 C13.485,32.6595 13.485,32.5125 13.479,32.3595 C13.4715,32.166 13.452,31.9695 13.4205,31.7715 C13.41,31.704 13.4145,31.641 13.401,31.5735 C13.386,31.4955 13.3515,31.4175 13.332,31.338 C13.287,31.1505 13.233,30.963 13.1685,30.774 C13.134,30.6735 13.098,30.573 13.0575,30.4725 C12.9495,30.2055 12.8295,29.94 12.6825,29.679 C12.66,29.6385 12.633,29.601 12.609,29.5605 C12.4695,29.3205 12.3135,29.0865 12.1425,28.8555 C12.0915,28.785 12.039,28.7175 11.985,28.6485 C11.781,28.389 11.565,28.134 11.3235,27.8925 C11.064,27.633 10.785,27.402 10.5015,27.1845 C10.4595,27.153 10.419,27.1215 10.377,27.0915 C9.0405,26.112 7.4985,25.6065 6.183,25.764 C6.147,25.5795 6.1155,25.3935 6.09,25.206 C6.1155,25.197 6.138,25.182 6.1635,25.1715 C6.258,25.134 6.345,25.0875 6.435,25.044 C6.582,24.9735 6.726,24.897 6.864,24.8115 C6.9585,24.753 7.0485,24.693 7.1385,24.627 C7.2645,24.5355 7.3815,24.435 7.497,24.3315 C7.578,24.2595 7.6605,24.192 7.7355,24.114 C7.902,23.9415 8.055,23.757 8.193,23.5605 C8.2515,23.4765 8.2965,23.385 8.349,23.2965 C8.4315,23.16 8.5095,23.022 8.577,22.8765 C8.6235,22.776 8.6625,22.674 8.7015,22.5705 C8.76,22.413 8.8095,22.254 8.8515,22.089 C8.8755,21.996 8.901,21.9045 8.9175,21.81 C8.967,21.5445 9,21.276 9,21 C9,20.7165 8.967,20.4375 8.916,20.1645 C8.901,20.082 8.8755,20.004 8.856,19.923 C8.8095,19.7355 8.7555,19.5525 8.685,19.374 C8.6505,19.2855 8.6115,19.1985 8.571,19.113 C8.4975,18.9555 8.4135,18.804 8.322,18.6555 C8.2665,18.5655 8.2125,18.477 8.1525,18.3915 C8.127,18.3555 8.1075,18.315 8.0805,18.2805 C8.3865,17.907 8.7135,17.565 9.06,17.2575 C9.081,17.277 9.1065,17.289 9.129,17.3085 C9.48,17.6115 9.855,17.886 10.251,18.132 C10.332,18.183 10.4145,18.2325 10.497,18.282 C10.881,18.5055 11.28,18.7005 11.697,18.8655 C11.7915,18.903 11.886,18.936 11.9805,18.969 C12.4065,19.122 12.846,19.248 13.299,19.335 C13.3695,19.3485 13.44,19.356 13.512,19.368 C13.9965,19.4475 14.4915,19.5 15,19.5 C15.5085,19.5 16.0035,19.4475 16.4895,19.3665 C16.56,19.3545 16.632,19.347 16.7025,19.3335 C17.1555,19.2465 17.595,19.1205 18.021,18.9675 C18.1155,18.933 18.21,18.9015 18.3045,18.864 C18.7215,18.699 19.1205,18.504 19.5045,18.2805 C19.5885,18.2325 19.6695,18.1815 19.7505,18.1305 C20.145,17.883 20.52,17.61 20.871,17.307 C20.892,17.2875 20.9175,17.2755 20.94,17.256 C21.2865,17.565 21.6135,17.907 21.9195,18.279 C21.8925,18.315 21.873,18.354 21.8475,18.39 C21.786,18.4755 21.732,18.564 21.678,18.654 C21.5865,18.8025 21.5025,18.9555 21.429,19.113 C21.3885,19.1985 21.351,19.284 21.3165,19.374 C21.246,19.554 21.192,19.737 21.1455,19.9245 C21.126,20.0055 21.1005,20.0835 21.0855,20.166 C21.033,20.4375 21,20.7165 21,21 C21,21.276 21.033,21.5445 21.0825,21.8085 C21.1005,21.9045 21.126,21.9945 21.1485,22.0875 C21.1905,22.251 21.2385,22.4115 21.2985,22.5675 C21.3375,22.671 21.3765,22.773 21.423,22.8735 C21.4905,23.019 21.57,23.1585 21.6525,23.295 C21.705,23.3835 21.75,23.475 21.8085,23.559 C21.945,23.7555 22.0995,23.94 22.266,24.1125 C22.341,24.1905 22.425,24.258 22.5045,24.3315 C22.62,24.435 22.737,24.534 22.8615,24.627 C22.9515,24.693 23.0415,24.753 23.136,24.8115 C23.274,24.897 23.418,24.9735 23.565,25.044 C23.655,25.0875 23.742,25.134 23.8365,25.1715 C23.8605,25.182 23.883,25.197 23.9085,25.2075 C23.883,25.395 23.853,25.5825 23.8155,25.7655 Z M16.6305,21 C16.038,21 15.474,21.192 15,21.543 C14.5275,21.192 13.962,21 13.3695,21 C11.787,21 10.5,22.377 10.5,24.072 C10.5,24.8235 10.7745,25.5555 11.2905,26.1885 C12.045,27.1095 14.346,29.646 14.445,29.754 C14.5875,29.91 14.7885,30 15,30 C15.2115,30 15.4125,29.91 15.555,29.754 C15.6525,29.646 17.955,27.1095 18.7095,26.1885 C19.2255,25.5555 19.5,24.8235 19.5,24.072 C19.5,22.377 18.213,21 16.6305,21 Z" id="Shape"></path>
        </g>
    </g>
</svg>