<?xml version="1.0" encoding="UTF-8"?>
<svg width="34px" height="34px" viewBox="0 0 34 34" version="1.1" xmlns="http://www.w3.org/2000/svg" xmlns:xlink="http://www.w3.org/1999/xlink">
    <!-- Generator: Sketch 46.2 (44496) - http://www.bohemiancoding.com/sketch -->
    <title>category_icon_gas</title>
    <desc>Created with Sketch.</desc>
    <defs></defs>
    <g id="Category-icons" stroke="none" stroke-width="1" fill="none" fill-rule="evenodd">
        <g id="category_icon_gas" fill-rule="nonzero" fill="#FFFFFF">
            <g id="gas-pump" transform="translate(10.000000, 8.000000)">
                <path d="M11.59875,18 L1.09875,18 C0.89175,18 0.72375,17.832 0.72375,17.625 L0.72375,16.875 C0.72375,16.25475 1.2285,15.75 1.84875,15.75 L10.84875,15.75 C11.469,15.75 11.97375,16.25475 11.97375,16.875 L11.97375,17.625 C11.97375,17.832 11.8065,18 11.59875,18 Z" id="Shape"></path>
                <path d="M9.34875,0 L3.34875,0 C2.3145,0 1.47375,0.8415 1.47375,1.875 L1.47375,16.125 C1.47375,16.332 1.64175,16.5 1.84875,16.5 L10.84875,16.5 C11.05575,16.5 11.22375,16.332 11.22375,16.125 L11.22375,1.875 C11.22375,0.8415 10.383,0 9.34875,0 Z M8.97375,5.625 C8.97375,5.832 8.80575,6 8.59875,6 L4.09875,6 C3.89175,6 3.72375,5.832 3.72375,5.625 L3.72375,2.625 C3.72375,2.418 3.89175,2.25 4.09875,2.25 L8.59875,2.25 C8.80575,2.25 8.97375,2.418 8.97375,2.625 L8.97375,5.625 Z" id="Shape"></path>
                <path d="M16.47375,9.375 L16.47375,7.30725 C17.40075,6.54 17.298,5.80425 17.24025,5.4 C17.232,5.343 17.22375,5.29275 17.22375,5.25 C17.22375,4.7085 15.73875,2.2695 12.43275,1.50975 C12.2295,1.46475 12.03,1.59 11.98275,1.791 C11.93625,1.9935 12.06225,2.1945 12.264,2.241 C13.3425,2.48925 14.18475,2.92575 14.8245,3.3915 C13.98675,4.37475 13.926,5.43375 15.723,7.27575 L15.723,9.375 C15.723,9.828 15.81375,10.43475 15.91875,11.1375 C16.1415,12.6255 16.446,14.66325 15.78675,15.429 C15.60075,15.645 15.33525,15.75 14.97375,15.75 C14.42025,15.75 14.0295,15.621 13.7805,15.35475 C13.2465,14.784 13.326,13.58325 13.41,12.31275 C13.4415,11.83125 13.47375,11.34375 13.47375,10.875 C13.47375,9.669 13.47375,6 10.84875,6 C10.64175,6 10.47375,6.168 10.47375,6.375 C10.47375,6.582 10.64175,6.75 10.84875,6.75 C11.31225,6.75 12.72375,6.75 12.72375,10.875 C12.72375,11.32725 12.69225,11.7975 12.6615,12.26325 C12.56625,13.701 12.477,15.05925 13.23375,15.86775 C13.626,16.287 14.2125,16.5 14.97375,16.5 C15.558,16.5 16.02225,16.30425 16.356,15.918 C17.2395,14.892 16.91925,12.7485 16.66125,11.0265 C16.5645,10.38075 16.47375,9.77175 16.47375,9.375 Z" id="Shape"></path>
            </g>
        </g>
    </g>
</svg>