<?xml version="1.0" encoding="UTF-8"?>
<svg width="34px" height="34px" viewBox="0 0 34 34" version="1.1" xmlns="http://www.w3.org/2000/svg" xmlns:xlink="http://www.w3.org/1999/xlink">
    <!-- Generator: Sketch 46.2 (44496) - http://www.bohemiancoding.com/sketch -->
    <title>category_icon_gym</title>
    <desc>Created with Sketch.</desc>
    <defs></defs>
    <g id="Category-icons" stroke="none" stroke-width="1" fill="none" fill-rule="evenodd">
        <g id="category_icon_gym" fill-rule="nonzero" fill="#FFFFFF">
            <g id="weight-lift" transform="translate(8.000000, 11.000000)">
                <path d="M17.0689655,2.18181818 L16.4482759,2.18181818 C16.3241379,2.18181818 16.262069,2.18181818 16.137931,2.23636364 L16.137931,0.818181818 C16.137931,0.381818182 15.7034483,0 15.2068966,0 L13.9655172,0 C13.4689655,0 13.0344828,0.381818182 13.0344828,0.818181818 L13.0344828,5.45454545 L4.96551724,5.45454545 L4.96551724,0.818181818 C4.96551724,0.381818182 4.53103448,0 4.03448276,0 L2.79310345,0 C2.29655172,0 1.86206897,0.381818182 1.86206897,0.818181818 L1.86206897,2.23636364 C1.73793103,2.18181818 1.67586207,2.18181818 1.55172414,2.18181818 L0.931034483,2.18181818 C0.434482759,2.18181818 0,2.56363636 0,3 L0,9 C0,9.43636364 0.434482759,9.81818182 0.931034483,9.81818182 L1.55172414,9.81818182 C1.67586207,9.81818182 1.73793103,9.81818182 1.86206897,9.76363636 L1.86206897,11.1818182 C1.86206897,11.6181818 2.29655172,12 2.79310345,12 L4.03448276,12 C4.53103448,12 4.96551724,11.6181818 4.96551724,11.1818182 L4.96551724,7.09090909 L13.0344828,7.09090909 L13.0344828,11.1818182 C13.0344828,11.6181818 13.4689655,12 13.9655172,12 L15.2068966,12 C15.7034483,12 16.137931,11.6181818 16.137931,11.1818182 L16.137931,9.76363636 C16.262069,9.81818182 16.3241379,9.81818182 16.4482759,9.81818182 L17.0689655,9.81818182 C17.5655172,9.81818182 18,9.43636364 18,9 L18,3 C18,2.56363636 17.5655172,2.18181818 17.0689655,2.18181818 Z" id="Shape"></path>
            </g>
        </g>
    </g>
</svg>