<?xml version="1.0" encoding="UTF-8"?>
<svg width="60px" height="60px" viewBox="0 0 60 60" version="1.1" xmlns="http://www.w3.org/2000/svg" xmlns:xlink="http://www.w3.org/1999/xlink">
    <!-- Generator: Sketch 49.1 (51147) - http://www.bohemiancoding.com/sketch -->
    <title>category_icon_flower</title>
    <desc>Created with Sketch.</desc>
    <defs></defs>
    <g id="category_icon_flower" stroke="none" stroke-width="1" fill="none" fill-rule="evenodd">
        <g id="japanese-flower" transform="translate(12.117647, 11.000000)" fill="#FFFFFF" fill-rule="nonzero">
            <path d="M10.8017683,8.00495137 C10.7642794,7.80548187 10.7366932,7.60601238 10.7119363,7.39664014 C10.6100796,6.52944297 11.1200707,4.74412025 12.7526083,3.51971706 C13.416092,3.11158267 17.3439434,0.714412025 17.9557913,0 C18.5683466,0.714412025 22.4954907,3.11158267 23.1589744,3.51971706 C24.7915119,4.74412025 25.3015031,6.52944297 25.1996463,7.39664014 C25.1791335,7.56286472 25.157206,7.72343059 25.1303271,7.88258179 L19.285588,15.9434129 C19.0875332,15.8578249 18.8795756,15.7913351 18.66313,15.7453581 L18.66313,12.9061008 C18.66313,12.5149425 18.3469496,12.1987622 17.9557913,12.1987622 C17.5646331,12.1987622 17.2484527,12.5149425 17.2484527,12.9061008 L17.2484527,15.7446508 C17.1211317,15.772237 17.0022989,15.818214 16.8806366,15.8592396 L11.0196286,8.19168877 C10.9587975,8.11246684 10.8838196,8.05022104 10.8017683,8.00495137 Z M5.36304156,22.4113174 C5.17559682,22.3858532 4.98885942,22.3533156 4.79575597,22.314412 C3.93987622,22.1432361 2.39929266,21.106985 1.73934571,19.1759505 C1.556145,18.4198055 0.490185676,13.9430592 7.10542736e-15,13.1402299 C0.867904509,12.7787798 4.36215738,9.78390805 4.95490716,9.2795756 C6.62351901,8.10539346 8.4795756,8.17188329 9.27250221,8.53687003 C9.44580018,8.61609195 9.60990274,8.69672856 9.77188329,8.78302387 C9.79381079,8.87709991 9.83342175,8.9683466 9.89566755,9.05039788 L15.6576481,16.5885057 C15.4242263,16.8084881 15.2290009,17.0638373 15.0656057,17.3425287 L12.352962,16.4618921 C11.9823165,16.3423519 11.5819629,16.5446508 11.4617153,16.9167109 C11.3414677,17.288771 11.5451813,17.6870027 11.916534,17.8079576 L14.6305924,18.6893015 C14.619275,18.8017683 14.5966401,18.9114058 14.5966401,19.026702 C14.5966401,19.1172414 14.6164456,19.202122 14.623519,19.2912467 L5.36304156,22.4113174 Z M14.930504,24.394695 L16.6005305,22.0972591 C16.8530504,22.2083112 17.1218391,22.2854111 17.4019452,22.3320955 L17.4019452,32.0862953 C17.3248453,32.2426172 17.2435013,32.3961096 17.155084,32.5538462 C16.7278515,33.3149425 15.2657825,34.4594164 13.2258179,34.4905393 C12.44916,34.4311229 7.8627763,34.0611848 6.94748011,34.2797524 C6.87250221,33.3418214 5.10344828,29.0935455 4.80707339,28.3734748 C4.20583554,26.4240495 4.84314766,24.6797524 5.4351901,24.0381963 C5.50875332,23.958267 5.58090186,23.8811671 5.65446508,23.8061892 L15.0302387,20.6472149 C15.1526083,20.8671972 15.2947834,21.071618 15.4617153,21.2576481 L13.7860301,23.5635721 C13.556145,23.8804598 13.6268789,24.3225464 13.9423519,24.5510168 C14.0682582,24.6422635 14.2132626,24.6861185 14.3575597,24.6861185 C14.5768347,24.6861185 14.7925729,24.5863837 14.930504,24.394695 Z M30.3533156,23.5925729 C30.4742706,23.7106985 30.5923961,23.8316534 30.709107,23.9575597 C31.3025641,24.5998232 31.9391689,26.3434129 31.3372237,28.2942529 C31.0415561,29.0136163 29.2717949,33.2618921 29.1975243,34.1998232 C28.2822281,33.9826702 23.695137,34.3511936 22.9191866,34.4106101 C20.8792219,34.3794872 19.417153,33.2350133 18.9899204,32.4739169 C18.928382,32.3649867 18.8710875,32.2574713 18.8152078,32.1506631 L18.8152078,22.2592396 C18.9856764,22.2139699 19.1526083,22.1644562 19.3103448,22.0937224 L20.9810787,24.3932803 C21.1204244,24.582847 21.334748,24.6847038 21.554023,24.6847038 C21.6990274,24.6847038 21.8440318,24.6415561 21.9699381,24.5503095 C22.2868258,24.3211317 22.356145,23.8790451 22.1262599,23.5628647 L20.4505747,21.2562334 C20.6677277,21.0143236 20.8516357,20.7434129 20.9909814,20.444916 L30.3533156,23.5925729 Z M31.0465075,9.15649867 C31.6399646,9.66083112 35.1335102,12.6557029 36,13.017153 C35.5098143,13.8199823 34.443855,18.2960212 34.2599469,19.0528736 C33.6014147,20.9846154 32.0608311,22.0208665 31.204244,22.1920424 C31.0776304,22.218214 30.9531388,22.2401415 30.8286472,22.2606543 L21.3114058,19.0606543 C21.3114058,19.0493369 21.3156499,19.0387268 21.3156499,19.0274094 C21.3156499,18.9114058 21.2923077,18.803183 21.2809903,18.6907162 L23.995756,17.8086649 C24.3678161,17.68771 24.5715296,17.2880637 24.4505747,16.9174182 C24.3289125,16.5453581 23.9285588,16.3416446 23.559328,16.4625995 L20.845977,17.3439434 C20.7271441,17.1395225 20.5899204,16.9485411 20.4300619,16.7738285 L26.3639257,8.59062776 C26.4827586,8.53050398 26.6037135,8.47179487 26.7289125,8.4137931 C27.5225464,8.04880637 29.378603,7.98231653 31.0465075,9.15649867 Z M19.5400684,19.4106228 C19.3482345,20.1125606 18.7272657,20.6332526 17.975501,20.6687543 C17.9617985,20.6693772 17.9493418,20.6724913 17.9356394,20.6724913 C17.921937,20.6731142 17.9088574,20.6768512 17.8951549,20.6768512 C17.1209681,20.6768512 16.4725944,20.1574048 16.2614525,19.4504844 C16.2577155,19.4374048 16.2533556,19.4249481 16.2496186,19.4118685 C16.2103799,19.2679931 16.1823522,19.1197578 16.1823522,18.9634256 C16.1823522,18.5193426 16.3561238,18.1188581 16.6332864,17.8142907 C16.7285806,17.709654 16.8325944,17.6143599 16.9509335,17.5358824 C16.9615217,17.5284083 16.9746013,17.5234256 16.9858124,17.5165744 C17.2168851,17.3708304 17.4847051,17.2830104 17.772456,17.2624567 C17.8129404,17.2593426 17.8521792,17.25 17.8939093,17.25 C18.2607605,17.25 18.5983383,17.3677163 18.8779923,17.5645329 C18.8885806,17.5720069 18.8973003,17.5813495 18.9085113,17.5894464 C19.3301722,17.9021107 19.606712,18.3985121 19.606712,18.9628028 C19.606712,19.1048097 19.5849127,19.2405882 19.5519024,19.3726298 C19.5487882,19.3863322 19.5438055,19.3975433 19.5400684,19.4106228 Z" id="Combined-Shape"></path>
        </g>
    </g>
</svg>