<?xml version="1.0" encoding="UTF-8"?>
<svg width="34px" height="34px" viewBox="0 0 34 34" version="1.1" xmlns="http://www.w3.org/2000/svg" xmlns:xlink="http://www.w3.org/1999/xlink">
    <!-- Generator: Sketch 46.2 (44496) - http://www.bohemiancoding.com/sketch -->
    <title>category_icon_food</title>
    <desc>Created with Sketch.</desc>
    <defs></defs>
    <g id="Category-icons" stroke="none" stroke-width="1" fill="none" fill-rule="evenodd">
        <g id="category_icon_food" fill-rule="nonzero" fill="#FFFFFF">
            <g id="fork-knife" transform="translate(11.000000, 8.000000)">
                <path d="M4.39673138,0.3195 C4.37392499,0.135 4.24025421,0 4.08377704,0 C4.08060948,0 4.07680842,0 4.07300736,0 C3.91209561,0.006 3.78095887,0.15375 3.76828865,0.3435 L3.49081092,4.2825 C3.47370612,4.5255 3.1094374,4.5255 3.09233261,4.2825 L2.81485488,0.3435 C2.80218466,0.14925 2.66471281,0 2.5,0 C2.33528719,0 2.19781534,0.14925 2.18451161,0.3435 L1.90703388,4.2825 C1.88992908,4.5255 1.52566037,4.5255 1.50855557,4.2825 L1.23107784,0.3435 C1.21777411,0.15375 1.08663737,0.006 0.926359134,0 C0.922558069,0 0.918757004,0 0.91558945,0 C0.759112279,0 0.625441497,0.135 0.602635107,0.3195 L0.0280407976,4.857 C-0.14110659,6.18675 0.468330814,7.45875 1.49588536,7.989 L1.00681501,16.104 C0.97767351,16.59225 1.12211398,17.0775 1.40402629,17.436 C1.6859386,17.7945 2.08505042,18 2.49873298,18 L2.50126702,18 C2.91494958,18 3.3140614,17.7945 3.59597371,17.436 C3.87788602,17.0775 4.02232649,16.59225 3.99318499,16.104 L3.50411464,7.989 C4.53166919,7.45875 5.14110659,6.18675 4.9719592,4.857 L4.39673138,0.3195 Z" id="Shape"></path>
                <path d="M11.471026,0.0684178185 C11.378626,-0.00208218148 11.259626,-0.0185821815 11.152526,0.0211678185 C11.122426,0.0324178185 8,1.20981987 8,4.86981987 C8,7.50456987 8.919526,8.83966782 9.369626,9.37966782 L8.921626,9.85966782 C8.864226,9.92116782 8.828526,10.0014178 8.820826,10.0876678 L8.44167173,16.1994178 C8.44167173,17.228224 9.01455924,18 10.0455106,18 C10.9716106,18 11.619426,17.3808572 11.619426,16.3886072 L11.619426,0.374417819 C11.619426,0.252167819 11.564126,0.138917819 11.471026,0.0684178185 Z" id="Shape" transform="translate(9.809713, 9.000000) scale(-1, 1) translate(-9.809713, -9.000000) "></path>
            </g>
        </g>
    </g>
</svg>