<?xml version="1.0" encoding="UTF-8"?>
<svg width="34px" height="34px" viewBox="0 0 34 34" version="1.1" xmlns="http://www.w3.org/2000/svg" xmlns:xlink="http://www.w3.org/1999/xlink">
    <!-- Generator: Sketch 46.2 (44496) - http://www.bohemiancoding.com/sketch -->
    <title>category_icon_gift</title>
    <desc>Created with Sketch.</desc>
    <defs></defs>
    <g id="Category-icons" stroke="none" stroke-width="1" fill="none" fill-rule="evenodd">
        <g id="category_icon_gift" fill="#FFFFFF">
            <g id="Group-8" transform="translate(8.000000, 7.000000)">
                <path d="M8.61000013,9.5 C3.62120294,9.51519182 1.08453623,9.51519182 1,9.5 L1,15.5 L1,15.5 C1,16.3284271 1.67157288,17 2.5,17 L8.61000013,17 L8.61000013,9.5 Z" id="Fill-52"></path>
                <path d="M9.39130435,9.5 L9.39130435,17 L15.4913043,17 L15.4913043,17 C16.3197314,17 16.9913043,16.3284271 16.9913043,15.5 L16.9913043,9.5 L9.39130435,9.5 Z" id="Fill-54"></path>
                <path d="M17,4 L12.657913,4 C12.2603478,4.40930435 11.7986087,4.66786957 11.282087,4.92613043 L12.1781739,5.82221739 C12.3996522,6.04447826 12.5217391,6.33952174 12.5217391,6.65256522 C12.5217391,6.9656087 12.3996522,7.26065217 12.1781739,7.48291304 C11.955913,7.7043913 11.6608696,7.82647826 11.3478261,7.82647826 C11.0347826,7.82647826 10.7397391,7.7043913 10.5174783,7.48291304 L9.39130435,6.35595652 L9.39130435,8.5 L17,8.5 L17,8.5 C17.5522847,8.5 18,8.05228475 18,7.5 L18,5 L18,5 C18,4.44771525 17.5522847,4 17,4 Z" id="Fill-56"></path>
                <path d="M7.48213043,7.4826 C7.26065217,7.70407826 6.9656087,7.82616522 6.65178261,7.82616522 C6.33873913,7.82616522 6.04369565,7.70407826 5.82221739,7.4826 C5.60073913,7.26112174 5.47786957,6.96607826 5.47786957,6.65225217 C5.47786957,6.3392087 5.60073913,6.04416522 5.82221739,5.82268696 L6.71830435,4.9266 C6.20178261,4.66833913 5.74409771,4.40930435 5.3473151,4 L1,4 L1,4 C0.44771525,4 -1.33903117e-14,4.44771525 -1.33226763e-14,5 L-1.3276218e-14,7.5 L-1.33226763e-14,7.5 C-1.30097772e-14,8.05228475 0.44771525,8.5 1,8.5 L8.60830435,8.5 L8.60830435,6.35642609 L7.48213043,7.4826 Z" id="Fill-58"></path>
                <path d="M12.3757826,1.39750435 C11.975087,2.74437391 10.791,3.72185217 9.41673913,3.88854783 C9.58265217,2.51350435 10.5601304,1.32941739 11.907,0.928721739 C11.9406522,0.919330435 11.9743043,0.913852174 12.0071739,0.913852174 C12.1237826,0.913852174 12.2388261,0.974895652 12.3139565,1.07663478 C12.3562174,1.13298261 12.4203913,1.2495913 12.3757826,1.39750435 M5.62421739,1.39750435 C5.5796087,1.2495913 5.64378261,1.13298261 5.68604348,1.07663478 C5.76117391,0.974895652 5.87621739,0.913852174 5.99282609,0.913852174 C6.02569565,0.913852174 6.05934783,0.919330435 6.093,0.928721739 C7.43986957,1.32941739 8.41734783,2.51350435 8.58326087,3.88854783 C7.209,3.72185217 6.02491304,2.74437391 5.62421739,1.39750435 M12.9416087,0.608634783 C12.6520435,0.22046087 12.141,0.0435913043 11.6839565,0.1782 C10.4646522,0.541330435 9.5043913,1.43428696 9.0003913,2.55341739 C8.4956087,1.43428696 7.53534783,0.541330435 6.31604348,0.178982609 C5.85978261,0.0428086957 5.34873913,0.22046087 5.0583913,0.608634783 C4.83769565,0.905243478 4.7703913,1.27385217 4.87369565,1.62054783 C5.32995652,3.15367826 6.61891304,4.28611304 8.15126087,4.59993913 L6.37552174,6.37567826 C6.22291304,6.52906957 6.22291304,6.77637391 6.37552174,6.92898261 C6.45221739,7.00567826 6.5523913,7.04402609 6.65256522,7.04402609 C6.75195652,7.04402609 6.85213043,7.00567826 6.92882609,6.92898261 L9.0003913,4.8582 L11.0711739,6.92898261 C11.1478696,7.00567826 11.2480435,7.04402609 11.3482174,7.04402609 C11.4476087,7.04402609 11.5477826,7.00567826 11.6244783,6.92898261 C11.777087,6.77637391 11.777087,6.52906957 11.6244783,6.37567826 L9.84873913,4.59993913 C11.381087,4.28611304 12.6700435,3.15367826 13.1255217,1.62133043 C13.2296087,1.27385217 13.1623043,0.905243478 12.9416087,0.608634783" id="Fill-60"></path>
            </g>
        </g>
    </g>
</svg>