<?xml version="1.0" encoding="UTF-8"?>
<svg width="34px" height="34px" viewBox="0 0 34 34" version="1.1" xmlns="http://www.w3.org/2000/svg" xmlns:xlink="http://www.w3.org/1999/xlink">
    <!-- Generator: Sketch 46.2 (44496) - http://www.bohemiancoding.com/sketch -->
    <title>category_icon_love</title>
    <desc>Created with Sketch.</desc>
    <defs></defs>
    <g id="Category-icons" stroke="none" stroke-width="1" fill="none" fill-rule="evenodd">
        <g id="category_icon_love" fill-rule="nonzero" fill="#FFFFFF">
            <g id="heart" transform="translate(8.000000, 9.000000)">
                <path d="M12.75,0 C11.3295,0 9.9855,0.587299423 9,1.62511932 C8.0145,0.587299423 6.6705,0 5.25,0 C2.355,0 0,2.42647393 0,5.40933679 C0,6.75626165 0.52725,8.07304877 1.524,9.21905541 C3.23925,11.1895995 8.67975,16.8299923 8.7345,16.8864039 C8.805,16.9590436 8.90025,17 9,17 C9.09975,17 9.19575,16.9590436 9.2655,16.8864039 C9.32025,16.8299923 14.76075,11.1895995 16.476,9.21828265 C17.47275,8.07304877 18,6.75548889 18,5.40856403 C18,2.42724669 15.645,0 12.75,0 Z M5.25,2.31828719 C3.5955,2.31828719 2.25,3.70462294 2.25,5.40933679 C2.25,5.62261921 2.082,5.79571799 1.875,5.79571799 C1.668,5.79571799 1.5,5.62261921 1.5,5.40933679 C1.5,3.27883086 3.18225,1.5455248 5.25,1.5455248 C5.457,1.5455248 5.625,1.71862357 5.625,1.931906 C5.625,2.14518842 5.457,2.31828719 5.25,2.31828719 Z" id="Shape"></path>
            </g>
        </g>
    </g>
</svg>