<?xml version="1.0" encoding="UTF-8"?>
<svg width="34px" height="34px" viewBox="0 0 34 34" version="1.1" xmlns="http://www.w3.org/2000/svg" xmlns:xlink="http://www.w3.org/1999/xlink">
    <!-- Generator: Sketch 46.2 (44496) - http://www.bohemiancoding.com/sketch -->
    <title>category_icon_phone</title>
    <desc>Created with Sketch.</desc>
    <defs></defs>
    <g id="Category-icons" stroke="none" stroke-width="1" fill="none" fill-rule="evenodd">
        <g id="category_icon_phone" fill-rule="nonzero" fill="#FFFFFF">
            <g id="smartphone" transform="translate(11.000000, 7.000000)">
                <path d="M6,17.3333333 L6.31578947,17.3333333 L6,17.3326667 L6,17.3333333 Z M10.4210526,0 L1.57894737,0 C0.708631579,0 0,0.748 0,1.66666667 L0,18.3333333 C0,19.252 0.708631579,20 1.57894737,20 L10.4210526,20 C11.2913684,20 12,19.252 12,18.3333333 L12,1.66666667 C12,0.748 11.2913684,0 10.4210526,0 Z M8.15284211,0.659999847 L8.15915789,0.659999847 C8.33284211,0.659999847 8.47368421,0.809333181 8.47368421,0.993333181 C8.47368421,1.17733318 8.33284211,1.32666651 8.15915789,1.32666651 C7.98547368,1.32666651 7.84210526,1.17733318 7.84210526,0.993333181 C7.84210526,0.809333181 7.97978947,0.659999847 8.15284211,0.659999847 Z M5.36842105,0.659999847 L6.63157895,0.659999847 C6.80589474,0.659999847 6.94736842,0.809333181 6.94736842,0.993333181 C6.94736842,1.17733318 6.80589474,1.32666651 6.63157895,1.32666651 L5.36842105,1.32666651 C5.19410526,1.32666651 5.05263158,1.17733318 5.05263158,0.993333181 C5.05263158,0.809333181 5.19410526,0.659999847 5.36842105,0.659999847 Z M6,19 C5.652,19 5.36842105,18.7006667 5.36842105,18.3333333 C5.36842105,17.966 5.652,17.6666667 6,17.6666667 C6.348,17.6666667 6.63157895,17.966 6.63157895,18.3333333 C6.63157895,18.7006667 6.348,19 6,19 Z M11,17 L1,17 L1,2 L11,2 L11,17 Z" id="Shape"></path>
            </g>
        </g>
    </g>
</svg>