<?xml version="1.0" encoding="UTF-8"?>
<svg width="34px" height="34px" viewBox="0 0 34 34" version="1.1" xmlns="http://www.w3.org/2000/svg" xmlns:xlink="http://www.w3.org/1999/xlink">
    <!-- Generator: Sketch 46.2 (44496) - http://www.bohemiancoding.com/sketch -->
    <title>category_icon_tools</title>
    <desc>Created with Sketch.</desc>
    <defs></defs>
    <g id="Category-icons" stroke="none" stroke-width="1" fill="none" fill-rule="evenodd">
        <g id="category_icon_tools" fill-rule="nonzero" fill="#FFFFFF">
            <g id="screwdriver-and-wrench-crossed" transform="translate(8.000000, 8.000000)">
                <path d="M0.493835729,15.1193717 C-0.164587269,15.7777947 -0.164587269,16.8440821 0.493835729,17.5025051 C0.823047228,17.8317166 1.25449281,17.9957495 1.68597536,17.9957495 C2.11745791,17.9957495 2.54890349,17.8317166 2.87811499,17.5025051 L8.69083474,11.8125773 L6.30655548,9.4305527 L0.493835729,15.1193717 Z" id="Shape"></path>
                <polygon id="Shape" points="14.0988604 4.68169602 16.734271 3.61711294 17.9960452 1.17779877 16.8196509 0.00140451745 14.3814456 1.26432444 13.3023506 3.89971663 10.3084277 7.0706224 11.036735 7.76993362"></polygon>
                <path d="M14.8522177,11.2598316 L14.6252402,11.2373593 C14.2140123,11.2373593 13.8241109,11.3216304 13.4600821,11.4564641 L6.54209446,4.53736756 C6.67692813,4.17333881 6.76119918,3.78343737 6.76119918,3.37220945 L6.7387269,3.14523203 C6.6196386,1.39128542 5.17468583,0.00140451745 3.39043121,0.00140451745 C2.87131417,0.00140451745 2.38479671,0.128365503 1.94547844,0.338488706 L4.18479671,2.57780698 C4.30277618,2.69578645 4.38368378,2.8350924 4.43760986,2.98230801 C4.5847885,3.38004517 4.50502669,3.84523614 4.18479671,4.16657495 C3.96569199,4.38567967 3.6780616,4.49578645 3.39043121,4.49578645 C3.25785216,4.49578645 3.12638193,4.46658727 3.00052977,4.41938809 C2.85335113,4.36320739 2.71400821,4.28455441 2.59602875,4.16546612 L0.356747433,1.92725667 C0.14662423,2.36657495 0.0196632444,2.8530924 0.0196632444,3.37220945 C0.0196632444,5.15646407 1.40954415,6.60141684 3.16349076,6.72050513 L3.39046817,6.74297741 C3.8016961,6.74297741 4.19159754,6.65870637 4.55562628,6.52501848 L11.4724682,13.4430062 C11.3398891,13.8070349 11.2556181,14.1969363 11.2556181,14.6081643 L11.2791992,14.8351417 C11.3960698,16.5901971 12.8421314,17.9789692 14.626386,17.9789692 C15.1455031,17.9789692 15.6331294,17.8542628 16.0713388,17.641885 L13.8320205,15.4025667 C13.7151499,15.2856961 13.6331335,15.1452813 13.5769528,14.9992115 C13.4297741,14.6014743 13.5095359,14.1351745 13.8320205,13.8138357 C14.0488706,13.594731 14.3387556,13.4846242 14.626386,13.4846242 C14.7589651,13.4846242 14.8892895,13.5127146 15.0173963,13.5610226 C15.1645749,13.6160945 15.3050267,13.6947474 15.4207515,13.8138357 L17.6600698,16.053154 C17.8713018,15.6126899 17.997154,15.1273183 17.997154,14.6082012 C17.9960452,12.8238727 16.6061643,11.3789199 14.8522177,11.2598316 Z" id="Shape"></path>
            </g>
        </g>
    </g>
</svg>