<?xml version="1.0" encoding="UTF-8"?>
<svg width="34px" height="34px" viewBox="0 0 34 34" version="1.1" xmlns="http://www.w3.org/2000/svg" xmlns:xlink="http://www.w3.org/1999/xlink">
    <!-- Generator: Sketch 46.2 (44496) - http://www.bohemiancoding.com/sketch -->
    <title>category_icon_pets</title>
    <desc>Created with Sketch.</desc>
    <defs></defs>
    <g id="Category-icons" stroke="none" stroke-width="1" fill="none" fill-rule="evenodd">
        <g id="category_icon_pets" fill-rule="nonzero" fill="#FFFFFF">
            <g id="dog-paw" transform="translate(8.000000, 8.000000)">
                <path d="M14.3415918,13.5341633 C15.0961224,14.7221633 15.4517143,15.352898 15.4517143,16.0108163 C15.4517143,17.3101224 14.4866939,17.9401224 13.1866531,17.9401224 C12.6135918,17.9401224 12.2436735,17.9393878 11.3087755,17.4530204 C11.3087755,17.4530204 10.7030204,16.8986939 9.28542857,16.9556327 C7.85461224,16.8990612 7.2484898,17.46 7.2484898,17.46 C6.31359184,17.946 5.95689796,17.9408571 5.38457143,17.9408571 C4.08453061,17.9408571 3.11877551,17.3115918 3.11877551,16.011551 C3.11877551,15.3536327 3.47546939,14.7236327 4.22963265,13.534898 C4.22963265,13.534898 5.65530612,11.1673469 6.89069388,10.053551 C7.78334694,9.24979592 9.08485714,9.25273469 9.08485714,9.25273469 L9.48636735,9.25273469 L9.48636735,9.25236735 C9.48636735,9.25236735 10.8448163,9.24906122 11.6816327,10.053551 C12.8788163,11.2077551 14.3415918,13.5345306 14.3415918,13.5341633 Z M6.10934694,7.66946939 C7.46853061,7.66946939 8.57020408,5.9524898 8.57020408,3.83473469 C8.57020408,1.71697959 7.46853061,0 6.10934694,0 C4.75016327,0 3.6484898,1.71697959 3.6484898,3.83473469 C3.6484898,5.9524898 4.75016327,7.66946939 6.10934694,7.66946939 Z M3.75097959,11.3833469 C4.75273469,10.9208571 4.98122449,9.28102041 4.26085714,7.72053061 C3.5404898,6.16004082 2.14457143,5.26959184 1.14281633,5.73171429 C0.141061224,6.19383673 -0.0870612245,7.83404082 0.632938776,9.39453061 C1.35330612,10.9550204 2.74922449,11.845102 3.75097959,11.3833469 Z M11.8307755,7.66946939 C13.1899592,7.66946939 14.292,5.9524898 14.292,3.83473469 C14.292,1.71697959 13.1899592,0 11.8307755,0 C10.4715918,0 9.36991837,1.71697959 9.36991837,3.83473469 C9.36991837,5.9524898 10.4715918,7.66946939 11.8307755,7.66946939 Z M16.7976735,5.73134694 C15.795551,5.26885714 14.4,6.15930612 13.6796327,7.72016327 C12.9592653,9.28102041 13.1877551,10.9208571 14.1898776,11.3833469 C15.192,11.8454694 16.587551,10.9550204 17.3079184,9.39453061 C18.0282857,7.83404082 17.7997959,6.19383673 16.7976735,5.73134694 Z" id="Shape"></path>
            </g>
        </g>
    </g>
</svg>