<?xml version="1.0" encoding="UTF-8"?>
<svg width="34px" height="34px" viewBox="0 0 34 34" version="1.1" xmlns="http://www.w3.org/2000/svg" xmlns:xlink="http://www.w3.org/1999/xlink">
    <!-- Generator: Sketch 46.2 (44496) - http://www.bohemiancoding.com/sketch -->
    <title>category_icon_sport</title>
    <desc>Created with Sketch.</desc>
    <defs></defs>
    <g id="Category-icons" stroke="none" stroke-width="1" fill="none" fill-rule="evenodd">
        <g id="category_icon_sport" fill-rule="nonzero" fill="#FFFFFF">
            <g id="soccer-ball" transform="translate(8.000000, 8.000000)">
                <path d="M9,0 C4.02,0 0,4.02 0,9 C0,11.34 0.9,13.5 2.4,15.06 L2.46,15.18 C2.46,15.18 2.52,15.24 2.52,15.24 L2.52,15.24 C4.2,16.92 6.48,18 9,18 C13.98,18 18,13.98 18,9 C18,4.02 13.98,0 9,0 Z M17.04,6.48 L15.54,6.06 L13.8,3.24 L13.8,2.1 C15.3,3.18 16.44,4.68 17.04,6.48 Z M11.7,14.34 L9.66,12.78 L10.74,9.9 L13.86,9.66 L14.4,12.78 L11.7,14.34 Z M9.06,12.6 L5.28,13.2 L3.66,10.2 L5.28,7.2 L7.98,6.96 L10.14,9.72 L9.06,12.6 Z M6.96,2.46 L9.48,3.72 L7.92,6.3 L5.28,6.6 L4.26,4.56 L6.96,2.46 Z M13.2,1.74 C13.2,1.74 13.2,1.8 13.2,1.74 L13.2,3 L9.96,3.24 L7.2,1.92 L7.2,0.78 C7.8,0.66 8.4,0.6 9,0.6 C10.56,0.6 12,1.02 13.2,1.74 Z M1.92,4.5 L3.72,4.74 L4.8,6.84 L3.12,9.84 L0.72,10.08 C0.66,9.78 0.6,9.42 0.6,9 C0.6,7.38 1.08,5.82 1.92,4.5 Z M4.26,15.9 L5.28,13.8 L9.18,13.26 L11.34,14.88 L10.8,17.22 C10.2,17.34 9.6,17.4 8.94,17.4 C7.2,17.4 5.58,16.86 4.26,15.9 Z M16.56,12.6 C16.56,12.6 16.5,12.6 16.5,12.6 L14.94,12.6 L14.4,9.36 L15.48,6.66 L17.22,7.14 C17.34,7.74 17.46,8.34 17.46,9 C17.4,10.32 17.1,11.52 16.56,12.6 Z" id="Shape"></path>
            </g>
        </g>
    </g>
</svg>