<?xml version="1.0" encoding="UTF-8"?>
<svg width="60px" height="60px" viewBox="0 0 60 60" version="1.1" xmlns="http://www.w3.org/2000/svg" xmlns:xlink="http://www.w3.org/1999/xlink">
    <!-- Generator: Sketch 49.1 (51147) - http://www.bohemiancoding.com/sketch -->
    <title>category_icon_party</title>
    <desc>Created with Sketch.</desc>
    <defs></defs>
    <g id="category_icon_party" stroke="none" stroke-width="1" fill="none" fill-rule="evenodd">
        <g id="balloons" transform="translate(12.000000, 12.000000)" fill="#FFFFFF" fill-rule="nonzero">
            <path d="M19.2711786,24.2131158 L16.464133,35.4315 C16.3815609,35.766 16.0812989,36 15.7359975,36 C15.3921975,36 15.0904342,35.766 15.0078621,35.4315 L12.854544,26.8257444 L11.1164662,27.1575 C11.0699256,27.1665 11.0218836,27.171 10.975343,27.171 C10.7261255,27.171 10.4889185,27.0465 10.3477954,26.832 C10.18115,26.5785 10.1841526,26.2485 10.3553019,25.998 L11.3339174,24.5592469 C7.14102871,24.0359023 1.1613315,19.0564702 0.189930869,13.971 C-0.337028995,11.2155 0.240975415,8.421 1.81885239,6.1005 C3.39522805,3.7815 5.78381251,2.214 8.54021795,1.6875 C10.8192068,1.251 13.2228043,1.6065 15.3081241,2.679 C15.4987905,2.778 15.6384124,2.9535 15.6909582,3.162 C15.7435041,3.372 15.70447,3.5925 15.5828639,3.771 L15.4822761,3.918 C15.317132,4.158 15.1504866,4.398 15.0063608,4.6545 C13.5305729,7.2945 13.1072034,11.01 13.8428454,14.847 C13.9794646,15.5655 14.3998315,17.4345 15.3141294,19.26 C15.4687643,19.5675 15.3936988,19.941 15.1309695,20.1645 C14.6850804,20.5485 14.4028341,21.054 14.3412804,21.588 C14.2872332,22.05 14.3893223,22.5225 14.6370385,22.9575 C14.7391276,23.133 14.7631485,23.3415 14.7076001,23.5365 C14.655306,23.7200756 14.5351539,23.875734 14.3721957,23.9734392 L15.8215722,24.957 C16.072291,25.1265 16.1953984,25.4325 16.135346,25.728 C16.072291,26.025 15.8380866,26.256 15.5408272,26.313 L14.3311221,26.5439025 L15.7359975,32.1585 L17.9135458,23.4559081 L16.2104115,22.506 C15.9461809,22.3575 15.7960499,22.065 15.8305801,21.7635 C15.8651102,21.462 16.0797976,21.2115 16.3710517,21.129 L18.0472138,20.6539138 C16.7994519,19.3272777 15.8182754,17.1690046 15.317132,14.5635 C14.6565555,11.121 15.0303818,7.689 16.3170046,5.385 C18.1711226,2.0625 21.6901936,0 25.5005188,0 C27.2825739,0 29.049616,0.4605 30.6139812,1.3335 C35.6733964,4.155 37.4929843,10.563 34.6705212,15.6195 C32.4350704,19.6215 26.4883809,22.311 22.335757,22.311 C21.76608,22.311 21.2388273,22.2618179 20.7568567,22.1642051 L21.232294,23.8395 C21.3148661,24.1305 21.212777,24.444 20.9740687,24.6315 C20.8389507,24.738 20.6738066,24.7935 20.5086625,24.7935 C20.3825525,24.7935 20.2564424,24.762 20.1423428,24.699 L19.2711786,24.2131158 Z M9.38545557,6.108 C9.79231062,6.0315 10.0595438,5.6385 9.9814757,5.2305 C9.90190626,4.8225 9.49805383,4.5615 9.10320926,4.635 C5.03766136,5.4105 2.36232666,9.345 3.13850401,13.4085 C3.20756428,13.767 3.52283941,14.0175 3.87414599,14.0175 C3.92068661,14.0175 3.96872853,14.013 4.01677046,14.004 C4.42362551,13.926 4.69085872,13.533 4.61279059,13.1265 C3.99274949,9.8775 6.13361777,6.729 9.38545557,6.108 Z M29.4399566,4.9725 C29.6426335,4.611 29.5120195,4.155 29.1517051,3.9525 C27.3996761,2.976 25.3714061,2.7405 23.4452252,3.2865 C21.5160416,3.834 19.9141437,5.0985 18.9382921,6.8475 C18.7356152,7.209 18.8662292,7.6665 19.2265436,7.8675 C19.3421445,7.9305 19.4682546,7.962 19.5928633,7.962 C19.8555926,7.962 20.1108153,7.824 20.2489359,7.578 C21.0296171,6.1785 22.3102347,5.1675 23.8535815,4.7295 C25.3954271,4.293 27.016842,4.4805 28.4175644,5.262 C28.7778788,5.46 29.2357784,5.3355 29.4399566,4.9725 Z" id="Combined-Shape"></path>
        </g>
    </g>
</svg>