<?xml version="1.0" encoding="UTF-8"?>
<svg width="34px" height="34px" viewBox="0 0 34 34" version="1.1" xmlns="http://www.w3.org/2000/svg" xmlns:xlink="http://www.w3.org/1999/xlink">
    <!-- Generator: Sketch 46.2 (44496) - http://www.bohemiancoding.com/sketch -->
    <title>category_icon_coffee</title>
    <desc>Created with Sketch.</desc>
    <defs></defs>
    <g id="Category-icons" stroke="none" stroke-width="1" fill="none" fill-rule="evenodd">
        <g id="category_icon_coffee" fill-rule="nonzero" fill="#FFFFFF">
            <g id="caffe-mug" transform="translate(9.000000, 8.000000)">
                <path d="M3.98401662,6 C3.8546467,6 3.72527678,5.9579955 3.62622794,5.87484373 C3.42914096,5.70768297 3.42914096,5.43593956 3.62622794,5.2687788 C4.24477786,4.74415116 3.99109153,4.10808301 3.52515769,3.11283352 C3.09257703,2.18702004 2.55387261,1.0348966 3.62622794,0.125370575 C3.82331492,-0.0417901918 4.14370761,-0.0417901918 4.34079459,0.125370575 C4.53788158,0.292531343 4.53788158,0.564274744 4.34079459,0.731435511 C3.76873699,1.21748759 4.01534839,1.83298211 4.4661217,2.79651391 C4.90880938,3.74461549 5.46065294,4.92502768 4.34180529,5.87484373 C4.24275645,5.9579955 4.11338653,6 3.98401662,6 Z" id="Shape"></path>
                <path d="M6.98451414,6 C6.85507881,6 6.72564349,5.9579955 6.62654456,5.87484373 C6.42935793,5.70768297 6.42935793,5.43593956 6.62654456,5.2687788 C7.24540722,4.74415116 6.99159264,4.10808301 6.52542321,3.11283352 C6.09262384,2.18702004 5.55364704,1.0348966 6.62654456,0.125370575 C6.8237312,-0.0417901918 7.14428587,-0.0417901918 7.34147251,0.125370575 C7.53865914,0.292531343 7.53865914,0.564274744 7.34147251,0.731435511 C6.76811445,1.21748759 7.01485055,1.83298211 7.46585177,2.79651391 C7.90876328,3.74461549 8.46088585,4.92502768 7.34147251,5.87484373 C7.2433848,5.9579955 7.11394947,6 6.98451414,6 Z" id="Shape"></path>
                <path d="M9.98846526,6 C9.85851047,6 9.72855568,5.9579955 9.62905905,5.87484373 C9.43108106,5.70768297 9.43108106,5.43593956 9.62905905,5.2687788 C10.2504054,4.74415116 9.99557216,4.10808301 9.52753188,3.11283352 C9.09299556,2.18702004 8.55185571,1.0348966 9.62905905,0.125370575 C9.82703705,-0.0417901918 10.1488782,-0.0417901918 10.3468562,0.125370575 C10.5448342,0.292531343 10.5448342,0.564274744 10.3468562,0.731435511 C9.7711971,1.21748759 10.0189234,1.83298211 10.4717346,2.79651391 C10.9164236,3.74461549 11.470762,4.92502768 10.3468562,5.87484373 C10.2483748,5.9579955 10.11842,6 9.98846526,6 Z" id="Shape"></path>
                <path d="M14.6428571,16 L0.357142857,16 C0.16,16 0,16.1493333 0,16.3333333 C0,17.252 0.801428571,18 1.78571429,18 L13.2142857,18 C14.1985714,18 15,17.252 15,16.3333333 C15,16.1493333 14.84,16 14.6428571,16 Z" id="Shape"></path>
                <path d="M11.4669471,15 C11.6950734,13.564 12.3082102,12.5824 12.9114944,11.6344 C13.6428628,10.4856 14.3999996,9.2976 14.3999996,7.4 C14.3999996,7.1792 14.2302312,7 14.0210523,7 L0.378947358,7 C0.169768417,7 0,7.1792 0,7.4 C0,9.2976 0.757136822,10.4856 1.48850522,11.6344 C2.09178942,12.5824 2.70492624,13.564 2.93305255,15 L11.4669471,15 Z" id="Shape"></path>
                <path d="M14.04875,8.02357863 C14.25575,8.02357863 14.04875,7.93368294 14.04875,8.10494967 C14.04875,8.21788642 13.9385205,8.82161811 13.9295205,8.92834955 C15.3263494,8.83582943 15.5227057,9.10033552 15.5306814,9.3460129 C15.566323,10.4438974 12.752329,12.8596579 11.347547,13.5898968 C11.334047,13.6438831 11.48375,13.9447727 11.4725,14 L12.299,14 C12.38825,14 12.47,13.9770403 12.53825,13.9292594 C14.01125,12.8973153 16.625,10.8532842 16.625,9.3460129 C16.625,8.31655095 15.79025,8.02357863 14.04875,8.02357863 Z" id="Shape"></path>
            </g>
        </g>
    </g>
</svg>