<?xml version="1.0" encoding="UTF-8"?>
<svg width="34px" height="34px" viewBox="0 0 34 34" version="1.1" xmlns="http://www.w3.org/2000/svg" xmlns:xlink="http://www.w3.org/1999/xlink">
    <!-- Generator: Sketch 46.2 (44496) - http://www.bohemiancoding.com/sketch -->
    <title>category_icon_playstore</title>
    <desc>Created with Sketch.</desc>
    <defs></defs>
    <g id="Category-icons" stroke="none" stroke-width="1" fill="none" fill-rule="evenodd">
        <g id="category_icon_playstore" fill-rule="nonzero" fill="#FFFFFF">
            <g id="play-store" transform="translate(8.076923, 7.500000)">
                <path d="M3.62887733,17.5056263 L12.7769588,12.4321159 L10.5431881,10.1179162 L3.50870136,17.3484427 L3.50870136,17.3484427 C3.47018925,17.3880281 3.47105931,17.4513386 3.51064469,17.4898507 C3.54226235,17.5206111 3.59030073,17.5270208 3.62887733,17.5056263 Z" id="Shape"></path>
                <path d="M0.923076923,1.69398508 L0.923076923,17.2782644 L0.923076923,17.2782644 C0.923076923,17.5544068 1.14693455,17.7782644 1.42307692,17.7782644 C1.55715531,17.7782644 1.68561602,17.7244149 1.77961625,17.6288065 L9.91538462,9.35384615 L1.77387667,1.33769932 L1.77387667,1.33769932 C1.57710548,1.14395797 1.26053252,1.14641414 1.06679117,1.34318533 C0.974696047,1.43672069 0.923076923,1.56272055 0.923076923,1.69398508 Z" id="Shape"></path>
                <path d="M17.4476921,8.62307692 L13.6009105,6.71422741 L11.2431438,9.23095458 L13.7938459,11.6923077 L17.4476921,9.64615385 C17.7399998,9.5 17.7399998,9.20769231 17.7399998,9.06153846 C17.7399998,8.91538462 17.7399998,8.76923077 17.4476921,8.62307692 Z" id="Shape"></path>
                <path d="M12.6575616,6.19076954 L2.58124726,0.653963862 L2.58124726,0.653963862 C2.53284471,0.627367283 2.47204591,0.645044511 2.44544933,0.693447057 C2.42370599,0.733017298 2.43117536,0.782249302 2.4636771,0.813589593 L10.4652539,8.52923108 L12.6575616,6.19076954 Z" id="Shape"></path>
            </g>
        </g>
    </g>
</svg>