<?xml version="1.0" encoding="UTF-8"?>
<svg width="34px" height="34px" viewBox="0 0 34 34" version="1.1" xmlns="http://www.w3.org/2000/svg" xmlns:xlink="http://www.w3.org/1999/xlink">
    <!-- Generator: Sketch 46.2 (44496) - http://www.bohemiancoding.com/sketch -->
    <title>category_icon_car</title>
    <desc>Created with Sketch.</desc>
    <defs></defs>
    <g id="Category-icons" stroke="none" stroke-width="1" fill="none" fill-rule="evenodd">
        <g id="category_icon_car" fill-rule="nonzero" fill="#FFFFFF">
            <g id="car.1" transform="translate(8.000000, 9.500000)">
                <path d="M2.76,8.76 C2.52,8.52 2.16,8.4 1.86,8.4 L0,8.4 C0,8.52 0,8.7 0,8.82 C0,9.3 0.06,9.78 0.06,10.2 L4.32,10.2 L2.76,8.76 Z" id="Shape"></path>
                <path d="M18,8.4 L16.14,8.4 C15.84,8.4 15.54,8.52 15.3,8.76 L13.68,10.2 L17.94,10.2 C18,9.78 18,9.36 18,8.82 C18,8.7 18,8.52 18,8.4 Z" id="Shape"></path>
                <polygon id="Shape" points="7.02 10.2 10.98 10.2 12.78 8.4 5.22 8.4"></polygon>
                <path d="M12.6,10.62 C12.54,10.5 12.6,10.38 12.66,10.26 L14.82,8.28 C15.12,7.92 15.6,7.74 16.08,7.74 L17.88,7.74 C17.7,6.72 17.28,6.06 16.44,5.64 C16.44,5.58 16.44,5.58 16.44,5.52 C16.14,4.8 14.58,1.26 14.1,0.84 C13.5,0.3 11.7,-1.77635684e-15 9.36,-1.77635684e-15 L8.58,-1.77635684e-15 C6.24,-1.77635684e-15 4.44,0.3 3.84,0.84 C3.36,1.26 1.8,4.86 1.5,5.52 C1.5,5.58 1.5,5.58 1.5,5.64 C0.72,6.12 0.24,6.78 0.06,7.74 L1.86,7.74 C2.34,7.74 2.82,7.92 3.12,8.28 L5.28,10.2 C5.4,10.38 5.4,10.5 5.4,10.62 C5.4,10.74 5.22,10.8 5.1,10.8 L0.12,10.8 C0.18,11.4 0.3,11.76 0.3,11.76 C0.36,11.88 0.48,12 0.6,12 L0.6,13.32 C0.6,13.92 1.08,14.4 1.68,14.4 L3.78,14.4 C4.38,14.4 4.86,13.92 4.86,13.32 L4.86,12.24 L5.58,12.6 C5.64,12.6 5.64,12.6 5.7,12.6 L12.3,12.6 C12.36,12.6 12.36,12.6 12.42,12.6 L13.2,12.3 L13.2,13.38 C13.2,13.98 13.68,14.46 14.28,14.46 L16.38,14.46 C16.98,14.46 17.46,13.98 17.46,13.38 L17.46,12 C17.58,12 17.7,11.88 17.76,11.76 C17.76,11.76 17.88,11.34 17.94,10.8 L12.96,10.8 C12.78,10.8 12.66,10.74 12.6,10.62 Z M2.28,5.34 C3.12,3.42 4.02,1.5 4.26,1.26 C4.68,0.96 6.18,0.6 8.64,0.6 L9.42,0.6 C11.88,0.6 13.38,0.96 13.74,1.32 C13.98,1.56 14.94,3.48 15.72,5.4 C14.52,5.04 12.3,4.86 9,4.86 C5.7,4.86 3.48,4.98 2.28,5.34 Z M11.34,10.74 C11.28,10.8 11.22,10.8 11.1,10.8 L6.9,10.8 C6.84,10.8 6.72,10.74 6.66,10.74 L4.26,8.34 C4.2,8.22 4.2,8.1 4.2,7.98 C4.2,7.86 4.38,7.8 4.5,7.8 L13.5,7.8 C13.62,7.8 13.74,7.86 13.8,7.98 C13.86,8.1 13.8,8.22 13.74,8.28 L11.34,10.74 Z" id="Shape"></path>
            </g>
        </g>
    </g>
</svg>