<?xml version="1.0" encoding="UTF-8"?>
<svg width="60px" height="60px" viewBox="0 0 60 60" version="1.1" xmlns="http://www.w3.org/2000/svg" xmlns:xlink="http://www.w3.org/1999/xlink">
    <!-- Generator: Sketch 49.1 (51147) - http://www.bohemiancoding.com/sketch -->
    <title>category_icon_jewelry</title>
    <desc>Created with Sketch.</desc>
    <defs></defs>
    <g id="category_icon_jewelry" stroke="none" stroke-width="1" fill="none" fill-rule="evenodd">
        <g id="diamond" transform="translate(12.000000, 14.000000)" fill="#FFFFFF" fill-rule="nonzero">
            <path d="M19.374,0 L30.348,0 L24.762,9.32207278 L19.374,0 Z M12.624,10.0093838 L18,0.708998019 L23.376,10.0093838 L12.624,10.0093838 Z M23.721,11.6776144 L18,31.4728391 L12.279,11.6776144 L23.721,11.6776144 Z M9.849,10.0093838 L0.2865,10.0093838 L4.3845,0.894171619 L9.849,10.0093838 Z M11.238,9.32207278 L5.6505,0 L16.626,0 L11.238,9.32207278 Z M26.151,10.0093838 L31.6155,0.894171619 L35.7135,10.0093838 L26.151,10.0093838 Z M25.2975,11.6776144 L35.5875,11.6776144 L19.4235,32 L25.2975,11.6776144 Z M10.7025,11.6776144 L16.5765,32 L0.4125,11.6776144 L10.7025,11.6776144 Z" id="Combined-Shape"></path>
        </g>
    </g>
</svg>