<?xml version="1.0" encoding="UTF-8"?>
<svg width="34px" height="34px" viewBox="0 0 34 34" version="1.1" xmlns="http://www.w3.org/2000/svg" xmlns:xlink="http://www.w3.org/1999/xlink">
    <!-- Generator: Sketch 46.2 (44496) - http://www.bohemiancoding.com/sketch -->
    <title>category_icon_subscription</title>
    <desc>Created with Sketch.</desc>
    <defs></defs>
    <g id="Category-icons" stroke="none" stroke-width="1" fill="none" fill-rule="evenodd">
        <g id="category_icon_subscription" fill-rule="nonzero" fill="#FFFFFF">
            <g id="note-pencil.1" transform="translate(9.000000, 8.000000)">
                <path d="M7.83375,10.38675 C8.256,10.5015 8.784,10.72275 9.31875,11.169 C10.2645,11.95725 10.53225,12.852 10.60275,13.179 L16.1265,7.65525 L13.3455,4.875 L7.83375,10.38675 Z M16.0335,3 C15.5085,3 15.01575,3.204 14.64375,3.576 L13.875,4.34475 L16.656,7.125 L17.42475,6.35625 C17.79525,5.985 18,5.4915 18,4.96575 C18,3.88125 17.11875,3 16.0335,3 Z M6.8595,14.1405 C6.9315,14.21175 7.0275,14.25 7.125,14.25 C7.15575,14.25 7.18575,14.24625 7.21575,14.23875 L9.9405,13.55775 C9.91125,13.512 9.88875,13.461 9.882,13.40325 C9.8775,13.3695 9.75225,12.507 8.83725,11.745 C8.30325,11.2995 7.78875,11.1285 7.4415,11.061 L6.7605,13.7835 C6.729,13.91175 6.76725,14.04675 6.8595,14.1405 Z M14.76825,10.3995 C14.62875,10.341 14.4675,10.37325 14.3595,10.4805 L10.92,13.92 C10.776,14.064 10.59525,14.16675 10.398,14.21625 L7.39875,14.96625 C7.01175,15.0615 6.606,14.9475 6.33,14.67 C6.0525,14.3925 5.93925,13.983 6.03375,13.602 L6.78375,10.602 C6.8325,10.404 6.93525,10.224 7.08,10.07925 L14.115,3.045 C14.29575,2.8635 14.5185,2.70525 14.79675,2.56275 C14.922,2.49825 15,2.37 15,2.229 L15,1.125 C15,0.50475 14.4945,0 13.875,0 L1.125,0 C0.504,0 0,0.50475 0,1.125 L0,3.75 L2.625,3.75 C2.832,3.75 3,3.582 3,3.375 C3,3.168 2.832,3 2.625,3 L1.56825,3 C1.72425,2.56425 2.13675,2.25 2.625,2.25 C3.2445,2.25 3.75,2.75475 3.75,3.375 C3.75,3.99525 3.2445,4.5 2.625,4.5 L0,4.5 L0,7.5 L2.625,7.5 C2.832,7.5 3,7.332 3,7.125 C3,6.918 2.832,6.75 2.625,6.75 L1.569,6.75 C1.72425,6.31425 2.13675,6 2.625,6 C3.246,6 3.75,6.50475 3.75,7.125 C3.75,7.74525 3.246,8.25 2.625,8.25 L0,8.25 L0,11.25 L2.625,11.25 C2.832,11.25 3,11.082 3,10.875 C3,10.668 2.832,10.5 2.625,10.5 L1.569,10.5 C1.72425,10.06425 2.13675,9.75 2.625,9.75 C3.246,9.75 3.75,10.25475 3.75,10.875 C3.75,11.49525 3.246,12 2.625,12 L0,12 L0,15 L2.625,15 C2.832,15 3,14.832 3,14.625 C3,14.418 2.832,14.25 2.625,14.25 L1.569,14.25 C1.72425,13.81425 2.13675,13.5 2.625,13.5 C3.246,13.5 3.75,14.00475 3.75,14.625 C3.75,15.24525 3.246,15.75 2.625,15.75 L0,15.75 L0,16.875 C0,17.49525 0.5055,18 1.125,18 L13.875,18 C14.49525,18 15,17.49525 15,16.875 L15,10.746 C15,10.5945 14.9085,10.45725 14.76825,10.3995 Z M5.25,4.5 L10.125,4.5 C10.332,4.5 10.5,4.668 10.5,4.875 C10.5,5.082 10.332,5.25 10.125,5.25 L5.25,5.25 C5.043,5.25 4.875,5.082 4.875,4.875 C4.875,4.668 5.043,4.5 5.25,4.5 Z M5.25,7.5 L7.7775,7.5 C7.9845,7.5 8.1525,7.668 8.1525,7.875 C8.1525,8.082 7.9845,8.25 7.7775,8.25 L5.25,8.25 C5.043,8.25 4.875,8.082 4.875,7.875 C4.875,7.668 5.043,7.5 5.25,7.5 Z M5.3085,14.25 L5.28675,14.25 C5.07975,14.25 4.91175,14.082 4.91175,13.875 C4.91175,13.668 5.07975,13.5 5.28675,13.5 C5.49375,13.5 5.673,13.668 5.673,13.875 C5.673,14.082 5.5155,14.25 5.3085,14.25 Z M5.25,11.25 C5.043,11.25 4.875,11.082 4.875,10.875 C4.875,10.668 5.043,10.5 5.25,10.5 L6,10.5 C6.207,10.5 6.375,10.668 6.375,10.875 C6.375,11.082 6.207,11.25 6,11.25 L5.25,11.25 Z" id="Shape"></path>
            </g>
        </g>
    </g>
</svg>