<?xml version="1.0" encoding="UTF-8"?>
<svg width="34px" height="34px" viewBox="0 0 34 34" version="1.1" xmlns="http://www.w3.org/2000/svg" xmlns:xlink="http://www.w3.org/1999/xlink">
    <!-- Generator: Sketch 46.2 (44496) - http://www.bohemiancoding.com/sketch -->
    <title>category_icon_book</title>
    <desc>Created with Sketch.</desc>
    <defs></defs>
    <g id="Category-icons" stroke="none" stroke-width="1" fill="none" fill-rule="evenodd">
        <g id="category_icon_book" fill-rule="nonzero" fill="#FFFFFF">
            <g id="book-open-5" transform="translate(8.000000, 9.000000)">
                <path d="M0.4944,1.51971832 C0.3786,1.48071832 0.2544,1.50051832 0.156,1.57071832 C0.057,1.64151832 0,1.75431832 0,1.87551832 L0,13.1255183 C0,13.2869183 0.1038,13.4303183 0.2562,13.4813183 L6.0018,15.3971183 C6.0018,15.3919183 6.001,11.3849183 5.9994,3.37611832 C5.9994,3.37171832 4.1644,2.75291832 0.4944,1.51971832 Z M17.8488,1.57112266 C17.7504,1.50032266 17.6244,1.48052266 17.5104,1.52012266 L12,3.35672266 C12,3.36332266 12.0036,3.36872266 12.0036,3.37532266 L12.0036,15.3753227 C12.0036,15.3831227 12.0012,15.3891227 12.0012,15.3963227 L17.7468,13.4805227 C17.8998,13.4295227 18.003,13.2861227 18.003,13.1247227 L18.003,1.87472266 C18.0036,1.75412266 17.9466,1.64072266 17.8476,1.56992266 L17.8488,1.57112266 Z M10.2978,3.7794 C10.2798,3.7914 10.2606,3.8004 10.2444,3.8154 C10.2264,3.8328 10.2144,3.8538 10.1994,3.8742 C10.1856,3.8928 10.1712,3.9102 10.161,3.9312 C10.1514,3.9516 10.1484,3.975 10.143,3.9972 C10.1364,4.023 10.1286,4.0464 10.128,4.0734 C10.125,4.2954 9.957,4.4634 9.75,4.4634 L9.4608,4.4634 C10.0416,3.0204 13.7784,1.647 16.2108,1.0788 C16.4124,1.0314 16.5378,0.8298 16.4904,0.6282 C16.443,0.4266 16.2396,0.3006 16.0398,0.3486 C15.3882,0.501 10.401,1.728 9.0006,3.7674 C7.5996,1.7274 2.6118,0.5004 1.9614,0.3486 C1.7604,0.3006 1.5588,0.4266 1.5114,0.6282 C1.4634,0.8298 1.5894,1.032 1.791,1.0788 C4.2234,1.647 7.9602,3.0204 8.541,4.4634 L8.2518,4.4634 C8.0448,4.4634 7.8768,4.2954 7.8768,4.0884 C7.8732,4.047 7.8648,4.0224 7.8588,3.9972 C7.8528,3.975 7.8498,3.9522 7.8408,3.9312 C7.8306,3.9102 7.815,3.8928 7.8024,3.8742 C7.788,3.8538 7.7754,3.8328 7.7574,3.8154 C7.7418,3.801 7.722,3.7914 7.704,3.7794 C7.6806,3.7644 7.659,3.7488 7.6326,3.7386 C7.6294,3.7378 7.4184327,3.65826667 6.99969809,3.5 L6.99969809,15.5 L6.99969809,15.5 C6.99969809,16.0522847 7.44741334,16.5 7.99969809,16.5 L10,16.5 L10,16.5 C10.5522847,16.5 11,16.0522847 11,15.5 L11,3.5 L10.3836,3.732 C10.3428,3.7482 10.3212,3.7644 10.2978,3.7794 Z" id="Shape"></path>
            </g>
        </g>
    </g>
</svg>