<?xml version="1.0" encoding="UTF-8"?>
<svg width="34px" height="34px" viewBox="0 0 34 34" version="1.1" xmlns="http://www.w3.org/2000/svg" xmlns:xlink="http://www.w3.org/1999/xlink">
    <!-- Generator: Sketch 46.2 (44496) - http://www.bohemiancoding.com/sketch -->
    <title>category_icon_parking</title>
    <desc>Created with Sketch.</desc>
    <defs></defs>
    <g id="Category-icons" stroke="none" stroke-width="1" fill="none" fill-rule="evenodd">
        <g id="category_icon_parking" fill="#FFFFFF">
            <g id="personal-use" transform="translate(8.000000, 8.000000)">
                <path d="M9,0 C13.9625217,0 18,4.03747826 18,9 C18,13.9625217 13.9625217,18 9,18 C4.03747826,18 0,13.9625217 0,9 C0,4.03747826 4.03747826,0 9,0 Z M12.4971162,8.5 L12.4971162,7.5 C12.4971162,6.122 11.376655,5 9.99831776,5 L6.99975968,5 C6.72389234,5 6.5,5.224 6.5,5.5 L6.5,13.5 C6.5,13.776 6.72389234,14 6.99975968,14 C7.27562702,14 7.49951936,13.776 7.49951936,13.5 L7.49951936,11 L9.99831776,11 C11.376655,11 12.4971162,9.878 12.4971162,8.5 Z M9.9987984,6 C10.8254009,6 11.4980774,6.673 11.4980774,7.5 L11.4980774,8.5 C11.4980774,9.327 10.8254009,10 9.9987984,10 L7.5,10 L7.5,6 L9.9987984,6 Z" id="Combined-Shape"></path>
            </g>
        </g>
    </g>
</svg>