<?xml version="1.0" encoding="UTF-8"?>
<svg width="34px" height="34px" viewBox="0 0 34 34" version="1.1" xmlns="http://www.w3.org/2000/svg" xmlns:xlink="http://www.w3.org/1999/xlink">
    <!-- Generator: Sketch 46.2 (44496) - http://www.bohemiancoding.com/sketch -->
    <title>category_icon_itunes</title>
    <desc>Created with Sketch.</desc>
    <defs></defs>
    <g id="Category-icons" stroke="none" stroke-width="1" fill="none" fill-rule="evenodd">
        <g id="category_icon_itunes" fill-rule="nonzero" fill="#FFFFFF">
            <path d="M23.0296592,7.51877951 C23.0296592,6.8208241 22.5894214,6.94364365 22.1041505,7.02452213 C21.9603665,7.05148162 14.4839294,8.39774347 12.273251,8.84706836 C11.8508856,8.92794684 11.5723042,9.16159578 11.4644662,9.59294767 L11.4644662,9.99937445 C11.4644662,13.5670141 11.5065182,16.7282269 11.5065182,20.2958666 C11.5005272,20.5055515 11.4795587,20.6613175 11.4436127,20.7631644 C11.3357747,21.0417459 11.1200988,21.2035028 10.8325308,21.2664083 C10.5180034,21.3293138 10.203476,21.3922193 9.89793507,21.4641113 C9.33178571,21.5899222 9.25369014,21.7067467 8.74145977,21.9943146 C8.12139142,22.3447881 7.75294501,22.8660049 7.67206653,23.5849248 C7.65409353,24.0042946 7.67805753,24.3128311 7.74395851,24.510534 C7.75294501,24.54648 7.75294501,24.582426 7.770918,24.618372 C8.1932834,25.8495222 9.45139309,26.1999956 10.4938268,25.9663467 C10.6825433,25.9573602 10.8622732,25.9124277 11.0420032,25.8674952 C12.1024099,25.5979003 12.8543467,24.875867 12.9920732,23.8724927 C13.0187529,23.6781242 12.9788031,22.4445581 12.9920732,21.0158193 C13.019498,18.0631157 12.9920732,13.915662 12.9920732,13.8127083 C13.0010597,13.4442619 13.2436952,13.2594388 13.6031551,13.1695738 C13.7379525,13.1336278 20.2916313,11.7295188 20.8218346,11.6216808 C21.208254,11.5408024 21.3789975,11.6486403 21.459876,12.0350597 C21.459876,12.2996728 21.459876,13.6852436 21.459876,15 C21.459876,16.5875142 21.459876,18.14343 21.459876,18.4334462 C21.447894,18.5532662 21.4389075,18.6431311 21.4329165,18.7030411 C21.334065,19.044528 20.9517981,19.2551456 20.6192977,19.3270376 C20.3317297,19.3899431 20.0351753,19.4438621 19.7476074,19.5067676 C19.1724715,19.623592 19.1475927,19.749403 18.6263758,20.0369709 C17.979348,20.3874444 17.6109016,20.9266342 17.5120501,21.663527 C17.4491446,21.879203 17.4850906,22.0858924 17.5120501,22.3015684 C17.6378611,23.1642722 18.4286729,23.937111 19.2913767,24.0539355 C19.875499,24.1348139 20.4326619,24.044949 20.9898248,23.9101515 C22.2479345,23.5956241 22.9847267,22.569782 23.0296592,21.5722808 C23.0296592,16.8736965 23.0296592,8.21673491 23.0296592,7.51877951 Z" id="Shape"></path>
        </g>
    </g>
</svg>