<?xml version="1.0" encoding="UTF-8"?>
<svg width="34px" height="34px" viewBox="0 0 34 34" version="1.1" xmlns="http://www.w3.org/2000/svg" xmlns:xlink="http://www.w3.org/1999/xlink">
    <!-- Generator: Sketch 46.2 (44496) - http://www.bohemiancoding.com/sketch -->
    <title>category_icon_card</title>
    <desc>Created with Sketch.</desc>
    <defs></defs>
    <g id="Category-icons" stroke="none" stroke-width="1" fill="none" fill-rule="evenodd">
        <g id="category_icon_card" fill-rule="nonzero" fill="#FFFFFF">
            <g id="credit-card" transform="translate(8.000000, 11.000000)">
                <rect id="Rectangle-path" x="0" y="3" width="18" height="2"></rect>
                <path d="M1.5,12 L16.5,12 L16.5,12 C17.3284271,12 18,11.3284271 18,10.5 L18,6 L0,6 L1.51961776e-15,10.5 L2.22044605e-15,10.5 C2.32189911e-15,11.3284271 0.671572875,12 1.5,12 Z M1.9,7.5 L4.1,7.5 L4.1,7.5 C4.37614237,7.5 4.6,7.72385763 4.6,8 L4.6,8 L4.6,8 C4.6,8.27614237 4.37614237,8.5 4.1,8.5 L1.9,8.5 L1.9,8.5 C1.62385763,8.5 1.4,8.27614237 1.4,8 L1.4,8 L1.4,8 C1.4,7.72385763 1.62385763,7.5 1.9,7.5 Z M1.93750035,9 L7.06250525,9 L7.06250525,9 C7.33864762,9 7.56250525,9.22385763 7.56250525,9.5 L7.56250525,9.5 L7.56250525,9.5 C7.56250525,9.77614237 7.33864762,10 7.06250525,10 L1.93750035,10 L1.93750035,10 C1.66135797,10 1.43750035,9.77614237 1.43750035,9.5 L1.43750035,9.5 L1.43750035,9.5 C1.43750035,9.22385763 1.66135797,9 1.93750035,9 Z" id="Shape"></path>
                <path d="M16.5,-4.21955058e-17 L1.5,-4.21955058e-17 L1.5,-7.77156117e-15 C0.671572875,-7.61938158e-15 3.45126062e-15,0.671572875 3.55271368e-15,1.5 L1.42108547e-14,2.02860838 L18,2.02860838 L18,1.5 L18,1.5 C18,0.671572875 17.3284271,-5.96268804e-16 16.5,-4.4408921e-16 Z" id="Shape"></path>
            </g>
        </g>
    </g>
</svg>