<?xml version="1.0" encoding="UTF-8"?>
<svg width="34px" height="34px" viewBox="0 0 34 34" version="1.1" xmlns="http://www.w3.org/2000/svg" xmlns:xlink="http://www.w3.org/1999/xlink">
    <!-- Generator: Sketch 46.2 (44496) - http://www.bohemiancoding.com/sketch -->
    <title>category_icon_cigarets</title>
    <desc>Created with Sketch.</desc>
    <defs></defs>
    <g id="Category-icons" stroke="none" stroke-width="1" fill="none" fill-rule="evenodd">
        <g id="category_icon_cigarets">
            <g id="cigarettes-package" transform="translate(11.976239, 7.999928)"></g>
            <path d="M15.9376663,10.4067172 L15.9376663,12.3314018 L14.9397917,12.3314018 L14.9397917,10.4067172 L15.9376663,10.4067172 Z M17.508902,10.4067172 L17.508902,12.3314018 L16.5110274,12.3314018 L16.5110274,10.4067172 L17.508902,10.4067172 Z M19.1909404,10.4067172 L19.1909404,12.3314018 L18.1930659,12.3314018 L18.1930659,10.4067172 L19.1909404,10.4067172 Z M20.7694162,10.4067172 L20.7694162,12.3314018 L19.7715416,12.3314018 L19.7715416,10.4067172 L20.7694162,10.4067172 Z M13.2525319,8 L14.2504065,8 L14.2504065,9.69608193 L14.2504065,12.3314018 L13.2525319,12.3314018 L13.2525319,8 Z M13.054763,12.8162787 L20.9844176,12.8162787 C21.6051448,12.8162787 21.9990895,12.4278395 21.9990895,11.8300812 L21.9990895,20.0105584 L17.377268,16.3678469 C17.1679334,16.2028172 16.8541809,16.2029164 16.6448464,16.3678469 L12,20 L12,11.8300812 C11.9919008,12.3475028 12.3339662,12.8162787 13.054763,12.8162787 Z M12.0064576,24.9303192 L12.0283887,21.1651013 L17.016615,17.233811 L22.0046196,21.1651013 L22.0046196,24.9361438 L22.0046196,24.9361438 C22.0046196,25.4884285 21.5569044,25.9361438 21.0046196,25.9361438 L13.0064407,25.9361438 L13.0064407,25.9361438 C12.4541559,25.9361438 12.0064407,25.4884285 12.0064407,24.9361438 C12.0064407,24.9342023 12.0064463,24.9322607 12.0064576,24.9303192 Z" id="Shape" fill="#FFFFFF" fill-rule="nonzero"></path>
        </g>
    </g>
</svg>