<?xml version="1.0" encoding="UTF-8"?>
<svg width="60px" height="60px" viewBox="0 0 60 60" version="1.1" xmlns="http://www.w3.org/2000/svg" xmlns:xlink="http://www.w3.org/1999/xlink">
    <!-- Generator: Sketch 49.1 (51147) - http://www.bohemiancoding.com/sketch -->
    <title>category_icon_dummy</title>
    <desc>Created with Sketch.</desc>
    <defs></defs>
    <g id="category_icon_dummy" stroke="none" stroke-width="1" fill="none" fill-rule="evenodd">
        <g id="Group-50" transform="translate(12.000000, 12.000000)" fill="#FFFFFF">
            <path d="M16.9773203,23.2653203 L13.594949,26.6476917 C13.8571951,27.3828648 14,28.1747555 14,29 C14,32.8659932 10.8659932,36 7,36 C3.13400675,36 0,32.8659932 0,29 C0,25.1340068 3.13400675,22 7,22 C7.82524454,22 8.61713522,22.1428049 9.35230834,22.405051 L12.7346797,19.0226797 L5.856,12.144 C5.172,11.472 4.8,10.56 4.8,9.6 C4.8,7.62 6.42,6 8.4,6 C9.36,6 10.26,6.384 10.944,7.056 L28.944,25.056 C29.628,25.74 30,26.64 30,27.6 C30,29.592 28.38,31.2 26.4,31.2 C25.44,31.2 24.54,30.828 23.856,30.144 L16.9773203,23.2653203 Z M27.8717277,0 C32.3481675,0 36,3.65183246 36,8.12827225 C36,12.6164921 32.3481675,16.2565445 27.8717277,16.2565445 C26.776178,16.2565445 25.7395288,16.7748691 24.8206806,17.7997382 C24.7146597,17.9293194 24.5615183,18 24.3965969,18 L24.3848168,18 C24.2316754,18 24.078534,17.9410995 23.9725131,17.8232984 L18.1767016,12.039267 C18.0589005,11.921466 18,11.7683246 18,11.6034031 C18.0117801,11.4502618 18.0824607,11.2971204 18.2002618,11.1793194 C19.2251309,10.2604712 19.7434555,9.23560209 19.7434555,8.12827225 C19.7434555,3.65183246 23.3835079,0 27.8717277,0 Z M28.1165462,3.70447339 C28.4341016,3.70447339 29,3.44727919 29,2.76227112 C29,2.07726304 28.2963099,1.89043221 27.9787545,1.89043221 C24.9166129,1.89043221 22,4.71696744 22,7.77790432 C22,8.09533482 22.2056523,8.87043223 22.9739731,8.87043223 C23.7422938,8.87043223 24.0017746,8.09533482 24.0017746,7.77790432 C24.0017746,5.34049162 25.6781741,3.70447339 28.1165462,3.70447339 Z M6.51134021,33.2 C8.13195876,33.2 9.50515464,32.1360825 10,30.6639175 C9.77731959,30.7010309 9.55463918,30.7257732 9.31958763,30.7257732 C8.24329897,30.7257732 7.22886598,30.3051546 6.46185567,29.5505155 C5.49690722,28.585567 5.1257732,27.2494845 5.33608247,26 C3.86391753,26.4948454 2.8,27.8804124 2.8,29.4886598 C2.8,31.542268 4.47010309,33.2 6.51134021,33.2 Z" id="Combined-Shape"></path>
        </g>
    </g>
</svg>