<?xml version="1.0" encoding="UTF-8"?>
<svg width="34px" height="34px" viewBox="0 0 34 34" version="1.1" xmlns="http://www.w3.org/2000/svg" xmlns:xlink="http://www.w3.org/1999/xlink">
    <!-- Generator: Sketch 46.2 (44496) - http://www.bohemiancoding.com/sketch -->
    <title>category_icon_computer</title>
    <desc>Created with Sketch.</desc>
    <defs></defs>
    <g id="Category-icons" stroke="none" stroke-width="1" fill="none" fill-rule="evenodd">
        <g id="category_icon_computer" fill-rule="nonzero" fill="#FFFFFF">
            <g id="laptop-2" transform="translate(7.000000, 10.000000)">
                <path d="M19.3091938,11 L12.8897213,11 C12.8043423,11 12.722815,11.0359741 12.662472,11.0990984 L12.114891,11.6787563 L7.88702635,11.6787563 L7.33880339,11.0990984 C7.27846035,11.0352953 7.19693305,11 7.11155407,11 L0.692081529,11 C0.514904087,11 0.371107902,11.1520414 0.371107902,11.3393782 L0.371107902,12.0181345 C0.371107902,12.6269567 0.84320552,13.036269 1.37702813,13.036269 L18.7079081,13.036269 C19.1816598,13.036269 19.6288836,12.5819764 19.6288836,12.0181345 L19.6288836,11.3393782 C19.6301675,11.1520414 19.4863713,11 19.3091938,11 Z M2.30646956,10.0755765 L7.22954397,10.0755765 C7.47262077,10.0755765 7.71015911,10.1830156 7.88246671,10.3703627 L8.13723581,10.6483615 C8.19508193,10.711482 8.27323574,10.7463998 8.35508185,10.7463998 L11.6436956,10.7463998 C11.7255417,10.7463998 11.8036955,10.7108105 11.8615416,10.6483615 L12.1163107,10.3703627 C12.2880029,10.1830156 12.5261566,10.0755765 12.7692334,10.0755765 L17.6923078,10.0755765 C17.8621539,10.0755765 18,9.92516165 18,9.73982909 L18,1.68189171 C18,0.756571905 17.3101542,0.00315476057 16.4615392,0.00315476057 L3.53846893,0.00315476057 C2.68985398,0.00315476057 2.00000818,0.756571905 2.00000818,1.68189171 L2.00000818,9.73982909 C1.99877741,9.92516165 2.13662349,10.0755765 2.30646956,10.0755765 Z M3,1.92397556 C3,1.41455704 3.39258333,1 3.875,1 L16.125,1 C16.6074167,1 17,1.41455704 17,1.92397556 L17,9.00778822 L12.625,9.00778822 C12.2353333,9.00778822 11.8695833,9.16794399 11.5936667,9.4586883 L11.4379167,9.62377193 L8.56208333,9.62377193 L8.40575,9.4586883 C8.12983333,9.16794399 7.76408333,9.00778822 7.37441667,9.00778822 L3,9.00778822 L3,1.92397556 Z" id="Shape"></path>
            </g>
        </g>
    </g>
</svg>