<?xml version="1.0" encoding="UTF-8"?>
<svg width="34px" height="34px" viewBox="0 0 34 34" version="1.1" xmlns="http://www.w3.org/2000/svg" xmlns:xlink="http://www.w3.org/1999/xlink">
    <!-- Generator: Sketch 46.2 (44496) - http://www.bohemiancoding.com/sketch -->
    <title>category_icon_drinks</title>
    <desc>Created with Sketch.</desc>
    <defs></defs>
    <g id="Category-icons" stroke="none" stroke-width="1" fill="none" fill-rule="evenodd">
        <g id="category_icon_drinks" fill-rule="nonzero" fill="#FFFFFF">
            <g id="coctail-glass.1" transform="translate(9.000000, 6.000000)">
                <path d="M16.2223276,0.105081364 C16.0822191,-0.0350271214 15.8720564,-0.0350271214 15.7319479,0.105081364 L12.29929,3.53773926 L11.5987476,4.23828169 L9.49712031,6.33990897 L8.30619818,7.5308311 L7.81581848,8.0212108 C7.53560151,7.88110232 7.18533029,7.74099383 6.83505908,7.74099383 C5.85429968,7.74099383 5.08370301,8.5115905 5.08370301,9.4923499 C5.08370301,10.4731093 5.85429968,11.243706 6.83505908,11.243706 C7.81581848,11.243706 8.58641515,10.4731093 8.58641515,9.4923499 C8.58641515,9.14207869 8.44630667,8.79180747 8.30619818,8.5115905 L8.79657788,8.0212108 C9.07679485,8.44153626 9.28695758,8.93191596 9.28695758,9.4923499 C9.28695758,10.8233805 8.16608969,11.9442484 6.83505908,11.9442484 C5.50402847,11.9442484 4.38316058,10.8233805 4.38316058,9.4923499 C4.38316058,8.16131929 5.50402847,7.0404514 6.83505908,7.0404514 C7.11527605,7.0404514 7.39549302,7.11050565 7.67570999,7.18055989 L8.51636091,6.33990897 L2.14142481,6.33990897 C1.72109936,5.42920382 1.3007739,4.72866139 1.09061117,4.23828169 L10.6179882,4.23828169 L11.3185306,3.53773926 L0.530177227,3.53773926 C0.390068742,3.53773926 0.320014499,3.6077935 0.249960256,3.67784775 C0.179906013,3.74790199 0.179906013,3.88801048 0.249960256,4.02811896 C0.249960256,4.02811896 0.810394198,5.28909533 1.65104511,6.83028867 C3.96283513,11.243706 5.85429968,13.6255502 7.18533029,13.9758214 L7.18533029,19.3235236 L4.03288937,19.3235236 C3.82272664,19.3235236 3.68261815,19.4636321 3.68261815,19.6737948 C3.68261815,19.8839576 3.82272664,20.0240661 4.03288937,20.0240661 L11.0383136,20.0240661 C11.2484764,20.0240661 11.3885849,19.8839576 11.3885849,19.6737948 C11.3885849,19.4636321 11.2484764,19.3235236 11.0383136,19.3235236 L7.88587272,19.3235236 L7.88587272,13.9758214 C9.21690334,13.6255502 11.1083679,11.243706 13.4201579,6.83028867 C14.2608088,5.28909533 14.8212428,4.02811896 14.8212428,4.02811896 C14.891297,3.88801048 14.891297,3.81795623 14.8212428,3.67784775 C14.7511885,3.6077935 14.6811343,3.53773926 14.5410258,3.53773926 L13.2800494,3.53773926 L16.1522734,0.665515307 C16.2923819,0.525406821 16.2923819,0.24518985 16.2223276,0.105081364 Z M13.9805918,4.23828169 C13.7704291,4.72866139 13.3501037,5.42920382 12.9297782,6.33990897 L10.4778797,6.33990897 L12.579507,4.23828169 L13.9805918,4.23828169 Z" id="Shape"></path>
            </g>
        </g>
    </g>
</svg>