<?xml version="1.0" encoding="UTF-8"?>
<svg width="34px" height="34px" viewBox="0 0 34 34" version="1.1" xmlns="http://www.w3.org/2000/svg" xmlns:xlink="http://www.w3.org/1999/xlink">
    <!-- Generator: Sketch 46.2 (44496) - http://www.bohemiancoding.com/sketch -->
    <title>category_icon_transport</title>
    <desc>Created with Sketch.</desc>
    <defs></defs>
    <g id="Category-icons" stroke="none" stroke-width="1" fill="none" fill-rule="evenodd">
        <g id="category_icon_transport" fill-rule="nonzero" fill="#FFFFFF">
            <g id="tram" transform="translate(10.000000, 8.000000)">
                <path d="M13.6181818,17.52 L11.5181818,14.94 C12.4727273,14.64 13.0454545,14.22 13.0454545,13.8 L12.3454545,4.08 C12.2818182,3.12 11.5181818,2.4 10.5636364,2.4 L7.44545455,2.4 L8.4,0.66 C10.1181818,0.78 10.6272727,1.14 10.6272727,1.14 C10.6909091,1.2 10.7545455,1.2 10.8181818,1.2 C10.8818182,1.2 11.0090909,1.14 11.0727273,1.08 C11.2,0.96 11.1363636,0.78 11.0090909,0.66 C10.9454545,0.6 10.0545455,0 7,0 C3.94545455,0 3.05454545,0.6 2.99090909,0.66 C2.86363636,0.78 2.8,0.96 2.92727273,1.08 C3.05454545,1.2 3.24545455,1.26 3.37272727,1.14 C3.37272727,1.14 3.88181818,0.78 5.6,0.66 L6.55454545,2.4 L3.43636364,2.4 C2.48181818,2.4 1.71818182,3.12 1.65454545,4.08 L0.954545455,13.8 C0.954545455,14.22 1.59090909,14.64 2.48181818,14.94 L0.381818182,17.52 C0.254545455,17.64 0.318181818,17.82 0.445454545,17.94 C0.509090909,18 0.572727273,18 0.636363636,18 C0.7,18 0.827272727,17.94 0.890909091,17.88 L1.27272727,17.4 L12.7272727,17.4 L13.1090909,17.88 C13.1727273,17.94 13.2363636,18 13.3636364,18 C13.4272727,18 13.4909091,18 13.5545455,17.94 C13.6818182,17.82 13.7454545,17.64 13.6181818,17.52 Z M7,0.6 C7.25454545,0.6 7.50909091,0.6 7.7,0.6 L7,1.92 L6.3,0.6 C6.49090909,0.6 6.74545455,0.6 7,0.6 Z M11.7727273,12 C11.7727273,12.66 11.2,13.2 10.5,13.2 C9.8,13.2 9.22727273,12.66 9.22727273,12 C9.22727273,11.34 9.8,10.8 10.5,10.8 C11.2,10.8 11.7727273,11.34 11.7727273,12 Z M3.11818182,4.62 C3.11818182,4.02 3.62727273,3.6 4.2,3.6 L9.86363636,3.6 C10.4363636,3.6 10.8818182,4.02 10.9454545,4.62 L11.2,8.52 C11.2,9.54 7.76363636,9.6 7.06363636,9.6 C6.36363636,9.6 2.92727273,9.54 2.92727273,8.52 L3.11818182,4.62 Z M8.59090909,12.3 C8.59090909,12.48 8.46363636,12.6 8.27272727,12.6 L5.72727273,12.6 C5.53636364,12.6 5.40909091,12.48 5.40909091,12.3 C5.40909091,12.12 5.53636364,12 5.72727273,12 L8.27272727,12 C8.46363636,12 8.59090909,12.12 8.59090909,12.3 Z M3.5,10.8 C4.2,10.8 4.77272727,11.34 4.77272727,12 C4.77272727,12.66 4.2,13.2 3.5,13.2 C2.8,13.2 2.22727273,12.66 2.22727273,12 C2.22727273,11.34 2.8,10.8 3.5,10.8 Z M7,15.6 C8.33636364,15.6 9.73636364,15.42 10.8818182,15.12 C10.8818182,15.12 10.8818182,15.12 10.8818182,15.18 L11.2,15.6 L7,15.6 L2.8,15.6 L3.11818182,15.18 C3.11818182,15.18 3.11818182,15.18 3.11818182,15.12 C4.26363636,15.42 5.66363636,15.6 7,15.6 Z M1.78181818,16.8 L2.29090909,16.2 L11.7090909,16.2 L12.2181818,16.8 L1.78181818,16.8 Z" id="Shape"></path>
                <ellipse id="Oval" cx="3.5" cy="12" rx="1" ry="1"></ellipse>
                <ellipse id="Oval" cx="10.5" cy="12" rx="1" ry="1"></ellipse>
            </g>
        </g>
    </g>
</svg>