<?xml version="1.0" encoding="UTF-8"?>
<svg width="34px" height="34px" viewBox="0 0 34 34" version="1.1" xmlns="http://www.w3.org/2000/svg" xmlns:xlink="http://www.w3.org/1999/xlink">
    <!-- Generator: Sketch 46.2 (44496) - http://www.bohemiancoding.com/sketch -->
    <title>category_icon_motorbike</title>
    <desc>Created with Sketch.</desc>
    <defs></defs>
    <g id="Category-icons" stroke="none" stroke-width="1" fill="none" fill-rule="evenodd">
        <g id="category_icon_motorbike" fill-rule="nonzero" fill="#FFFFFF">
            <g id="motorcycle" transform="translate(8.000000, 11.500000)">
                <path d="M15,10.5 C13.3455,10.5 12,9.1545 12,7.5 C12,5.8455 13.3455,4.5 15,4.5 C16.6545,4.5 18,5.8455 18,7.5 C18,9.1545 16.6545,10.5 15,10.5 Z M15,5.25 C13.7595,5.25 12.75,6.2595 12.75,7.5 C12.75,8.7405 13.7595,9.75 15,9.75 C16.2405,9.75 17.25,8.7405 17.25,7.5 C17.25,6.2595 16.2405,5.25 15,5.25 Z" id="Shape"></path>
                <path d="M3,10.5 C1.3455,10.5 0,9.1545 0,7.5 C0,6.32325 0.69675,5.25 1.7745,4.76625 C1.96275,4.68075 2.1855,4.76625 2.27025,4.9545 C2.355,5.1435 2.271,5.3655 2.082,5.45025 C1.27275,5.814 0.75,6.618 0.75,7.5 C0.75,8.7405 1.7595,9.75 3,9.75 C4.2405,9.75 5.25,8.7405 5.25,7.5 C5.25,7.33575 5.2275,7.16625 5.178,6.9645 C5.1285,6.76275 5.25225,6.56025 5.45325,6.5115 C5.652,6.462 5.85675,6.58575 5.90625,6.78675 C5.96925,7.04475 6,7.278 6,7.5 C6,9.1545 4.6545,10.5 3,10.5 Z" id="Shape"></path>
                <path d="M14.136,0.10575 C14.06325,0.03525 13.965,-0.0015 13.863,-3.4680917e-17 C13.596,0.00825 11.25,0.1215 11.25,1.5 C11.25,2.8785 13.596,2.99175 13.863,3 C13.86675,3 13.87125,3 13.875,3 C13.9725,3 14.06625,2.9625 14.136,2.89425 C14.20875,2.82375 14.25,2.72625 14.25,2.625 L14.25,0.375 C14.25,0.27375 14.20875,0.17625 14.136,0.10575 Z" id="Shape"></path>
                <path d="M11.625,1.5 C11.58525,1.5 11.54625,1.494 11.5065,1.4805 L9.2565,0.7305 C9.06,0.66525 8.95425,0.453 9.0195,0.2565 C9.08625,0.06 9.29925,-0.04425 9.49425,0.0195 L11.74425,0.7695 C11.94075,0.83475 12.0465,1.047 11.98125,1.2435 C11.928,1.401 11.78175,1.5 11.625,1.5 Z" id="Shape"></path>
                <path d="M15,7.875 C14.87025,7.875 14.7435,7.8075 14.67375,7.686 L11.67375,2.436 C11.571,2.256 11.63325,2.02725 11.814,1.9245 C11.991,1.82175 12.22125,1.8825 12.32625,2.064 L15.32625,7.314 C15.429,7.494 15.36675,7.72275 15.186,7.8255 C15.1275,7.85925 15.06375,7.875 15,7.875 Z" id="Shape"></path>
                <path d="M5.625,7.125 L5.15625,7.125 L4.04925,6.24 L4.08525,6.168 C4.1775,5.98275 4.1025,5.75775 3.91725,5.66475 C3.732,5.574 3.50775,5.6475 3.414,5.83275 L2.664,7.33275 C2.60625,7.449 2.61225,7.587 2.67975,7.69725 C2.7495,7.8075 2.87025,7.875 3,7.875 L5.625,7.875 C5.832,7.875 6,7.707 6,7.5 C6,7.293 5.832,7.125 5.625,7.125 Z" id="Shape"></path>
                <path d="M12.1065,1.91775 C11.99775,1.53 11.7105,1.5 11.625,1.5 C9.59925,1.5 7.6695,2.5395 6.57825,3.43425 C6.519,3.39675 6.45,3.375 6.375,3.375 C5.619,3.375 3.45975,3.009 3.438,3.00525 C3.32775,2.98575 3.2175,3.0165 3.1335,3.0885 C3.048,3.15975 3,3.26475 3,3.375 L3,3.75525 C1.77525,3.7905 0.9675,4.005 0.59475,4.39275 C0.381,4.6155 0.37275,4.83 0.375,4.89075 C0.384,5.09175 0.549,5.25 0.75,5.25 C2.26875,5.25 5.71425,7.36875 6.91425,8.18475 C6.9765,8.2275 7.04925,8.25 7.125,8.25 L10.125,8.25 C11.39925,8.25 12.1575,3.2925 12.1575,2.409 C12.1575,2.20275 12.14025,2.0415 12.1065,1.91775 Z" id="Shape"></path>
            </g>
        </g>
    </g>
</svg>