<?xml version="1.0" encoding="UTF-8"?>
<svg width="34px" height="34px" viewBox="0 0 34 34" version="1.1" xmlns="http://www.w3.org/2000/svg" xmlns:xlink="http://www.w3.org/1999/xlink">
    <!-- Generator: Sketch 46.2 (44496) - http://www.bohemiancoding.com/sketch -->
    <title>category_icon_entertainment</title>
    <desc>Created with Sketch.</desc>
    <defs></defs>
    <g id="Category-icons" stroke="none" stroke-width="1" fill="none" fill-rule="evenodd">
        <g id="category_icon_entertainment" fill-rule="nonzero" fill="#FFFFFF">
            <g id="theatre" transform="translate(8.000000, 8.000000)">
                <path d="M7.22386758,9.46061136 C7.33635851,9.36892778 7.40820053,9.22927151 7.40820053,9.07283563 C7.40820053,8.79669325 7.1843429,8.57283563 6.90820053,8.57283563 C6.75895879,8.57283563 6.62498883,8.63822187 6.53337511,8.74190988 L6.53088669,8.73943162 C6.16873183,9.10306225 5.66753904,9.32811463 5.11378244,9.32811463 C4.56120736,9.32811463 4.06097201,9.10402158 3.6989982,8.74175728 L3.69867404,8.74208117 C3.60705656,8.63829388 3.47302125,8.57283563 3.32369735,8.57283563 C3.04755498,8.57283563 2.82369735,8.79669325 2.82369735,9.07283563 C2.82369735,9.22201441 2.88902845,9.3559343 2.99264042,9.44754509 L2.99160607,9.4485786 C3.53456679,9.99197505 4.28491981,10.3281146 5.11378244,10.3281146 C5.93650973,10.3281146 6.68188538,9.99693293 7.22386758,9.46061136 Z M9.90375,1.5945 L10.49925,7.851 C10.50075,10.78125 8.145,13.13625 5.25075,13.13625 C2.3565,13.13625 0.00075,10.78125 0.00075,7.88625 L0.59775,1.59525 C0.66525,0.89325 1.2465,0.3645 1.95,0.3645 C2.15925,0.3645 2.361,0.41175 2.55225,0.5055 C4.248,1.34175 6.25125,1.34175 7.94925,0.5055 C8.13975,0.41175 8.34225,0.3645 8.5515,0.3645 C9.255,0.3645 9.83625,0.89325 9.90375,1.5945 Z M2.4443472,5.57521162 C2.51502539,5.57521162 2.582696,5.5451358 2.6298148,5.49200184 C2.82480641,5.27545588 3.17619232,5.27545588 3.37118394,5.49200184 C3.418804,5.5451358 3.48597334,5.57521162 3.55665154,5.57521162 C3.5571528,5.57521162 3.5571528,5.57521162 3.5571528,5.57521162 C3.62833226,5.57521162 3.69600287,5.54563706 3.74312167,5.4925031 C3.91054377,5.3070355 4.00327757,5.06943647 4.00327757,4.82331595 C4.00327757,4.27042199 3.55364396,3.82078838 3.00075,3.82078838 C2.44785604,3.82078838 1.99822243,4.27042199 1.99822243,4.82331595 C1.99822243,5.06993773 2.09095623,5.30753676 2.25837833,5.4925031 C2.30599839,5.5451358 2.37316774,5.57521162 2.4443472,5.57521162 Z M8.24066454,5.49049823 C8.4075325,5.30564449 8.49995937,5.06883187 8.49995937,4.82302637 C8.49995937,4.2719624 8.05181397,3.823817 7.50075,3.823817 C6.94968603,3.823817 6.50154063,4.2719624 6.50154063,4.82302637 C6.50154063,5.06883187 6.5939675,5.30564449 6.76033586,5.49049823 C6.8077983,5.54295672 6.87474533,5.572933 6.9456892,5.572933 C6.9456892,5.572933 6.9456892,5.572933 6.9461888,5.572933 C7.01663306,5.572933 7.08358009,5.54245711 7.13104253,5.48999862 C7.32538876,5.2741694 7.67561164,5.2741694 7.86995786,5.48999862 C7.91742031,5.54295672 7.98436733,5.572933 8.05481159,5.572933 C8.0553112,5.572933 8.0553112,5.572933 8.0553112,5.572933 C8.12625506,5.572933 8.19320209,5.54295672 8.24066454,5.49049823 Z" id="Combined-Shape"></path>
                <path d="M14.3330589,14.5812613 C14.433361,14.6765701 14.5725199,14.7300313 14.7211938,14.717024 C14.9962853,14.6929566 15.1997806,14.4504403 15.1757132,14.1753488 C15.162079,14.0195082 15.0783385,13.8866448 14.9582849,13.8051143 C14.3716216,13.3180705 13.6002179,13.0531128 12.7806213,13.1248182 C11.9549128,13.1970583 11.2367116,13.5973164 10.7431771,14.1859672 L10.7442976,14.1869066 C10.6490643,14.2871992 10.5956537,14.4263034 10.6086555,14.5749146 C10.6327229,14.8500061 10.8752391,15.0535014 11.1503307,15.029434 C11.2990864,15.0164196 11.4269066,14.9395285 11.5091298,14.8281512 L11.5094809,14.8284456 C11.8385039,14.4360117 12.3173047,14.169173 12.8677771,14.1210129 C13.4194265,14.0727498 13.9383267,14.253264 14.3307959,14.583947 L14.3330589,14.5812613 Z M10.8342545,10.0120538 C11.2215895,9.87419268 11.4996211,9.50392117 11.5000146,9.06981773 C11.5000146,8.82437729 11.4075371,8.58743479 11.2405776,8.40247968 C11.2375987,8.39918719 11.234543,8.39598322 11.2314145,8.39286961 C11.2485903,8.21656735 11.2545355,8.04744414 11.24925,7.8855 C11.24925,7.8495 11.24775,7.8135 11.244,7.77825 L11.0655,5.901 C11.05425,5.7825 11.1,5.6655 11.18925,5.586 C11.27775,5.5065 11.3985,5.4735 11.51625,5.49825 C11.9655,5.592 12.35775,5.6355 12.75,5.6355 C13.69275,5.6355 14.60025,5.42325 15.4485,5.0055 C15.639,4.91175 15.84225,4.86375 16.0515,4.86375 C16.755,4.86375 17.33625,5.39325 17.40375,6.0945 L17.99775,12.351 C17.99925,15.28125 15.6435,17.63625 12.74925,17.63625 C10.35975,17.63625 8.2725,16.02 7.67175,13.7055 C7.6275,13.533 7.71,13.35225 7.8705,13.27425 C9.11475,12.666 10.0695,11.679 10.64325,10.49625 C10.7129044,10.3310247 10.7765725,10.169626 10.8342545,10.0120538 Z M14.6997581,10.0727877 C15.2511243,10.0727877 15.6995155,9.62439652 15.7000154,9.07303033 C15.7000154,8.82758989 15.6075378,8.59064739 15.4405784,8.40569228 C15.3930899,8.35320502 15.3261061,8.3232123 15.2551234,8.3232123 C15.2551234,8.3232123 15.2551234,8.3232123 15.2546235,8.3232123 C15.1841406,8.3232123 15.1171568,8.3537049 15.0696684,8.40619216 C14.8752156,8.62213975 14.5248006,8.62213975 14.3303478,8.40619216 C14.2828593,8.35320502 14.2158756,8.3232123 14.1453927,8.3232123 C14.1448928,8.3232123 14.1448928,8.3232123 14.1448928,8.3232123 C14.07391,8.3232123 14.0069263,8.35320502 13.9594378,8.40569228 C13.7924783,8.59064739 13.7000008,8.82758989 13.7000008,9.07303033 C13.7000008,9.62439652 14.1483919,10.0727877 14.6997581,10.0727877 Z" id="Combined-Shape"></path>
            </g>
        </g>
    </g>
</svg>