<?xml version="1.0" encoding="UTF-8"?>
<svg width="34px" height="34px" viewBox="0 0 34 34" version="1.1" xmlns="http://www.w3.org/2000/svg" xmlns:xlink="http://www.w3.org/1999/xlink">
    <!-- Generator: Sketch 46.2 (44496) - http://www.bohemiancoding.com/sketch -->
    <title>category_icon_house</title>
    <desc>Created with Sketch.</desc>
    <defs></defs>
    <g id="Category-icons" stroke="none" stroke-width="1" fill="none" fill-rule="evenodd">
        <g id="category_icon_house" fill-rule="nonzero" fill="#FFFFFF">
            <g id="house.1" transform="translate(8.000000, 8.000000)">
                <path d="M12,2.47459013 L9.89640189,0.368514601 C9.41456243,-0.114642567 8.57153071,-0.115392811 8.08819253,0.368514601 L0.10974038,8.35636299 C0.00258168187,8.46364789 -0.0296408637,8.62495036 0.0288093352,8.765246 C0.0865101726,8.90554164 0.223643332,8.99707141 0.375014359,8.99707141 L1.49905665,8.99707141 L1.49905665,17.624878 C1.49905665,17.8319453 1.66691363,18 1.87373741,18 L6.36990655,18 C6.57673033,18 6.74458732,17.8319453 6.74458732,17.624878 L6.74458732,11.2478036 L11.2407565,11.2478036 L11.2407565,17.624878 C11.2407565,17.8319453 11.4086134,18 11.6154372,18 L16.1116064,18 C16.3184301,18 16.4862871,17.8319453 16.4862871,17.624878 L16.4862871,8.99632117 L17.617823,8.99632117 C17.8388847,8.99407043 18.0007468,8.83126748 17.9999974,8.62119914 C17.999248,8.48540497 17.9273093,8.36686641 17.8194013,8.30084493 L15,5.47812323 L15,1.50586533 C15,1.22972295 14.7761424,1.00586533 14.5,1.00586533 L12.5,1.00586533 C12.2238576,1.00586533 12,1.22972295 12,1.50586533 L12,2.47459013 Z" id="Combined-Shape"></path>
            </g>
        </g>
    </g>
</svg>