<?xml version="1.0" encoding="UTF-8"?>
<svg width="34px" height="34px" viewBox="0 0 34 34" version="1.1" xmlns="http://www.w3.org/2000/svg" xmlns:xlink="http://www.w3.org/1999/xlink">
    <!-- Generator: Sketch 46.2 (44496) - http://www.bohemiancoding.com/sketch -->
    <title>category_icon_rent</title>
    <desc>Created with Sketch.</desc>
    <defs></defs>
    <g id="Category-icons" stroke="none" stroke-width="1" fill="none" fill-rule="evenodd">
        <g id="category_icon_rent" fill-rule="nonzero" fill="#FFFFFF">
            <path d="M20,10.4687248 L20,9.5 C20,9.22385763 20.2238576,9 20.5,9 L22.5,9 C22.7761424,9 23,9.22385763 23,9.5 L23,13.4722579 L25.8194013,16.2949796 C25.9273093,16.3610011 25.999248,16.4795396 25.9999974,16.6153338 C26.0007468,16.8254021 25.8388847,16.9882051 25.617823,16.9904558 L24.4862871,16.9904558 L24.4862871,25.6190126 C24.4862871,25.82608 24.3184301,25.9941347 24.1116064,25.9941347 L9.87373741,25.9941347 C9.66691363,25.9941347 9.49905665,25.82608 9.49905665,25.6190126 L9.49905665,16.9912061 L8.37501436,16.9912061 C8.22364333,16.9912061 8.08651017,16.8996763 8.02880934,16.7593807 C7.97035914,16.619085 8.00258168,16.4577826 8.10974038,16.3504977 L16.0881925,8.36264927 C16.5715307,7.87874186 17.4145624,7.8794921 17.8964019,8.36264927 L20,10.4687248 Z M17.5,21.959 C18.64,21.773 19.5,20.966 19.5,20.001 C19.5,19.063 18.845,18.432 17.5,18.101 L17.5,16.062 C18.051,16.197 18.468,16.54 18.502,16.946 C18.525,17.221 18.775,17.433 19.042,17.402 C19.317,17.379 19.521,17.137 19.498,16.862 C19.42,15.936 18.594,15.21 17.5,15.039 L17.5,14.5 C17.5,14.224 17.276,14 17,14 C16.724,14 16.5,14.224 16.5,14.5 L16.5,15.041 C15.36,15.227 14.5,16.034 14.5,17 C14.5,17.936 15.155,18.568 16.5,18.899 L16.5,20.938 C15.949,20.804 15.532,20.46 15.498,20.054 C15.475,19.779 15.237,19.577 14.958,19.598 C14.683,19.621 14.479,19.863 14.502,20.138 C14.579,21.063 15.406,21.79 16.5,21.961 L16.5,22.5 C16.5,22.776 16.724,23 17,23 C17.276,23 17.5,22.776 17.5,22.5 L17.5,21.959 Z M17.5,19.133 C18.167,19.326 18.5,19.603 18.5,20 C18.5,20.425 18.075,20.795 17.5,20.936 L17.5,19.133 Z M15.5,17 C15.5,16.575 15.925,16.205 16.5,16.064 L16.5,17.867 C15.834,17.674 15.5,17.397 15.5,17 Z" id="Combined-Shape"></path>
        </g>
    </g>
</svg>