<?xml version="1.0" encoding="UTF-8"?>
<svg width="60px" height="60px" viewBox="0 0 60 60" version="1.1" xmlns="http://www.w3.org/2000/svg" xmlns:xlink="http://www.w3.org/1999/xlink">
    <!-- Generator: Sketch 49.1 (51147) - http://www.bohemiancoding.com/sketch -->
    <title>category_icon_shield</title>
    <desc>Created with Sketch.</desc>
    <defs></defs>
    <g id="category_icon_shield" stroke="none" stroke-width="1" fill="none" fill-rule="evenodd">
        <g id="Group-50" transform="translate(14.882353, 10.352941)" fill="#FFFFFF">
            <path d="M15.5488971,0.834558824 C18.8838971,4.15955882 25.2713971,5.64705882 29.4926471,5.64705882 C29.8376471,5.64705882 30.1176471,5.93455882 30.1176471,6.27205882 L30.1176471,21.2720588 C30.1176471,26.8720588 21.8017426,36.0095588 15.3079926,38.1220588 C15.2442426,38.1345588 15.1792426,38.1470588 15.1142426,38.1470588 C15.0492426,38.1470588 14.9842426,38.1345588 14.9204926,38.1220588 C8.54674262,36.0470588 0.117647059,26.9845588 0.117647059,21.2720588 L0.117647059,6.27205882 C0.117647059,5.93455882 0.397647059,5.64705882 0.742647059,5.64705882 C5.45889706,5.64705882 11.5301471,3.95955882 14.6663971,0.834558824 C14.9101471,0.584558824 15.3051471,0.584558824 15.5488971,0.834558824 Z M15.3733071,35.7316441 C20.8619071,33.4316441 28.1176471,24.8470588 28.1176471,21.2720588 L28.1176471,8.41786574 C28.1176471,8.10536574 27.8667471,7.83036574 27.5365471,7.80536574 C23.2140471,7.35536574 18.4352471,5.66293305 15.5076471,3.78793305 C15.2892471,3.63793305 15.0058471,3.63793305 14.7874471,3.78793305 C11.5686471,5.85043305 6.55064706,7.40536574 2.69874706,7.80536574 C2.36854706,7.83036574 2.11764706,8.10536574 2.11764706,8.41786574 L2.11764706,21.2720588 C2.11764706,24.8595588 9.34650711,33.4191441 14.8533071,35.7316441 C14.9365071,35.7691441 15.0249071,35.7816441 15.1133071,35.7816441 C15.2017071,35.7816441 15.2901071,35.7691441 15.3733071,35.7316441 Z M3.86764706,9.70710924 C3.86764706,9.70710924 11.9563971,8.09460924 15.1151471,6.14460924 C17.9351471,7.93210924 22.3826471,9.20710924 26.3676471,9.70710924 L26.3676471,21.1470588 C26.3676471,24.0345588 20.1676471,31.5684315 15.1176471,33.9434315 C10.0263971,31.5684315 3.86764706,23.9595588 3.86764706,21.1470588 L3.86764706,9.70710924 Z M16.0551471,24.9451838 C18.1926471,24.5964338 19.8051471,23.0833088 19.8051471,21.2739338 C19.8051471,19.5151838 18.5770221,18.3320588 16.0551471,17.7114338 L16.0551471,13.8883088 C17.0882721,14.1414338 17.8701471,14.7845588 17.9338971,15.5458088 C17.9770221,16.0614338 18.4457721,16.4589338 18.9463971,16.4008088 C19.4620221,16.3576838 19.8445221,15.9039338 19.8013971,15.3883088 C19.6551471,13.6520588 18.1063971,12.2908088 16.0551471,11.9701838 L16.0551471,10.9595588 C16.0551471,10.4420588 15.6351471,10.0220588 15.1176471,10.0220588 C14.6001471,10.0220588 14.1801471,10.4420588 14.1801471,10.9595588 L14.1801471,11.9739338 C12.0426471,12.3226838 10.4301471,13.8358088 10.4301471,15.6470588 C10.4301471,17.4020588 11.6582721,18.5870588 14.1801471,19.2076838 L14.1801471,23.0308088 C13.1470221,22.7795588 12.3651471,22.1345588 12.3013971,21.3733088 C12.2582721,20.8576838 11.8120221,20.4789338 11.2888971,20.5183088 C10.7732721,20.5614338 10.3907721,21.0151838 10.4338971,21.5308088 C10.5782721,23.2651838 12.1288971,24.6283088 14.1801471,24.9489338 L14.1801471,25.9595588 C14.1801471,26.4770588 14.6001471,26.8970588 15.1176471,26.8970588 C15.6351471,26.8970588 16.0551471,26.4770588 16.0551471,25.9595588 L16.0551471,24.9451838 Z M16.0551471,19.6464338 C17.3057721,20.0083088 17.9301471,20.5276838 17.9301471,21.2720588 C17.9301471,22.0689338 17.1332721,22.7626838 16.0551471,23.0270588 L16.0551471,19.6464338 Z M12.3051471,15.6470588 C12.3051471,14.8501838 13.1020221,14.1564338 14.1801471,13.8920588 L14.1801471,17.2726838 C12.9313971,16.9108088 12.3051471,16.3914338 12.3051471,15.6470588 Z" id="Combined-Shape"></path>
        </g>
    </g>
</svg>