<?xml version="1.0" encoding="UTF-8"?>
<svg width="60px" height="60px" viewBox="0 0 60 60" version="1.1" xmlns="http://www.w3.org/2000/svg" xmlns:xlink="http://www.w3.org/1999/xlink">
    <!-- Generator: Sketch 49.1 (51147) - http://www.bohemiancoding.com/sketch -->
    <title>category_icon_bank</title>
    <desc>Created with Sketch.</desc>
    <defs></defs>
    <g id="category_icon_bank" stroke="none" stroke-width="1" fill="none" fill-rule="evenodd">
        <path d="M18,24.5 L18,38.5 C18,38.7761424 18.2238576,39 18.5,39 L21.5,39 C21.7761424,39 22,38.7761424 22,38.5 L22,24.5 C22,24.2238576 21.7761424,24 21.5,24 L18.5,24 C18.2238576,24 18,24.2238576 18,24.5 Z M28,24.5 L28,38.5 C28,38.7761424 28.2238576,39 28.5,39 L31.5,39 C31.7761424,39 32,38.7761424 32,38.5 L32,24.5 C32,24.2238576 31.7761424,24 31.5,24 L28.5,24 C28.2238576,24 28,24.2238576 28,24.5 Z M13.5,47 L46.5,47 C46.7761424,47 47,46.7761424 47,46.5 L47,41.5 C47,41.2238576 46.7761424,41 46.5,41 L13.5,41 C13.2238576,41 13,41.2238576 13,41.5 L13,46.5 C13,46.7761424 13.2238576,47 13.5,47 Z M38,24.5 L38,38.5 C38,38.7761424 38.2238576,39 38.5,39 L41.5,39 C41.7761424,39 42,38.7761424 42,38.5 L42,24.5 C42,24.2238576 41.7761424,24 41.5,24 L38.5,24 C38.2238576,24 38,24.2238576 38,24.5 Z M29.7902291,11.0969529 L13.2902291,18.7230034 C13.1132849,18.8047843 13,18.9819423 13,19.1768714 L13,21.5 C13,21.7761424 13.2238576,22 13.5,22 L46.5,22 C46.7761424,22 47,21.7761424 47,21.5 L47,19.1768714 C47,18.9819423 46.8867151,18.8047843 46.7097709,18.7230034 L30.2097709,11.0969529 C30.0766871,11.0354436 29.9233129,11.0354436 29.7902291,11.0969529 Z" id="Shape" fill="#FFFFFF" fill-rule="nonzero"></path>
    </g>
</svg>