<?xml version="1.0" encoding="UTF-8"?>
<svg width="34px" height="34px" viewBox="0 0 34 34" version="1.1" xmlns="http://www.w3.org/2000/svg" xmlns:xlink="http://www.w3.org/1999/xlink">
    <!-- Generator: Sketch 46.2 (44496) - http://www.bohemiancoding.com/sketch -->
    <title>category_icon_energy</title>
    <desc>Created with Sketch.</desc>
    <defs></defs>
    <g id="Category-icons" stroke="none" stroke-width="1" fill="none" fill-rule="evenodd">
        <g id="category_icon_energy" fill-rule="nonzero" fill="#FFFFFF">
            <path d="M16.2043379,24.7087828 L16.5283125,18.9964578 C13.7305582,18.9964578 12.2188248,18.9964578 11.9931124,18.9964578 C11.6545437,18.9964578 11.2923378,19.0221951 11.1456299,18.6892395 C10.9989219,18.3562839 11.2055131,18.0800497 11.4570937,17.6198434 C11.7086743,17.1596372 16.1195483,9.19904848 16.5283125,8.63354875 C16.9370768,8.06804902 17.2289799,8 17.5682069,8 C17.9074339,8 18.0185505,8.54529295 17.9802986,9.36837782 C17.9547973,9.91710107 17.7487679,11.7955419 17.3622103,15.0037004 L22.0259099,15.0037004 C22.3839909,15.0037004 22.770085,14.9506528 22.901001,15.265213 C23.031917,15.5797732 22.7901548,15.9540049 22.5837542,16.3236098 L17.6128618,25.2884068 C17.3622103,25.7332916 17.1030351,26 16.6395608,26 C16.1760864,26 16.1846579,25.0489873 16.2043379,24.7087828 Z" id="Icon"></path>
        </g>
    </g>
</svg>